<?xml version="1.0" encoding="utf-8"?>
<!-- Generator: Adobe Illustrator 23.0.2, SVG Export Plug-In . SVG Version: 6.00 Build 0)  -->
<svg version="1.1" id="Слой_1" xmlns="http://www.w3.org/2000/svg" xmlns:xlink="http://www.w3.org/1999/xlink" x="0px" y="0px"
	 viewBox="0 0 682 171.6" style="enable-background:new 0 0 682 171.6;" xml:space="preserve">
<style type="text/css">
	.st0{fill:#040101;}
	.st1{fill:#FFC928;}
	.st2{fill:none;stroke:#000000;stroke-width:6;stroke-miterlimit:10;}
	.st3{opacity:0.71;}
	.st4{fill:#020202;}
</style>
<g>
	<g>
		<path class="st0" d="M169.8,18H5.6c-1.9,0-3.4-1.5-3.4-3.4v-0.2c0-1.9,1.5-3.4,3.4-3.4h164.2c1.9,0,3.4,1.5,3.4,3.4v0.2
			C173.2,16.5,171.7,18,169.8,18z"/>
		<path class="st0" d="M20.1,3.4v164.7c0,1.9-1.5,3.4-3.4,3.4h-0.1c-1.9,0-3.4-1.5-3.4-3.4V3.4c0-1.9,1.5-3.4,3.4-3.4h0.1
			C18.6,0.1,20.1,1.6,20.1,3.4z"/>
	</g>
	<path class="st1" d="M166.7,72.7v98.6H68.1C68,116.8,112.2,72.7,166.7,72.7z"/>
	<path class="st2" d="M68.3,171.6c0-54.5,44.2-98.6,98.6-98.6"/>
	<path d="M62.7,123.3l-22.3-6.8c-1.6-0.5-2.5-2.2-2-3.8l0,0c0.5-1.6,2.2-2.5,3.8-2l22.3,6.8c1.6,0.5,2.5,2.2,2,3.8l0,0
		C65.9,122.9,64.2,123.8,62.7,123.3z"/>
	<path d="M57.5,165.5H34.2c-1.7,0-3-1.3-3-3l0,0c0-1.7,1.3-3,3-3h23.3c1.7,0,3,1.3,3,3l0,0C60.5,164.2,59.2,165.5,57.5,165.5z"/>
	<path d="M80.5,91.8L64,75.3c-1.2-1.2-1.2-3.1,0-4.2l0,0c1.2-1.2,3.1-1.2,4.2,0l16.5,16.5c1.2,1.2,1.2,3.1,0,4.2l0,0
		C83.6,92.9,81.7,92.9,80.5,91.8z"/>
	<path d="M110.9,68.4l-5.6-22.6c-0.4-1.6,0.6-3.2,2.2-3.6l0,0c1.6-0.4,3.2,0.6,3.6,2.2l5.6,22.6c0.4,1.6-0.6,3.2-2.2,3.6l0,0
		C112.9,71,111.3,70,110.9,68.4z"/>
	<path d="M150.5,62.5V39.2c0-1.7,1.3-3,3-3l0,0c1.7,0,3,1.3,3,3v23.3c0,1.7-1.3,3-3,3l0,0C151.9,65.5,150.5,64.2,150.5,62.5z"/>
</g>
<g>
	<path d="M260.1,33.8c2.5,1.2,4,3.1,4.7,5.5c-1.5,7.7-2.8,15.4-3.9,23c-1.2,7.6-2.3,14-3.4,19.1s-1.8,9-2.2,11.5
		c-0.4,2.6-0.9,5.1-1.4,7.7l-0.7,2.2c-0.1,0.8-0.3,1.5-0.4,2.1c-0.1,0.7-0.3,1.4-0.4,2.1c-2,2.2-4.8,3.3-8.3,3.3
		c-3.7,0-6.7-0.9-8.8-2.7c-1.3-1-1.5-3-0.7-6.1c0.4-1.2,0.6-2.8,0.7-4.8s0.2-3.6,0.4-4.9v-0.2c-2.2,0.8-4.1,1.7-5.9,2.9
		c-1.7,1.2-2.8,2-3.3,2.3c-0.4,0.3-1,0.6-1.7,0.7c-0.7,0.2-1.4,0.3-2,0.4c-1.4,0.1-2.3,0.3-2.8,0.6c-4.2,7.2-8,11.2-11.3,12
		c-2.1,0.6-4.2,0.8-6.3,0.5c-2.1-0.3-3.8-1.5-5-3.6c-2.3-2.1-1.7-7.7,1.7-17c1.9-4.9,4.6-10.8,8.1-17.6c3.5-6.9,6.9-12.8,10.2-18
		c7.1-11,14.8-20.2,23.2-27.7c1.4-0.6,2.9-1.2,4.5-1.9s3.2-1.1,4.7-1.2c1.6-0.1,3.2,0.1,4.9,0.5c1.7,0.4,3.1,1,4.3,1.9
		C261.6,28.4,262,30.8,260.1,33.8z M236.7,61c-1.5,4.1-3.1,7.9-4.6,11.4s-2.8,6.5-3.9,9.2l8.6-0.3c0.6-4.4,1.2-8.8,2-13.1
		c0.7-4.3,1.4-8.7,2.1-13L236.7,61z M233.8,81.7c1,0,2-0.1,3.1-0.2v-0.1c-0.9,0.1-1.8,0.1-2.6,0.2C233.4,81.7,233.3,81.7,233.8,81.7
		z"/>
	<path d="M282.8,22.7c1.6-1.9,3.5-2.9,5.8-3.1c2.3-0.2,4.4,0.1,6.5,1s3.9,2.2,5.4,3.9c1.5,1.8,2.3,3.7,2.5,5.8l-1,3
		c0.8,0.9,1.5,1.6,2.1,2.2c0.6,0.6,1,1.4,1,2.6c0.4,1-1.4,4.8-5.5,11.5c-1.7,2.8-3.4,5.6-5.3,8.6s-3.4,5.7-4.5,8
		c0.9-0.2,1.7-0.4,2.6-0.5s1.7-0.3,2.6-0.5c5.4-1.3,9-2,10.9-2s3.5,0.2,4.7,0.6c3.3,1.2,5.1,3.2,5.2,5.8c-1,2.3-4.8,5.4-11.5,9.5
		c-1.5,0.9-2.8,1.7-3.7,2.3l-9.5,6.4c-0.5,0.8-0.9,1.5-1.1,2.2v0.1c0.1,0.3,1.1,0.8,2.8,1.4c1.7,0.6,3.2,1.2,4.4,1.7
		c2.9,1.2,5.5,2.9,7.7,5.1c0.7,0.8,1.2,1.9,1.4,3.4c0.2,1.5,0,2.8-0.7,4.1c-0.7,1.2-1.9,2.1-3.7,2.7c-1.7,0.6-4.2,0.3-7.3-0.7
		c-4.6-1.9-10-6.2-16.3-12.9c-0.7,2.4-1.4,4.8-2.1,7.1c-0.7,2.3-1.4,4.7-2.2,7.1c-1.1,2.3-3.6,3.4-7.6,3.3c-1.6,0-3-0.3-4.3-0.9
		s-2-1.4-2.2-2.5c-0.6-1.5-0.9-2.6-0.9-3.4c0-0.7,0.2-1.6,0.5-2.5c1.7-4,2.7-7.2,3.2-9.6c0.4-2.4,0.7-3.8,0.9-4.2
		c-2-1.2-3.2-3.2-3.6-5.9c-0.4-2.6,0.2-5,2-7c2.3-0.8,4-1.4,5-1.9c0.4-2.6,1.2-5.4,2.2-8.5c1.8-5.4,3.2-10.2,4.2-14.2
		s2.4-8.5,4.3-13.6S281.3,27.9,282.8,22.7z"/>
	<path d="M368.6,99.9c-0.5,1.4-1,2.7-1.6,3.8c-0.6,1.1-1.5,2.1-2.6,3.1c-1.2,1-2.5,1.9-4.1,2.7c-1.6,0.9-3.1,1.5-4.6,1.8
		c-3.3,0.7-5.1-0.2-5.2-2.8c-0.2-0.7-0.7-1.1-1.4-1.2c-0.7-0.1-1.3-0.3-1.9-0.6c-1.5-0.6-2-2.3-1.3-5.1c1.2-3.8,2.4-8.4,3.8-13.8
		s3.2-11.4,5.3-17.8c5.2-15.7,11.6-29.9,19.2-42.5c0.5-0.6,1.1-1.4,1.7-2.4c0.7-1,1.5-1.9,2.5-2.7c2.5-2.2,5.7-2.7,9.4-1.6
		c-0.1,0.9,0.1,1.7,0.7,2.4c0.5,0.7,1.1,1.5,1.7,2.2c1.7,1.8,2.4,3.4,2.3,4.9c-7.7,17.3-14.7,36.7-20.8,58c-0.7,2.5-1.3,4.7-1.7,6.5
		C369.6,96.8,369.1,98.5,368.6,99.9z"/>
	<path d="M393.7,59.2c0.9-2.3,3.2-3.8,6.8-4.7c3.3-0.8,6.5-0.7,9.4,0.3c3,1.1,4.3,2.9,4,5.4c-0.8,2.4-1.8,5.4-3,8.8
		c-1.2,3.5-2.3,7.1-3.4,10.7c-2.9,9.4-4.6,16-5,19.9c-1.1,6.2-2.9,9.6-5.5,10c-0.7,0.1-1.4,0.2-2.1,0.3c-1.6,0.1-2.6,0.5-3.1,1.2
		c-0.4,0.8-1.2,1.3-2.2,1.7c-1,0.4-2.1,0.6-3.3,0.5c-1.2,0-2.4-0.3-3.7-0.8c-1.2-0.5-2.3-1.3-3.2-2.2c-2-2.3-2.4-5.5-1.2-9.4
		c1.2-7.5,4.1-17.1,8.8-28.7C389.4,66.6,391.6,62.2,393.7,59.2z M414.3,43.6c-3.6,0.7-6.5,0.5-8.7-0.6s-3.5-2.4-3.9-4
		s0.1-3.2,1.5-4.8c1.6-2.1,4-3.4,7.2-4c1.5-0.1,2.5-0.2,3.2-0.2s1.5,0.1,2.4,0.4c2.4,0.2,4,1.2,4.7,3c1,1.5,1.1,3.2,0.3,5.2
		C420.2,40.5,417.9,42.2,414.3,43.6z"/>
	<path d="M435.1,104.3l-2.7,2.4c-1.5,1-2.9,1.6-4.3,1.8l0.1,0.1l-0.5,0.4c-5.2,0.4-9-0.7-11.5-3.2c-2.5-2.7-3.1-6.2-1.6-10.6
		c3.2-17.2,7.7-33.1,13.4-47.8c3.9-9.9,7.6-16.6,11.1-20c1.9-1.7,3.6-2.2,5.2-1.6c0.4-1.7,1.2-2.9,2.3-3.9c1.1-0.9,2.3-1.5,3.6-1.7
		s2.6,0,3.8,0.6s2.2,1.6,2.9,3.2c0.7,1.5,1,3,0.9,4.4s-0.4,2.8-1,4.1c-0.5,1.3-1.2,2.7-2,4s-1.5,2.6-2.1,3.9
		c-4.7,10.6-8,18.5-9.9,23.6l1-0.6c4.8-3,9.9-4.4,15.4-4c2.4,0.2,4.6,0.8,6.5,1.8s3.3,2.5,4.3,4.5c0.9,2,1.3,4.6,1.1,7.7
		s-0.8,6.4-1.9,9.7c-1.1,3.3-2.6,6.6-4.4,9.8c-1.9,3.2-3.9,5.9-6.2,8.3c-5.1,5.3-10,7.3-14.7,6c-2,0.3-4.4-0.6-7.1-2.7
		c-0.6-0.5-1.1-0.9-1.6-1.1L435.1,104.3L435.1,104.3z M438.1,96.8c1.1-1.2,3-3.4,5.6-6.6c2.7-3.2,4.4-5.8,5.3-7.6
		c0.9-1.8,0.7-3.5-0.7-5.1c-1.4-1.7-3.1-0.4-5.2,3.7C439.7,87.8,438.1,93,438.1,96.8z"/>
	<path d="M487.7,55.5c1.9-1.3,3.6-2.1,5.3-2.4c1.7-0.3,3.1-0.1,4.3,0.6c1.1,0.7,1.5,1.8,1.1,3.2c1.4-1.3,3.4-2.5,6-3.6
		s4.7-1.9,6.2-2.3c1.5-0.4,2.8-0.6,3.9-0.6c2.4,0.1,3.1,1.4,2.1,3.7c1.2,0.2,2.1,1,2.7,2.3c0.6,1.3,0.7,2.8,0.2,4.3
		c-0.4,1.6-1.4,3.1-2.9,4.7c-1.5,1.5-3.6,2.6-6.2,3.1c-2.6,0.6-4.7,1.8-6.4,3.8s-3.2,4.4-4.5,7.3c-2.2,4.9-4.1,11.8-5.9,20.8
		c-0.6,3.2-2.9,6-7.1,8.2c-3.9,2.1-7.5,2.8-10.8,1.9c-3.7-1-5.3-3.6-4.9-7.8c0.1-3,1.1-6.9,2.8-11.8s3.1-8.7,4-11.2s1.6-4.4,2-5.7
		l3.7-12.7C484.4,58.6,485.9,56.8,487.7,55.5z"/>
	<path d="M565.3,59.6l0.4,0.1c0.1,0,0.2,0,0.2,0.1c1.9-0.7,3.5-0.2,4.7,1.6c0.8,1.2,1.4,3,1.9,5.4c0.1,3.3-0.2,7.9-1.1,13.8
		c-1.7,11.9-2.6,18.9-2.7,21.2c0.1,2.4-1.4,4.1-4.7,5c-2.8,0.8-5.7,0.8-8.5-0.1c-3-1-4.2-2.4-3.7-4.4c-0.6,1-1.2,1.8-1.7,2.2
		c-0.6,0.4-1.7,1.1-3.4,1.9s-4.1,1.4-7.3,2c-3.1,0.5-6.3,0.7-9.4,0.4c-3.1-0.2-6-1-8.6-2.2s-4.3-3.1-5.2-5.6
		c-1.7-5-1.5-11.3,0.7-18.9c1.5-5,4.1-9.5,7.9-13.3c4.4-4.4,9.3-8.1,14.8-11c4.1-2.1,8.1-3.4,12-3.8c1.3-0.1,2.5-0.1,3.4,0.1
		c1,0.2,2,0.4,3.2,0.6c1.1,0.2,2.2,0.5,3.2,0.9C564,56.4,565.3,57.8,565.3,59.6z M545.2,87c0.5-1,0.9-2.2,1.3-3.6
		c0.3-1.4,0.8-3,1.4-4.8c-5.9,2.3-10.4,5.1-13.5,8.4c-3.4,3.7-3.2,6.2,0.7,7.6c3.3,0.8,5.8,0.3,7.3-1.6c0.7-0.8,1.2-1.9,1.7-3.1
		s1.1-2.5,1.9-3.8C545.6,86.4,545.4,86.7,545.2,87z"/>
	<path d="M589.5,55.5c1.9-1.3,3.6-2.1,5.3-2.4c1.7-0.3,3.1-0.1,4.3,0.6c1.1,0.7,1.5,1.8,1.1,3.2c1.4-1.3,3.4-2.5,6-3.6
		s4.7-1.9,6.2-2.3c1.5-0.4,2.8-0.6,3.9-0.6c2.4,0.1,3.1,1.4,2.1,3.7c1.2,0.2,2.1,1,2.7,2.3c0.6,1.3,0.7,2.8,0.2,4.3
		c-0.4,1.6-1.4,3.1-2.9,4.7c-1.5,1.5-3.6,2.6-6.2,3.1c-2.6,0.6-4.7,1.8-6.4,3.8s-3.2,4.4-4.5,7.3c-2.2,4.9-4.1,11.8-5.9,20.8
		c-0.6,3.2-2.9,6-7.1,8.2c-3.9,2.1-7.5,2.8-10.8,1.9c-3.7-1-5.3-3.6-4.9-7.8c0.1-3,1.1-6.9,2.8-11.8s3.1-8.7,4-11.2s1.6-4.4,2-5.7
		l3.7-12.7C586.2,58.6,587.6,56.8,589.5,55.5z"/>
	<path d="M621.1,72.3c0-2.8-0.2-5.1-0.7-6.9s-0.5-3.3,0.1-4.5c0.5-1.2,1.4-2.1,2.6-2.5c1.2-0.5,2.6-0.6,4.3-0.5
		c1.6,0.2,3.3,0.6,4.9,1.4c3.9,1.7,6.5,4,8.1,7c0.4,1.5,0.2,3.4-0.4,5.6c-0.6,2.2-1.3,4.6-2.1,6.9c-0.8,2.4-1.6,4.7-2.3,6.9
		c-0.7,2.2-1,4.1-0.9,5.6c1.9-1.1,3.5-2.8,5-5c1.4-2.2,2.7-4.6,3.9-7.1s2.3-5,3.4-7.5c1.1-2.5,2.1-4.4,3.1-5.9s1.8-2.6,2.3-3.5
		c0.6-0.9,1.2-1.6,1.7-2.3c0.9-1.2,2.2-2.3,3.7-3.4c0.4-0.3,1.8-0.3,4,0.2c2.2,0.4,3.9,0.8,4.9,0.9c1.1,0.2,1.8,0.1,2.1-0.2l1.5-1
		c2-1,4.4-0.9,7.2,0.1c2.7,1.1,4.1,2.8,4.3,5.1c-0.1,0.1-0.1,0.2-0.1,0.4l0.3,0.1l-0.8,0.6c-0.5,0.9-0.9,1.5-1.1,1.8
		c-0.3,0.3-0.8,0.8-1.6,1.4c-4.9,5-10.6,14.4-17,28c-1.6,3.4-3.1,6.4-4.4,9.1c2,1.2,3.5,2.7,4.5,4.6s1,3.9,0,6.1
		c-6,4.6-9.4,8.8-10.1,12.8c-0.4,2.5-0.8,4.2-1.4,5.3c-0.5,1-1.4,2-2.6,3c-3.9,2.8-8.5,2.1-13.9-2.1c-3.8-3.6-4-8.1-0.5-13.4
		c0.9-1.4,1.7-3,2.5-4.6c1.2-2.3,3-5.8,5.6-10.4c-6.3,3.4-12,3.4-17.2-0.2c-3.7-2.7-5-8.8-3.9-18.3
		C620.7,79.7,621.1,75.1,621.1,72.3z"/>
</g>
<g class="st3">
	<path class="st4" d="M218.8,160.1c0,0.4,0,0.9-0.1,1.3s-0.1,0.8-0.2,1.3c-0.1-0.1-0.2-0.1-0.3-0.1s-0.2-0.1-0.3-0.1
		c-0.1,0-0.2,0-0.3,0.1c-0.1,0.1-0.2,0.1-0.2,0.2s0.1,0.2,0.2,0.2s0.3,0.1,0.4,0.1s0.2,0,0.2,0c0,0.1,0,0.2-0.1,0.3
		c-0.1,0.1-0.2,0.2-0.3,0.3c-0.1,0.1-0.2,0.2-0.3,0.3c-0.1,0.1-0.2,0.2-0.3,0.2c-0.1,0.1-0.1,0.1-0.2,0.2s-0.2,0.2-0.3,0.3
		c-0.1,0.1-0.2,0.2-0.3,0.2c-0.1,0.1-0.2,0.1-0.3,0.1c-0.1,0-0.2,0-0.3-0.1c-0.1,0-0.1-0.1-0.2-0.1s-0.2,0-0.2,0.1s0,0.2,0,0.3v0.2
		c0,0-0.1,0.1-0.3,0.2c-0.2,0.1-0.5,0.1-0.8,0.2s-0.7,0.2-1,0.2c-0.3,0.1-0.6,0.2-0.9,0.2c-0.5,0.1-0.9,0.3-1.4,0.4
		s-0.9,0.1-1.4,0.1c-0.4,0-0.7,0-1.1-0.1c-0.3-0.1-0.7-0.2-1-0.2c-0.3-0.1-0.7-0.2-1-0.2c-0.3-0.1-0.7-0.1-1.1-0.1
		c-0.1,0-0.3,0-0.6,0.1c-0.2,0-0.4,0.1-0.5,0.2c-0.1,0-0.1,0.1-0.2,0.2s-0.1,0.1-0.2,0.1s-0.1,0-0.2-0.1c-0.1,0-0.2-0.1-0.2-0.1
		c-0.3-0.1-0.5-0.2-0.6-0.4c-0.2-0.2-0.3-0.3-0.4-0.5s-0.2-0.4-0.3-0.6c-0.1-0.2-0.1-0.4-0.1-0.6c0-0.1,0-0.3,0.1-0.4
		c0-0.1,0.1-0.3,0.1-0.4c0-0.2,0-0.4-0.1-0.6s-0.1-0.4-0.1-0.6c0-0.1,0-0.3,0.1-0.4s0.1-0.3,0.1-0.4s0-0.2-0.1-0.3
		c-0.1-0.1-0.1-0.2-0.1-0.3c0-0.1,0-0.1,0.1-0.2s0.1-0.1,0.1-0.2s0-0.2,0-0.3c0-0.1,0-0.2,0-0.3c0-0.1,0-0.1,0-0.2s0-0.2,0-0.3
		c0-0.1,0.1-0.2,0.1-0.2c0.1-0.1,0.1-0.1,0.2-0.1c0.2,0,0.4,0.1,0.6,0.3c0.2,0.2,0.4,0.4,0.6,0.7c0.2,0.3,0.3,0.5,0.4,0.8
		s0.2,0.4,0.2,0.6c0,0,0,0.1-0.1,0.1c0,0-0.1,0.1-0.2,0.1c0,0.1,0.1,0.1,0.1,0.3c0.1,0.1,0.1,0.2,0.1,0.3c0,0.1,0,0.2-0.1,0.3
		c0,0.1-0.1,0.2-0.1,0.3c0,0.1,0,0.2,0.1,0.2c0,0.1,0.1,0.1,0.2,0.2s0.2,0.2,0.2,0.2c0.1,0.1,0.1,0.1,0.2,0.1s0.2,0,0.3,0
		c0.1,0,0.2,0,0.4,0c0.2,0.2,0.5,0.5,0.7,0.7c0.3,0.2,0.6,0.4,0.9,0.6c0.5,0.1,1,0.2,1.5,0.2c0.5,0.1,1,0.1,1.5,0.1
		c0.4,0,0.8,0,1.1-0.1c0.3-0.1,0.6-0.2,0.8-0.3s0.5-0.2,0.8-0.4c0.2-0.1,0.5-0.3,0.8-0.4c0.2-0.1,0.4-0.2,0.6-0.3
		c0.2-0.1,0.4-0.2,0.6-0.3c0.2-0.1,0.4-0.2,0.6-0.3s0.3-0.3,0.4-0.4s0.2-0.2,0.3-0.3c0.1-0.1,0.2-0.2,0.2-0.3c0-0.1,0-0.1,0-0.1
		c0-0.3-0.1-0.5-0.1-0.8s0-0.5-0.1-0.8c0-0.3-0.1-0.4-0.2-0.6c-0.1-0.1-0.3-0.2-0.5-0.3c-0.2-0.1-0.4-0.2-0.6-0.3
		c-0.2-0.1-0.4-0.2-0.6-0.4c-0.2-0.2-0.4-0.3-0.7-0.3c-0.3,0-0.5-0.1-0.8-0.1s-0.6,0-0.8,0s-0.5-0.1-0.8-0.2c-0.1,0-0.1-0.1-0.2-0.1
		s-0.2,0-0.3,0.1c-0.1,0-0.2,0.1-0.3,0.1c-0.2,0-0.3,0-0.5-0.1c-0.2,0-0.3-0.1-0.5-0.1s-0.3-0.1-0.5-0.1s-0.3-0.1-0.5-0.1
		s-0.4,0-0.5-0.1c-0.1,0-0.3,0-0.4,0s-0.2-0.1-0.4-0.1c-0.1,0-0.3-0.1-0.5-0.2c-0.6-0.3-1.2-0.5-1.8-0.6c-0.1-0.2-0.3-0.5-0.5-0.7
		c-0.1-0.1-0.2-0.1-0.4-0.2c-0.1-0.1-0.2-0.1-0.3-0.2c-0.1-0.1-0.2-0.2-0.3-0.4c-0.1-0.2-0.2-0.4-0.3-0.7s-0.2-0.5-0.3-0.7
		c-0.1-0.2-0.1-0.4-0.1-0.5c0-0.2,0-0.4,0.1-0.6s0.2-0.3,0.4-0.5c0,0,0.1,0,0.1-0.1l0.1-0.1c0,0,0-0.1-0.1-0.1s-0.1-0.1-0.1-0.1l0,0
		c0,0,0,0,0-0.1c0.1-0.2,0.2-0.4,0.3-0.5c0.2-0.2,0.3-0.3,0.5-0.5s0.4-0.3,0.6-0.4s0.4-0.3,0.6-0.4c0.1-0.1,0.3-0.2,0.4-0.3
		c0.1-0.1,0.2-0.2,0.3-0.3c0.1,0,0.2,0,0.2,0c0.1,0,0.2,0,0.2,0c0.1,0,0.2,0,0.2,0c0.1,0,0.2,0,0.2,0c0.1,0,0.2-0.1,0.2-0.1l0.1-0.1
		c0,0,0.1-0.1,0.2-0.1s0.2,0,0.4,0c0.1,0,0.2,0,0.4,0c0.1,0,0.2,0,0.4,0c0.4,0,0.8,0,1.3,0c0.4,0,0.8,0,1.3,0c0.3,0,0.6,0,0.9,0
		s0.6,0,0.9,0.1c0.2,0,0.4,0,0.6,0.1c0.2,0,0.4,0.1,0.6,0.1s0.3,0,0.4-0.1s0.1-0.1,0.2-0.2c0-0.1,0.1-0.1,0.2-0.2s0.2-0.1,0.3-0.1
		c0.2,0,0.5,0,0.7,0.1s0.5,0.2,0.7,0.2v0.1c0,0.1,0,0.2,0,0.3c0,0.1,0,0.3,0.1,0.4s0.1,0.3,0.2,0.4s0.1,0.3,0.2,0.4s0.1,0.3,0.1,0.4
		s0,0.2,0,0.3c0,0.1,0,0.2,0,0.3c0,0.2,0,0.3,0.1,0.4s0.1,0.1,0.1,0.2s0,0.1-0.1,0.2s-0.1,0.1-0.1,0.2c0,0.2,0,0.4,0,0.7
		c0,0.2,0,0.4,0,0.7c0,0.1,0,0.2,0,0.3c0,0.2,0,0.3-0.1,0.5c0,0.1-0.1,0.3-0.2,0.4s-0.2,0.2-0.4,0.2c-0.2,0-0.3,0-0.5-0.1
		s-0.3-0.2-0.4-0.3c-0.1-0.1-0.2-0.2-0.3-0.4c-0.1-0.1-0.1-0.3-0.2-0.4c0-0.2-0.1-0.3-0.1-0.5c-0.1-0.1-0.1-0.3-0.2-0.4
		c-0.2-0.2-0.3-0.4-0.5-0.6s-0.3-0.4-0.5-0.6c-0.1-0.2-0.2-0.3-0.3-0.3c-0.1-0.1-0.2-0.1-0.3-0.1c-0.1,0-0.2,0-0.3,0s-0.3,0-0.5,0
		s-0.4-0.1-0.6-0.1c-0.2-0.1-0.4-0.1-0.6-0.1s-0.4-0.1-0.6-0.1s-0.4-0.1-0.6-0.1c-0.3,0-0.6,0-1,0.1c-0.3,0.1-0.7,0.2-1,0.3
		c-0.3,0.1-0.7,0.2-1,0.4c-0.3,0.1-0.6,0.2-0.9,0.3c-0.3,0.4-0.4,0.9-0.4,1.4c0,0.4,0.1,0.7,0.2,0.9c0.1,0.2,0.3,0.4,0.5,0.6
		s0.4,0.3,0.7,0.4c0.2,0.1,0.5,0.3,0.8,0.4s0.6,0.2,0.9,0.3s0.6,0.1,0.9,0.1c0.2,0,0.4,0,0.6,0s0.4,0,0.6,0s0.4,0,0.6,0.1
		c0.2,0,0.4,0.1,0.6,0.1c0.2,0.1,0.4,0.1,0.6,0.1s0.4,0.1,0.6,0.1s0.4,0,0.5,0c0.2,0,0.3,0,0.5,0s0.3,0,0.4,0.1s0.2,0.1,0.4,0.2
		c0.1,0.1,0.2,0.1,0.4,0.2s0.3,0.1,0.4,0.1c0.2,0.1,0.4,0.2,0.5,0.2c0.1,0.1,0.3,0.1,0.4,0.2s0.2,0.2,0.3,0.3
		c0.1,0.1,0.2,0.2,0.4,0.4c0.1,0.2,0.3,0.3,0.5,0.4s0.4,0.3,0.5,0.4c0,0.1,0.1,0.1,0.1,0.2s0,0.2,0,0.2c0,0.1,0.1,0.1,0.1,0.2
		s0.1,0.1,0.2,0.1c0,0.1,0,0.2,0,0.3C218.8,159.9,218.8,160,218.8,160.1z"/>
	<path class="st4" d="M242.8,149.3c0,0.1,0,0.2-0.1,0.3s-0.2,0.1-0.4,0.2c-0.1,0.1-0.3,0.1-0.4,0.1s-0.3,0.1-0.4,0.1
		s-0.2,0.1-0.2,0.1c-0.1,0-0.1,0.1-0.2,0.1s-0.1,0.1-0.2,0.1s-0.2,0.1-0.3,0.1c-0.1,0-0.3,0-0.4,0s-0.2,0-0.3,0s-0.2,0-0.3,0.1
		c-0.1,0.1-0.2,0.1-0.2,0.3c-0.1,0.1-0.1,0.2-0.1,0.4c0,0.1-0.1,0.3-0.1,0.4c-0.1,0.1-0.1,0.2-0.2,0.3c-0.1,0.1-0.3,0.1-0.5,0.1
		c0,0.1,0,0.2,0.1,0.3s0.2,0.2,0.3,0.3c0.1,0.1,0.2,0.2,0.3,0.3c0.1,0.1,0.1,0.2,0.1,0.3c0,0.1,0,0.2-0.1,0.3
		c-0.1,0.1-0.1,0.2-0.1,0.3v0.8c0,0.2,0,0.3,0.1,0.5s0.1,0.3,0.1,0.5c0,0.1,0,0.2-0.1,0.3c-0.1,0.1-0.1,0.2-0.1,0.3
		c0,0.4,0,0.7,0.1,1.1s0.1,0.7,0.1,1.1c0,0.2,0,0.5-0.1,0.8s-0.2,0.5-0.4,0.7c0,0.1,0,0.2,0.1,0.3c0.1,0.1,0.1,0.2,0.2,0.3
		c0.1,0.1,0.1,0.2,0.2,0.3c0,0.1,0.1,0.2,0.1,0.4c0,0.2,0,0.4-0.1,0.6c0,0.2-0.1,0.5-0.2,0.7s-0.2,0.4-0.4,0.6
		c-0.2,0.2-0.4,0.3-0.7,0.3c0,0,0,0-0.1,0s0,0-0.1,0v0.1l0,0c0,0.1,0,0.2,0.1,0.3s0.1,0.2,0.1,0.3c0,0.1,0,0.1-0.1,0.2
		s-0.2,0.2-0.3,0.3c-0.1,0.1-0.3,0.2-0.4,0.3c-0.1,0.1-0.3,0.2-0.3,0.2c-0.1,0.1-0.2,0.2-0.2,0.2c0,0.1-0.1,0.1-0.1,0.2
		s-0.1,0.1-0.2,0.1s-0.2,0.1-0.4,0.1c-0.3,0-0.5,0.1-0.8,0.2c-0.2,0.1-0.4,0.2-0.6,0.3c-0.2,0.1-0.4,0.2-0.7,0.2s-0.5,0.1-0.9,0.1
		c-0.2,0-0.4,0-0.5-0.1c-0.2,0-0.4-0.1-0.5-0.1c-0.2,0-0.4-0.1-0.5-0.1s-0.4-0.1-0.5-0.1s-0.3,0-0.4,0s-0.3,0-0.4,0s-0.2,0-0.3,0
		c-0.1,0-0.1,0-0.2-0.1s-0.1-0.1-0.3-0.1c-0.1,0-0.2-0.1-0.4-0.1s-0.3-0.1-0.4-0.1s-0.2-0.1-0.3-0.1c-0.2,0-0.4-0.1-0.6-0.3
		c-0.2-0.1-0.3-0.3-0.5-0.4c-0.1-0.2-0.3-0.3-0.4-0.5s-0.2-0.3-0.3-0.5c-0.1-0.3-0.2-0.6-0.3-0.9c-0.1-0.3-0.1-0.6-0.1-0.9
		s-0.1-0.6-0.1-0.9s-0.1-0.6-0.2-0.9c0-0.1-0.1-0.2-0.1-0.4c0-0.1-0.1-0.2-0.1-0.4c0-0.1,0-0.2,0-0.3c0-0.1,0-0.2,0.1-0.3
		c0.1-0.4,0.2-0.7,0.2-1.1s0.1-0.7,0.1-1.1c0-0.5,0-1-0.1-1.4c-0.1-0.5-0.1-1-0.1-1.4c0-0.1,0-0.2,0-0.3s0-0.2,0-0.3
		c0-0.2,0.1-0.3,0.1-0.5c0.1-0.2,0.1-0.3,0.1-0.5c0-0.1,0-0.1,0-0.2s0-0.1-0.1-0.2c-0.1-0.2-0.2-0.4-0.2-0.6s0-0.4-0.1-0.6
		c0-0.4-0.1-0.6-0.3-0.8c-0.1-0.2-0.3-0.3-0.6-0.3c-0.2-0.1-0.5-0.1-0.7-0.2c-0.3,0-0.6-0.2-0.9-0.3c-0.1,0-0.2-0.1-0.2-0.2
		c-0.1-0.1-0.1-0.1-0.1-0.2s0.1-0.3,0.3-0.4c0.2-0.1,0.4-0.2,0.7-0.3c0.3-0.1,0.5-0.1,0.8-0.2c0.3,0,0.5-0.1,0.6-0.1
		c0.2,0,0.3,0,0.5,0.1c0.2,0,0.3,0.1,0.5,0.1c0.4,0,0.7,0,1-0.1s0.7-0.1,1-0.1c0.1,0,0.4,0,0.7,0.1c0.3,0,0.6,0.1,0.9,0.2
		s0.6,0.2,0.8,0.3c0.2,0.1,0.3,0.2,0.3,0.4c0,0.2-0.1,0.4-0.2,0.5c-0.1,0.2-0.3,0.3-0.6,0.5c-0.2,0.2-0.5,0.3-0.7,0.5
		c-0.3,0.2-0.5,0.3-0.7,0.5s-0.4,0.4-0.6,0.6s-0.2,0.5-0.2,0.8c0,0.2,0,0.3,0,0.5s0,0.3,0,0.5c0,0.3,0,0.7-0.1,1s-0.1,0.7-0.1,1
		s0.1,0.5,0.2,0.8c0.1,0.2,0.2,0.4,0.2,0.5s0,0.3-0.1,0.4c0,0.1-0.1,0.2-0.1,0.4c0,0.1,0,0.1,0,0.2s0,0.1,0,0.2s0,0.2-0.1,0.3
		s-0.1,0.2-0.2,0.2c-0.1,0.1-0.1,0.1-0.2,0.2s-0.1,0.1-0.1,0.2c0.1,0,0.1-0.1,0.2-0.1s0.1,0,0.2,0s0.1,0,0.2,0.1l0.1,0.1
		c0,0.1,0,0.1,0.1,0.2c0,0.1,0,0.1,0,0.2c0,0.2,0,0.4,0.1,0.6s0.1,0.4,0.1,0.6s0,0.4-0.1,0.6c0,0.2-0.1,0.4-0.1,0.6s0,0.4,0.1,0.5
		c0,0.2,0.2,0.3,0.4,0.4c0,0,0.1,0.1,0.1,0.2c0.1,0.1,0.1,0.2,0.2,0.3c0.1,0.1,0.1,0.2,0.2,0.3s0.1,0.2,0.2,0.2
		c0.1,0.1,0.3,0.2,0.4,0.2c0.2,0.1,0.3,0.1,0.5,0.2s0.3,0.1,0.5,0.2c0.1,0.1,0.3,0.2,0.4,0.3c0.1,0.1,0.2,0.2,0.4,0.2
		s0.3,0.1,0.5,0.2c0.1,0.1,0.3,0.2,0.4,0.3c0.1,0.1,0.2,0.2,0.2,0.3c0-0.1,0-0.2,0.1-0.3v0.1c0,0.1,0,0.1-0.1,0.2l0.1-0.1
		c0-0.1,0.1-0.1,0.1-0.2s0.1-0.1,0.1-0.2l0.1-0.1c0.1,0,0.1,0,0.2,0.1c0.1,0,0.1,0.1,0.1,0.2s0,0.2-0.1,0.2c0,0.1-0.1,0.2-0.1,0.2
		c0.1,0,0.2,0,0.3-0.1s0.2-0.1,0.3-0.1c0.1-0.1,0.2-0.1,0.2-0.2c0.1-0.1,0.1-0.2,0.1-0.3c0-0.1,0-0.2-0.1-0.2s-0.2,0-0.3,0
		c-0.1,0-0.2,0-0.3,0s-0.2,0-0.3,0l0,0c0.1-0.1,0.1-0.2,0.2-0.3s0.2-0.2,0.4-0.2c0.1-0.1,0.3-0.1,0.4-0.1c0.2,0,0.3-0.1,0.4-0.1
		c0.2-0.1,0.4-0.2,0.6-0.3c0.1-0.1,0.3-0.2,0.4-0.4c0.1-0.1,0.2-0.3,0.4-0.4c0.1-0.1,0.3-0.3,0.4-0.4c0-0.1,0-0.1,0-0.2s0-0.1,0-0.2
		c0-0.2,0-0.4,0-0.5c0-0.2,0-0.3,0-0.5s0-0.4,0.1-0.6s0.1-0.4,0.1-0.6s0-0.3-0.1-0.5s-0.1-0.3-0.1-0.5s0-0.3,0.1-0.4
		s0.1-0.3,0.1-0.4c0-0.2,0-0.5-0.1-0.7s-0.1-0.5-0.1-0.7c0-0.3,0-0.6,0.1-0.9s0.1-0.6,0.1-0.9c0-0.4,0-0.8-0.1-1.2
		c-0.1-0.4-0.1-0.8-0.1-1.2c0-0.1,0-0.1,0-0.2s0-0.2,0-0.3c0-0.1,0.1-0.2,0.1-0.3c0.1-0.1,0.1-0.1,0.2-0.1c-0.1,0-0.2-0.1-0.4-0.2
		s-0.3-0.2-0.4-0.3c-0.1-0.1-0.3-0.2-0.4-0.4c-0.1-0.1-0.2-0.2-0.2-0.3c-0.1,0-0.1,0-0.2,0s-0.1,0-0.2,0c-0.2,0-0.3,0-0.4-0.1
		c-0.1,0-0.3-0.1-0.4-0.1s-0.3-0.1-0.4-0.1s-0.3-0.1-0.5-0.1h-0.1c0-0.2-0.1-0.4-0.2-0.6s-0.1-0.4-0.1-0.6s0.1-0.3,0.2-0.4
		s0.3-0.2,0.4-0.2c0.2-0.1,0.4-0.1,0.6-0.1s0.4,0,0.6,0c0.3,0,0.6,0,0.9,0s0.6,0,0.9,0c0.2,0,0.4,0,0.6-0.1s0.4-0.1,0.6-0.1
		c0.1,0,0.2,0,0.4,0.1s0.3,0.1,0.4,0.1c0.1,0.1,0.3,0.1,0.4,0.1s0.3,0.1,0.4,0.1c0.2,0,0.4,0,0.7,0c0.2,0,0.5,0,0.7,0s0.5,0,0.7,0.1
		c0.2,0,0.4,0.1,0.6,0.2c0.1,0.1,0.2,0.1,0.2,0.2C242.8,149.1,242.8,149.2,242.8,149.3z"/>
	<path class="st4" d="M265.2,149.8c0,0.1,0,0.2-0.1,0.3s-0.1,0.1-0.3,0.1c0,0-0.1,0-0.1-0.1l-0.1-0.1l-0.1-0.1l-0.1-0.1
		c0,0.2,0,0.3,0,0.4s0,0.1,0,0.2l-0.1,0.1h-0.1c-0.1,0-0.2,0-0.2,0c-0.1,0-0.2,0-0.2,0c-0.3,0-0.4,0.1-0.6,0.1s-0.2,0-0.3,0.1
		c-0.1,0-0.1,0.1-0.1,0.2s0,0.2,0,0.4c0,0.2,0,0.3,0,0.4s0,0.3,0,0.4c0,0.4,0,0.8,0.1,1.2s0.1,0.8,0.1,1.2c0,0.2,0,0.4-0.1,0.6
		c0,0.2-0.1,0.4-0.1,0.6s0,0.3,0.1,0.5s0.1,0.3,0.1,0.5c0,0,0,0.1-0.1,0.1l-0.1,0.1l-0.1,0.1c0,0.1-0.1,0.1-0.1,0.2
		c0,0.2,0,0.3,0.1,0.5s0.1,0.3,0.1,0.5c0,0.3,0,0.5-0.1,0.8c0,0.3-0.1,0.5-0.1,0.8s-0.1,0.5-0.1,0.8s-0.1,0.5-0.1,0.8
		c0,0.2,0,0.4,0.1,0.6c0,0.2,0.1,0.4,0.2,0.6c0,0,0,0.1,0.1,0.1c0,0.1,0,0.1,0,0.1c0,0.1,0,0.2-0.1,0.3c-0.1,0.1-0.1,0.1-0.1,0.2
		c0,0,0,0.1,0.1,0.2s0.1,0.1,0.1,0.2c0.1,0.2,0.1,0.4,0.2,0.6c0,0.2,0.1,0.4,0.1,0.7c0,0.2-0.1,0.4-0.2,0.5
		c-0.1,0.2-0.3,0.3-0.5,0.5c-0.2,0.1-0.4,0.2-0.7,0.3s-0.5,0.1-0.8,0.1s-0.6-0.1-0.9-0.2c-0.2-0.2-0.4-0.4-0.6-0.6s-0.3-0.5-0.5-0.7
		c-0.1-0.3-0.3-0.5-0.4-0.7s-0.2-0.3-0.3-0.4c-0.1-0.1-0.1-0.3-0.2-0.4s-0.1-0.3-0.2-0.4s-0.2-0.3-0.4-0.4c-0.1-0.1-0.3-0.2-0.3-0.4
		c-0.1-0.1-0.1-0.3-0.2-0.4s-0.1-0.3-0.1-0.5s-0.1-0.3-0.1-0.4c-0.1-0.3-0.3-0.7-0.4-1s-0.3-0.6-0.5-1c-0.1-0.1-0.1-0.2-0.2-0.3
		c-0.1-0.1-0.2-0.3-0.3-0.4c-0.1-0.1-0.2-0.2-0.2-0.4c-0.1-0.1-0.1-0.2-0.1-0.3c0-0.3-0.1-0.5-0.3-0.8s-0.3-0.4-0.5-0.6
		s-0.3-0.4-0.5-0.6s-0.3-0.4-0.3-0.7c0-0.1-0.1-0.2-0.1-0.3c-0.1-0.1-0.1-0.3-0.2-0.4s-0.2-0.3-0.3-0.4c-0.1-0.1-0.2-0.2-0.4-0.2
		c-0.1,0-0.2,0-0.3,0.1c-0.1,0.1-0.1,0.2-0.2,0.3c0,0.1-0.1,0.2-0.1,0.4c0,0.1,0,0.2,0,0.3c0,0.2,0,0.3,0,0.5s0,0.3,0,0.5
		c0,0.1,0,0.2-0.1,0.4c-0.1,0.1-0.1,0.2-0.1,0.4c0,0.1,0,0.1,0.1,0.2s0.1,0.1,0.1,0.2s0,0.1,0,0.2s0,0.1,0,0.2c0,0.2,0,0.4,0,0.6
		s0,0.4,0,0.6c0,0.1,0,0.3,0,0.4s-0.1,0.3-0.1,0.4c-0.1,0.1-0.2,0.2-0.3,0.3c-0.1,0.1-0.3,0.1-0.5,0.2c0,0.1,0.1,0.1,0.2,0.1
		s0.1,0,0.2,0s0.1,0,0.2,0s0.1,0.1,0.1,0.1v0.1v0.1c0,0.1,0,0.2,0.1,0.2c0,0.1,0.1,0.1,0.2,0.2s0.1,0.1,0.2,0.2
		c0,0.1,0.1,0.1,0.1,0.2s0,0.2,0,0.3s0,0.2,0,0.3c0,0.2,0,0.4,0.1,0.6s0.1,0.4,0.1,0.6c0,0.1,0,0.2,0,0.2l-0.1,0.1
		c0,0-0.1,0-0.1,0.1c0,0,0,0,0,0.1s0,0.2,0,0.2s0,0.1,0,0.2s0,0.1,0,0.2s-0.1,0.1-0.1,0.1c0,0.1,0.1,0.2,0.1,0.2
		c0.1,0,0.2,0.1,0.3,0.1c0.1,0,0.2,0.1,0.3,0.1s0.2,0.1,0.2,0.2s0.1,0.1,0.1,0.2s0.1,0.1,0.3,0.1c0.2,0,0.4,0,0.5-0.1
		s0.3-0.1,0.5-0.1c0.3,0,0.5,0.1,0.6,0.3c0.1,0.2,0.2,0.4,0.2,0.5c0,0.2-0.1,0.4-0.2,0.5s-0.2,0.2-0.3,0.2c-0.1,0-0.2,0.1-0.3,0.1
		c-0.1,0-0.2,0.1-0.2,0.2l0,0l0,0c-0.2-0.1-0.3-0.1-0.5-0.2c-0.2,0-0.4-0.1-0.5-0.1c-0.3,0-0.7,0-1,0.1s-0.7,0.1-1,0.1
		c-0.2,0-0.5,0-0.7-0.1c-0.2,0-0.5-0.1-0.7-0.1s-0.3,0-0.5,0c-0.1,0-0.3,0-0.5,0s-0.4,0-0.6-0.1c-0.3-0.1-0.5-0.1-0.7-0.2
		s-0.5-0.2-0.6-0.3c-0.2-0.1-0.3-0.2-0.3-0.3c0-0.3,0.1-0.5,0.3-0.7c0.2-0.2,0.5-0.3,0.8-0.4c0.2,0,0.4,0,0.6,0s0.4,0,0.6,0
		s0.4,0,0.6-0.1s0.3-0.1,0.4-0.2c0-0.1-0.1-0.3-0.1-0.4c0-0.3,0.1-0.6,0.1-0.9c0.1-0.3,0.1-0.6,0.1-0.9c0-0.1,0-0.2,0-0.4
		c-0.1-0.6-0.2-1.2-0.2-1.8c0-0.2,0-0.3,0-0.5s0-0.3,0-0.5c0-0.4,0-0.9-0.1-1.3s-0.1-0.9-0.2-1.3c0-0.5,0-0.9,0-1.4
		s-0.1-0.9-0.2-1.4c0-0.1-0.1-0.2-0.1-0.3c0-0.1,0-0.2,0-0.3v-0.5c0-0.4,0-0.6-0.1-0.8c0-0.2-0.1-0.3-0.2-0.4s-0.3-0.1-0.4-0.2
		s-0.4,0-0.6-0.1c-0.1,0-0.3-0.1-0.4-0.2s-0.3-0.2-0.4-0.3c-0.1-0.1-0.2-0.3-0.3-0.4c-0.1-0.1-0.1-0.3-0.1-0.4v-0.3
		c0-0.3,0.1-0.6,0.2-0.8c0.1-0.2,0.3-0.3,0.5-0.4s0.5-0.1,0.8-0.2s0.7,0,1,0s0.7,0,1.1,0s0.8,0.1,1.1,0.1s0.7,0.2,1,0.3
		c0.3,0.1,0.5,0.3,0.7,0.6c0.1,0.2,0.2,0.3,0.3,0.5c0.1,0.2,0.2,0.3,0.2,0.5c0.1,0.2,0.2,0.4,0.2,0.5c0.1,0.2,0.2,0.3,0.3,0.5
		c0.1,0.1,0.1,0.2,0.1,0.2c0,0.1,0.1,0.2,0.1,0.3c0,0.1,0.1,0.2,0.1,0.3s0.1,0.2,0.1,0.2c0.1,0.1,0.2,0.1,0.3,0.2
		c0.1,0.1,0.2,0.1,0.2,0.2c0.1,0.2,0.2,0.3,0.2,0.5s0.1,0.4,0.1,0.5s0.1,0.4,0.1,0.5c0,0.2,0.1,0.4,0.2,0.5s0.1,0.2,0.2,0.3
		c0.1,0.1,0.1,0.1,0.2,0.2c0,0.1,0.1,0.1,0.1,0.2s0.1,0.2,0.1,0.3c0,0.2,0,0.4,0.1,0.6c0,0.2,0.1,0.4,0.2,0.5s0.2,0.2,0.3,0.4
		c0.1,0.1,0.2,0.2,0.3,0.3s0.2,0.2,0.3,0.3c0.1,0.1,0.2,0.2,0.2,0.4c0.1,0.3,0.2,0.5,0.3,0.7c0.1,0.2,0.3,0.4,0.6,0.6
		c-0.1,0.1-0.1,0.2-0.2,0.2c0,0.1-0.1,0.2-0.1,0.3c0,0.2,0.1,0.4,0.2,0.5c0.1,0.2,0.2,0.3,0.3,0.5c0.1,0.1,0.1,0.2,0.2,0.3
		c0.1,0.1,0.2,0.2,0.4,0.2c0.2,0.1,0.3,0.1,0.3,0.2c0.1,0,0.1,0.1,0.1,0.2s0,0.1,0,0.2s0,0.2,0,0.3c0,0.1,0,0.1,0.1,0.2
		s0.1,0.1,0.1,0.2s0.1,0.1,0.2,0.2s0.1,0.1,0.2,0.1s0.1,0,0.1-0.1s0.1-0.1,0.1-0.1c0-0.1,0-0.1,0-0.2s0-0.1,0-0.1
		c0-0.1,0-0.2,0.1-0.3c0.1-0.1,0.1-0.2,0.1-0.3c0-0.1,0-0.3-0.1-0.4s-0.1-0.2-0.1-0.4c0-0.1,0-0.2,0.1-0.3c0.1-0.1,0.1-0.2,0.1-0.3
		c0-0.1,0-0.2-0.1-0.2c-0.1-0.1-0.1-0.1-0.1-0.2l0,0h0.1h0.1v-0.1c0-0.2,0-0.4-0.1-0.6s-0.1-0.4-0.2-0.6s-0.1-0.4-0.2-0.6
		s-0.1-0.4-0.1-0.6s0.1-0.4,0.2-0.5c0.1-0.2,0.2-0.3,0.2-0.3c0-0.1,0-0.2-0.1-0.3c-0.1-0.1-0.1-0.2-0.1-0.3c0-0.1,0-0.2,0.1-0.4
		c0.1-0.1,0.1-0.2,0.1-0.4c0-0.1,0-0.1-0.1-0.2c0-0.1-0.1-0.1-0.1-0.2c-0.1-0.1-0.1-0.2-0.2-0.2c0-0.1-0.1-0.2-0.1-0.2
		c0-0.1-0.1-0.3-0.1-0.4s0-0.3,0-0.4v-0.5c0-0.2,0-0.4,0-0.7c0-0.2-0.1-0.4-0.2-0.7c-0.1-0.2-0.1-0.4-0.1-0.6s0-0.3-0.1-0.4
		s-0.2-0.2-0.3-0.3c-0.2-0.1-0.4-0.1-0.8-0.1c-0.3,0-0.5,0-0.8,0s-0.5,0-0.8-0.1c-0.2,0-0.3-0.1-0.4-0.2s-0.1-0.2-0.2-0.4
		c0-0.1,0-0.3,0-0.4s0-0.3,0-0.3c0-0.2,0.1-0.3,0.3-0.4c0.2-0.1,0.4-0.2,0.7-0.3c0.3-0.1,0.6-0.1,0.9-0.1s0.5,0,0.7,0
		c0.1,0,0.3,0,0.5,0c0.3,0,0.5,0,0.8,0.1s0.6,0.1,1,0.1c0.3,0,0.6,0.1,0.9,0.2s0.5,0.1,0.7,0.2s0.3,0.2,0.3,0.3
		c0.1-0.1,0.2-0.2,0.3-0.2c0.1-0.1,0.3-0.1,0.4-0.1s0.3,0,0.4,0.1s0.2,0.1,0.3,0.2c0.1,0.1,0.2,0.2,0.2,0.3
		C265.2,149.6,265.2,149.7,265.2,149.8z M249.5,165.6c0-0.1,0-0.1-0.1-0.2c-0.1,0-0.1-0.1-0.2-0.1s-0.2,0-0.2-0.1s-0.1-0.1-0.2-0.1
		c0,0,0,0,0,0.1c0,0,0,0,0,0.1s0,0.1,0.1,0.2c0.1,0,0.1,0.1,0.2,0.1s0.2,0,0.2,0.1c0.1,0,0.1,0.1,0.2,0.1
		C249.5,165.7,249.5,165.7,249.5,165.6L249.5,165.6z"/>
	<path class="st4" d="M286.7,160.1c0,0.4,0,0.9-0.1,1.3s-0.1,0.8-0.2,1.3c-0.1-0.1-0.2-0.1-0.3-0.1s-0.2-0.1-0.3-0.1
		c-0.1,0-0.2,0-0.3,0.1c-0.1,0.1-0.2,0.1-0.2,0.2s0.1,0.2,0.2,0.2s0.3,0.1,0.4,0.1s0.2,0,0.2,0c0,0.1,0,0.2-0.1,0.3
		c-0.1,0.1-0.2,0.2-0.3,0.3c-0.1,0.1-0.2,0.2-0.3,0.3c-0.1,0.1-0.2,0.2-0.3,0.2c-0.1,0.1-0.1,0.1-0.2,0.2s-0.2,0.2-0.3,0.3
		c-0.1,0.1-0.2,0.2-0.3,0.2c-0.1,0.1-0.2,0.1-0.3,0.1c-0.1,0-0.2,0-0.3-0.1c-0.1,0-0.1-0.1-0.2-0.1s-0.2,0-0.2,0.1s0,0.2,0,0.3v0.2
		c0,0-0.1,0.1-0.3,0.2c-0.2,0.1-0.5,0.1-0.8,0.2s-0.7,0.2-1,0.2c-0.3,0.1-0.6,0.2-0.9,0.2c-0.5,0.1-0.9,0.3-1.4,0.4
		s-0.9,0.1-1.4,0.1c-0.4,0-0.7,0-1.1-0.1c-0.3-0.1-0.7-0.2-1-0.2c-0.3-0.1-0.7-0.2-1-0.2c-0.3-0.1-0.7-0.1-1.1-0.1
		c-0.1,0-0.3,0-0.6,0.1c-0.2,0-0.4,0.1-0.5,0.2c-0.1,0-0.1,0.1-0.2,0.2s-0.1,0.1-0.2,0.1s-0.1,0-0.2-0.1c-0.1,0-0.2-0.1-0.2-0.1
		c-0.3-0.1-0.5-0.2-0.6-0.4c-0.2-0.2-0.3-0.3-0.4-0.5s-0.2-0.4-0.3-0.6c-0.1-0.2-0.1-0.4-0.1-0.6c0-0.1,0-0.3,0.1-0.4
		c0-0.1,0.1-0.3,0.1-0.4c0-0.2,0-0.4-0.1-0.6s-0.1-0.4-0.1-0.6c0-0.1,0-0.3,0.1-0.4s0.1-0.3,0.1-0.4s0-0.2-0.1-0.3
		c-0.1-0.1-0.1-0.2-0.1-0.3c0-0.1,0-0.1,0.1-0.2s0.1-0.1,0.1-0.2s0-0.2,0-0.3c0-0.1,0-0.2,0-0.3c0-0.1,0-0.1,0-0.2s0-0.2,0-0.3
		c0-0.1,0.1-0.2,0.1-0.2c0.1-0.1,0.1-0.1,0.2-0.1c0.2,0,0.4,0.1,0.6,0.3c0.2,0.2,0.4,0.4,0.6,0.7c0.2,0.3,0.3,0.5,0.4,0.8
		s0.2,0.4,0.2,0.6c0,0,0,0.1-0.1,0.1c0,0-0.1,0.1-0.2,0.1c0,0.1,0.1,0.1,0.1,0.3c0.1,0.1,0.1,0.2,0.1,0.3c0,0.1,0,0.2-0.1,0.3
		c0,0.1-0.1,0.2-0.1,0.3c0,0.1,0,0.2,0.1,0.2c0,0.1,0.1,0.1,0.2,0.2s0.2,0.2,0.2,0.2c0.1,0.1,0.1,0.1,0.2,0.1s0.2,0,0.3,0
		c0.1,0,0.2,0,0.4,0c0.2,0.2,0.5,0.5,0.7,0.7c0.3,0.2,0.6,0.4,0.9,0.6c0.5,0.1,1,0.2,1.5,0.2c0.5,0.1,1,0.1,1.5,0.1
		c0.4,0,0.8,0,1.1-0.1c0.3-0.1,0.6-0.2,0.8-0.3s0.5-0.2,0.8-0.4c0.2-0.1,0.5-0.3,0.8-0.4c0.2-0.1,0.4-0.2,0.6-0.3
		c0.2-0.1,0.4-0.2,0.6-0.3c0.2-0.1,0.4-0.2,0.6-0.3s0.3-0.3,0.4-0.4s0.2-0.2,0.3-0.3c0.1-0.1,0.2-0.2,0.2-0.3c0-0.1,0-0.1,0-0.1
		c0-0.3-0.1-0.5-0.1-0.8s0-0.5-0.1-0.8c0-0.3-0.1-0.4-0.2-0.6c-0.1-0.1-0.3-0.2-0.5-0.3c-0.2-0.1-0.4-0.2-0.6-0.3
		c-0.2-0.1-0.4-0.2-0.6-0.4c-0.2-0.2-0.4-0.3-0.7-0.3c-0.3,0-0.5-0.1-0.8-0.1s-0.6,0-0.8,0s-0.5-0.1-0.8-0.2c-0.1,0-0.1-0.1-0.2-0.1
		s-0.2,0-0.3,0.1c-0.1,0-0.2,0.1-0.3,0.1c-0.2,0-0.3,0-0.5-0.1c-0.2,0-0.3-0.1-0.5-0.1s-0.3-0.1-0.5-0.1s-0.3-0.1-0.5-0.1
		s-0.4,0-0.5-0.1c-0.1,0-0.3,0-0.4,0s-0.2-0.1-0.4-0.1c-0.1,0-0.3-0.1-0.5-0.2c-0.6-0.3-1.2-0.5-1.8-0.6c-0.1-0.2-0.3-0.5-0.5-0.7
		c-0.1-0.1-0.2-0.1-0.4-0.2c-0.1-0.1-0.2-0.1-0.3-0.2c-0.1-0.1-0.2-0.2-0.3-0.4c-0.1-0.2-0.2-0.4-0.3-0.7s-0.2-0.5-0.3-0.7
		c-0.1-0.2-0.1-0.4-0.1-0.5c0-0.2,0-0.4,0.1-0.6s0.2-0.3,0.4-0.5c0,0,0.1,0,0.1-0.1l0.1-0.1c0,0,0-0.1-0.1-0.1s-0.1-0.1-0.1-0.1l0,0
		c0,0,0,0,0-0.1c0.1-0.2,0.2-0.4,0.3-0.5c0.2-0.2,0.3-0.3,0.5-0.5s0.4-0.3,0.6-0.4s0.4-0.3,0.6-0.4c0.1-0.1,0.3-0.2,0.4-0.3
		c0.1-0.1,0.2-0.2,0.3-0.3c0.1,0,0.2,0,0.2,0c0.1,0,0.2,0,0.2,0c0.1,0,0.2,0,0.2,0c0.1,0,0.2,0,0.2,0c0.1,0,0.2-0.1,0.2-0.1l0.1-0.1
		c0,0,0.1-0.1,0.2-0.1s0.2,0,0.4,0c0.1,0,0.2,0,0.4,0c0.1,0,0.2,0,0.4,0c0.4,0,0.8,0,1.3,0c0.4,0,0.8,0,1.3,0c0.3,0,0.6,0,0.9,0
		s0.6,0,0.9,0.1c0.2,0,0.4,0,0.6,0.1c0.2,0,0.4,0.1,0.6,0.1s0.3,0,0.4-0.1s0.1-0.1,0.2-0.2c0-0.1,0.1-0.1,0.2-0.2s0.2-0.1,0.3-0.1
		c0.2,0,0.5,0,0.7,0.1s0.5,0.2,0.7,0.2v0.1c0,0.1,0,0.2,0,0.3c0,0.1,0,0.3,0.1,0.4s0.1,0.3,0.2,0.4s0.1,0.3,0.2,0.4s0.1,0.3,0.1,0.4
		s0,0.2,0,0.3c0,0.1,0,0.2,0,0.3c0,0.2,0,0.3,0.1,0.4s0.1,0.1,0.1,0.2s0,0.1-0.1,0.2s-0.1,0.1-0.1,0.2c0,0.2,0,0.4,0,0.7
		c0,0.2,0,0.4,0,0.7c0,0.1,0,0.2,0,0.3c0,0.2,0,0.3-0.1,0.5c0,0.1-0.1,0.3-0.2,0.4s-0.2,0.2-0.4,0.2c-0.2,0-0.3,0-0.5-0.1
		s-0.3-0.2-0.4-0.3c-0.1-0.1-0.2-0.2-0.3-0.4c-0.1-0.1-0.1-0.3-0.2-0.4c0-0.2-0.1-0.3-0.1-0.5c-0.1-0.1-0.1-0.3-0.2-0.4
		c-0.2-0.2-0.3-0.4-0.5-0.6s-0.3-0.4-0.5-0.6c-0.1-0.2-0.2-0.3-0.3-0.3c-0.1-0.1-0.2-0.1-0.3-0.1c-0.1,0-0.2,0-0.3,0s-0.3,0-0.5,0
		s-0.4-0.1-0.6-0.1c-0.2-0.1-0.4-0.1-0.6-0.1s-0.4-0.1-0.6-0.1s-0.4-0.1-0.6-0.1c-0.3,0-0.6,0-1,0.1c-0.3,0.1-0.7,0.2-1,0.3
		c-0.3,0.1-0.7,0.2-1,0.4c-0.3,0.1-0.6,0.2-0.9,0.3c-0.3,0.4-0.4,0.9-0.4,1.4c0,0.4,0.1,0.7,0.2,0.9c0.1,0.2,0.3,0.4,0.5,0.6
		s0.4,0.3,0.7,0.4c0.2,0.1,0.5,0.3,0.8,0.4s0.6,0.2,0.9,0.3s0.6,0.1,0.9,0.1c0.2,0,0.4,0,0.6,0s0.4,0,0.6,0s0.4,0,0.6,0.1
		c0.2,0,0.4,0.1,0.6,0.1c0.2,0.1,0.4,0.1,0.6,0.1s0.4,0.1,0.6,0.1s0.4,0,0.5,0c0.2,0,0.3,0,0.5,0s0.3,0,0.4,0.1s0.2,0.1,0.4,0.2
		c0.1,0.1,0.2,0.1,0.4,0.2s0.3,0.1,0.4,0.1c0.2,0.1,0.4,0.2,0.5,0.2c0.1,0.1,0.3,0.1,0.4,0.2s0.2,0.2,0.3,0.3
		c0.1,0.1,0.2,0.2,0.4,0.4c0.1,0.2,0.3,0.3,0.5,0.4s0.4,0.3,0.5,0.4c0,0.1,0.1,0.1,0.1,0.2s0,0.2,0,0.2c0,0.1,0.1,0.1,0.1,0.2
		s0.1,0.1,0.2,0.1c0,0.1,0,0.2,0,0.3C286.7,159.9,286.7,160,286.7,160.1z"/>
	<path class="st4" d="M311.1,165.7c0,0.1-0.1,0.2-0.2,0.3c-0.2,0.1-0.4,0.2-0.6,0.2c-0.2,0.1-0.5,0.1-0.8,0.1s-0.6,0.1-0.9,0.1
		s-0.6,0-0.8,0c-0.2,0-0.4,0-0.5,0c-0.3,0-0.5,0-0.8,0.1c-0.2,0.1-0.5,0.1-0.7,0.2s-0.4,0.1-0.6,0.2s-0.4,0.1-0.5,0.1
		c-0.2,0-0.3,0-0.4-0.1s-0.2-0.1-0.4-0.1c-0.2,0-0.3,0-0.5-0.1s-0.3-0.1-0.4-0.2s-0.2-0.2-0.3-0.3c-0.1-0.1-0.1-0.3-0.1-0.4
		c0-0.2,0.1-0.3,0.2-0.4s0.2-0.2,0.4-0.3c0.2-0.1,0.3-0.1,0.5-0.2c0.2,0,0.4,0,0.6,0s0.3,0,0.4,0s0.3,0.1,0.4,0.2
		c0-0.1,0.1-0.2,0.1-0.3c0.1-0.1,0.2-0.2,0.2-0.3c0.1-0.1,0.2-0.2,0.2-0.3c0.1-0.1,0.1-0.2,0.1-0.3c0-0.2,0-0.4,0-0.7
		c0-0.2,0-0.4,0-0.7c0-0.1,0-0.3,0.1-0.4c0-0.1,0.1-0.3,0.1-0.4c0-0.2,0-0.3,0-0.5s0-0.4,0-0.5c0-0.2,0-0.3,0.1-0.4s0.1-0.2,0.1-0.3
		c0-0.2,0-0.4-0.1-0.5s-0.2-0.3-0.3-0.5c-0.1-0.1-0.3-0.3-0.5-0.4s-0.4-0.2-0.5-0.2c-0.6-0.1-1.1-0.1-1.7-0.1c-0.2,0-0.3,0-0.4,0.1
		s-0.2,0.1-0.3,0.1c-0.1,0-0.1,0-0.2-0.1c-0.1,0-0.1-0.1-0.2-0.1s-0.3,0-0.4,0.1s-0.3,0.1-0.5,0.1s-0.3,0.1-0.5,0.1
		s-0.3,0.1-0.4,0.1c-0.2,0-0.5,0-0.8,0s-0.5,0-0.8,0.1s-0.5,0.1-0.7,0.2s-0.4,0.2-0.6,0.3v0.1c0,0.2,0,0.3,0,0.5s0,0.3,0,0.5
		s0,0.4,0,0.5s-0.1,0.3-0.2,0.5c0,0.1-0.1,0.1-0.1,0.2s0,0.3,0.1,0.4s0.1,0.3,0.1,0.4s0,0.1-0.1,0.2s-0.1,0.1-0.1,0.2s0,0.2,0.1,0.3
		s0.1,0.2,0.2,0.3c0.1,0.1,0.1,0.2,0.2,0.3c0.1,0.1,0.1,0.2,0.1,0.3c0,0.2,0.1,0.4,0.3,0.6c0.2,0.1,0.4,0.2,0.7,0.3
		c0.3,0.1,0.5,0.1,0.8,0.2s0.5,0.1,0.7,0.3c0,0.1,0,0.1,0,0.2s0,0.3,0.1,0.4s0.1,0.3,0.1,0.4s-0.1,0.3-0.2,0.3
		c-0.1,0.1-0.3,0.1-0.5,0.2s-0.4,0.1-0.6,0.1s-0.4,0-0.5,0h-0.1c0,0-0.1,0-0.2-0.1c-0.1,0-0.1,0-0.2-0.1s-0.1,0-0.1,0
		c-0.6,0.1-1.3,0.2-1.9,0.2s-1.3,0-1.9,0c-0.2,0-0.4,0-0.6,0c-0.3,0-0.5-0.1-0.8-0.1s-0.5-0.2-0.7-0.3c-0.2-0.1-0.3-0.3-0.3-0.4
		s0-0.2,0-0.3c0-0.1,0.1-0.2,0.1-0.3c0.1-0.1,0.1-0.2,0.2-0.3c0.1-0.1,0.2-0.2,0.3-0.2c0.2-0.1,0.5-0.1,0.8-0.2
		c0.3,0,0.6-0.1,0.9-0.2s0.5-0.3,0.7-0.5s0.3-0.5,0.3-1c0-0.2,0-0.4,0-0.6s0-0.4,0-0.6c0-0.1,0-0.2,0-0.4c0-0.1,0-0.2,0-0.4
		c0-0.4,0-0.7-0.1-1.1c0-0.4-0.1-0.7-0.1-1.1c0-0.2,0-0.3,0-0.5s0-0.3,0-0.4c0-0.2,0-0.4-0.1-0.6s-0.1-0.4-0.1-0.6v-0.1
		c0,0,0.1-0.1,0.1-0.3c0-0.1,0.1-0.3,0.1-0.4c0-0.2,0.1-0.3,0.1-0.4s0-0.2,0-0.3c0-0.2,0-0.4-0.1-0.6c0-0.2-0.1-0.4-0.1-0.6
		c0-0.1,0-0.2,0-0.4c0-0.1,0-0.2,0-0.4c0-0.1,0-0.1,0-0.1s0,0-0.1,0h-0.1v-0.1c0-0.1,0-0.2,0.1-0.3c0.1-0.1,0.1-0.2,0.1-0.3
		c0-0.1,0-0.2-0.1-0.3c-0.1-0.1-0.2-0.3-0.3-0.4c-0.1-0.1-0.2-0.3-0.3-0.4c-0.1-0.1-0.2-0.2-0.3-0.2c-0.2-0.1-0.5-0.1-0.7-0.2
		c-0.3,0-0.5-0.1-0.8-0.2c-0.2-0.1-0.4-0.2-0.6-0.3c-0.2-0.1-0.2-0.3-0.2-0.6c0-0.2,0.1-0.4,0.2-0.6c0.2-0.1,0.4-0.3,0.6-0.4
		s0.5-0.2,0.8-0.2s0.5-0.1,0.8-0.1c0.2,0,0.4,0,0.6,0s0.4,0,0.6,0.1c0.2,0,0.4,0.1,0.6,0.1s0.4,0.1,0.5,0.2c0.3-0.1,0.5-0.1,0.8-0.2
		c0.3,0,0.6-0.1,0.8-0.1c0.2,0,0.3,0,0.5,0s0.4,0.1,0.5,0.2c0.2,0.1,0.3,0.2,0.4,0.3c0.1,0.1,0.2,0.3,0.2,0.5c0,0.1,0,0.2,0,0.2
		c0,0.1-0.1,0.1-0.2,0.1c-0.3,0-0.6,0.1-0.9,0.2s-0.6,0.2-0.8,0.4c-0.3,0.2-0.5,0.4-0.6,0.6c-0.2,0.2-0.2,0.4-0.2,0.7
		c0,0.1,0,0.2,0,0.3c0.1,0.3,0.2,0.5,0.2,0.8s0.1,0.5,0.1,0.8c0,0.2,0,0.5-0.1,0.7c0,0.2-0.1,0.4-0.1,0.7c0,0.3,0.1,0.5,0.3,0.7
		s0.4,0.3,0.7,0.4c0.3,0.1,0.6,0.2,0.9,0.2s0.7,0.1,1,0.1s0.6,0,1,0c0.3,0,0.6,0,1,0s0.7,0,1,0.1s0.6,0.1,1,0.1c0.1,0,0.2,0,0.4,0
		c0.1,0,0.2,0,0.3-0.1c0,0,0.1,0,0.2-0.1c0.1,0,0.1-0.1,0.2-0.1s0.2-0.1,0.2-0.1c0.1,0,0.1-0.1,0.2-0.1c0.2,0,0.3-0.1,0.4-0.3
		s0.2-0.3,0.2-0.5s0.1-0.4,0.1-0.6s0-0.3,0-0.5c0-0.1,0-0.3-0.1-0.4s-0.1-0.3-0.2-0.4s-0.1-0.2-0.2-0.4c-0.1-0.1-0.1-0.3-0.1-0.4
		c0-0.2,0-0.3,0.1-0.5c0-0.2,0.1-0.3,0.1-0.5c0-0.4-0.1-0.6-0.3-0.8c-0.2-0.2-0.4-0.3-0.6-0.4c-0.3-0.1-0.5-0.1-0.8-0.2
		s-0.6-0.1-0.8-0.1c-0.3-0.1-0.5-0.1-0.6-0.3c-0.2-0.1-0.3-0.3-0.3-0.6c0-0.2,0-0.3,0.1-0.4s0.2-0.2,0.4-0.2
		c0.2-0.1,0.3-0.1,0.5-0.1s0.4,0,0.5,0c0.4,0,0.7,0,1,0.1c0.3,0,0.7,0.1,1,0.1s0.7,0,1.1-0.1s0.8-0.1,1.2-0.1c0.2,0,0.5,0,0.8,0
		s0.6,0.1,0.9,0.1c0.3,0.1,0.5,0.2,0.7,0.3c0.2,0.1,0.3,0.3,0.3,0.6c0,0.2-0.1,0.3-0.2,0.4s-0.2,0.2-0.4,0.3s-0.4,0.1-0.6,0.2
		s-0.4,0.1-0.6,0.2s-0.4,0.1-0.5,0.2c-0.2,0.1-0.3,0.2-0.4,0.3c-0.1,0.1-0.1,0.2-0.1,0.3c0,0.1,0,0.2,0,0.4c0,0.2,0,0.4,0,0.6
		s0,0.4,0,0.6c0,0.8,0,1.5-0.1,2.3s-0.1,1.5-0.1,2.2c0,0.3,0,0.5,0,0.8s0,0.5,0.1,0.8c0,0.2,0.1,0.5,0.2,0.7s0.1,0.5,0.1,0.7
		c0,0.1,0,0.2,0,0.3s-0.1,0.1-0.1,0.2s-0.1,0.1-0.1,0.1v0.1c0,0.1,0,0.3,0.1,0.4s0.1,0.3,0.1,0.4c0,0.2,0,0.4-0.1,0.6
		c0,0.2-0.1,0.4-0.1,0.6c0,0,0,0.1,0.1,0.2c0,0.1,0.1,0.2,0.1,0.4c0,0.1,0.1,0.3,0.2,0.4s0.1,0.2,0.1,0.2c0.1,0.1,0.3,0.2,0.5,0.2
		c0.2,0.1,0.4,0.1,0.6,0.1s0.4,0.1,0.6,0.1s0.4,0.1,0.5,0.2s0.2,0.1,0.4,0.2C311.1,165.5,311.1,165.6,311.1,165.7z"/>
	<path class="st4" d="M329.9,149.7c0,0.1,0,0.2-0.1,0.3c-0.1,0.1-0.2,0.2-0.3,0.2c-0.1,0.1-0.2,0.1-0.4,0.2
		c-0.1,0.1-0.2,0.1-0.3,0.2c-0.2,0.1-0.4,0.2-0.7,0.2c-0.2,0-0.3,0-0.5-0.1c-0.2,0-0.3-0.1-0.5-0.1c-0.1,0-0.1,0-0.2,0
		c-0.1,0.1-0.3,0.1-0.4,0.1s-0.3,0-0.4,0s-0.2,0-0.4-0.1c-0.1-0.1-0.2-0.1-0.2-0.2l0.1-0.1c-0.1,0-0.2,0.1-0.2,0.1l-0.1,0.1
		c0,0.1,0,0.1,0,0.2s0,0.1-0.1,0.2s-0.1,0.1-0.3,0.2c-0.1,0-0.2,0.1-0.3,0.1s-0.2,0.2-0.3,0.3c-0.1,0.2-0.1,0.4-0.1,0.8
		c0,0.2,0,0.3,0,0.5s0,0.3,0,0.5c0,0.3,0,0.6-0.1,0.9s-0.1,0.6-0.1,0.9c0,0.2,0,0.4-0.1,0.5c-0.1,0.2-0.1,0.3-0.1,0.5
		c0,0.3,0.1,0.4,0.4,0.5c-0.1,0-0.1,0.1-0.2,0.2c0,0.1-0.1,0.2-0.1,0.4c0,0.1,0,0.3-0.1,0.4c0,0.1,0,0.2,0,0.3v0.1c0,0,0,0.1,0,0.2
		s0,0.1,0,0.2s0,0.1,0.1,0.1c0.1,0.1,0.1,0.2,0.1,0.3c0,0.1,0,0.2-0.1,0.3c0,0.1-0.1,0.2-0.1,0.3c0,0.4,0,0.8,0.1,1.2
		c0.1,0.4,0.1,0.8,0.1,1.2c0,0.3,0,0.5-0.1,0.8s-0.1,0.5-0.1,0.8c0,0.2,0.1,0.4,0.2,0.6c0.1,0.1,0.3,0.3,0.4,0.3
		c0.2,0.1,0.4,0.1,0.6,0.2c0.2,0,0.5,0,0.8,0c0.4,0,0.8,0,1.3-0.1c0.4-0.1,0.8-0.1,1.2-0.1s0.7,0.1,1,0.3c0.2,0.2,0.3,0.4,0.3,0.7
		c0,0.2,0,0.4-0.1,0.6s-0.2,0.4-0.4,0.5c-0.2,0.1-0.4,0.3-0.6,0.3s-0.5,0.1-0.8,0.1c-0.2,0-0.5,0-0.7-0.1c-0.4-0.1-0.9-0.1-1.3-0.1
		s-0.9,0-1.4,0c-0.4,0-0.8,0-1.2,0c-0.4,0-0.8,0-1.2,0c-0.5,0-0.9,0-1.4,0s-0.9,0-1.4,0c-0.2,0-0.3,0-0.5-0.1
		c-0.2,0-0.3-0.1-0.5-0.1c-0.1,0-0.2,0-0.4,0c-0.1,0-0.3,0.1-0.5,0.1s-0.3,0.1-0.5,0.1s-0.4,0-0.5,0c-0.4,0-0.8-0.1-1.1-0.2
		c-0.3-0.1-0.4-0.4-0.4-0.7c0-0.1,0-0.2,0-0.3c0-0.1,0.1-0.2,0.2-0.3c0.1-0.1,0.2-0.3,0.3-0.4s0.3-0.2,0.4-0.3
		c0.1-0.1,0.3-0.1,0.4-0.1s0.2,0,0.3,0.1c0.1,0,0.2,0.1,0.3,0.1c0.1,0,0.2,0.1,0.4,0.1c0.1,0,0.3,0.1,0.5,0.1c0.4,0,0.8,0,1.2-0.1
		c0.4-0.1,0.8-0.2,1.2-0.3c0.4-0.1,0.7-0.3,0.9-0.6c0.2-0.2,0.3-0.5,0.3-0.9c0-0.1,0-0.3,0-0.4s0-0.3-0.1-0.4
		c-0.1-0.4-0.1-0.9-0.1-1.3s0-0.9,0-1.3c0-0.3,0-0.6,0.1-0.9s0.1-0.6,0.1-0.9c0-0.2,0-0.3-0.1-0.5s-0.1-0.3-0.1-0.5
		c0-0.1,0-0.2,0-0.2c0-0.1,0-0.2,0-0.2c0-0.2,0-0.4-0.1-0.5c0-0.2-0.1-0.3-0.1-0.5c0-0.3,0-0.6,0.1-0.9s0.1-0.6,0.1-0.9
		c0-0.2,0-0.4-0.1-0.5c-0.1-0.2-0.1-0.4-0.2-0.5c-0.1-0.2-0.1-0.3-0.2-0.5s-0.1-0.4-0.1-0.5s0-0.2,0-0.3c-0.1-0.1-0.2-0.2-0.3-0.3
		c-0.1-0.1-0.3-0.1-0.4-0.2s-0.3-0.1-0.4-0.2s-0.2-0.1-0.3-0.3c-0.1,0-0.1,0-0.2,0.1c0,0.1,0,0.1,0,0.2s0,0.1-0.1,0.2
		c0,0.1-0.1,0.1-0.2,0.1c-0.3,0-0.6,0-0.9,0.1s-0.6,0-0.9,0c-0.2,0-0.4,0-0.7,0s-0.5-0.1-0.7-0.1c-0.2-0.1-0.4-0.1-0.6-0.3
		c-0.2-0.1-0.2-0.3-0.2-0.5c0-0.1,0-0.2,0.1-0.4c0.1-0.1,0.2-0.3,0.3-0.4c0.1-0.1,0.2-0.2,0.3-0.4c0.1-0.1,0.2-0.2,0.3-0.3
		c0.1-0.1,0.2-0.1,0.3-0.2c0.2,0,0.3-0.1,0.5-0.1s0.4,0,0.6,0s0.4,0,0.7,0c0.3,0,0.5,0,0.8,0c0.2,0,0.4,0,0.6,0c0.3,0,0.6,0,1,0
		s0.8,0,1.2-0.1c0.4,0,0.7-0.1,1-0.1s0.4-0.1,0.4-0.1c0.1,0,0.1,0.1,0.2,0.1c0.1,0.1,0.2,0.1,0.3,0.2c0.1,0.1,0.2,0.1,0.3,0.1
		c0.1,0,0.2,0.1,0.2,0.1c0.1,0,0.1,0,0.2-0.1l0.1-0.1c0-0.1,0-0.1,0.1-0.2c0-0.1,0-0.1,0-0.1h0.1c0.2,0,0.4,0.1,0.5,0.2
		s0.1,0.2,0.1,0.4v0.1v0.1c0.1,0,0.2-0.1,0.2-0.1c0-0.1,0.1-0.1,0.1-0.2s0.1-0.1,0.1-0.2s0.1-0.1,0.3-0.1c0,0,0.1,0,0.2,0h0.1
		c0.2,0.2,0.4,0.3,0.6,0.4s0.2,0.1,0.3,0.2c0.1,0,0.1,0.1,0.1,0.1l0,0h0.1c0.1,0,0.1,0,0.1,0s0-0.1-0.1-0.1c0,0-0.1-0.1-0.2-0.1
		s-0.1-0.1-0.2-0.1l-0.1-0.1c0.1,0,0.2,0,0.3,0c0.1,0,0.1-0.1,0.2-0.1s0.1-0.1,0.2-0.1s0.1-0.1,0.2-0.1s0.3,0,0.3,0.1
		c0.1,0,0.1,0.1,0.2,0.1s0.1,0.1,0.1,0.1s0.1,0.1,0.2,0.1s0.1,0,0.1,0h0.1c0.1,0,0.1,0,0.1,0.1s0,0.1,0,0.1c0,0.1,0.1,0.2,0.1,0.3
		c0,0.1,0,0.1,0.1,0.2s0.1,0.1,0.1,0.2s0.1,0.1,0.2,0.2C329.9,149.5,329.9,149.6,329.9,149.7z M321.6,150.5c0.1-0.1,0-0.1,0-0.2
		s-0.2-0.1-0.3-0.1c-0.1,0-0.2,0-0.3,0.1c0,0.1-0.1,0.2-0.1,0.3c0,0.1,0.1,0.1,0.1,0.1l0.1,0.1h0.1c0.1,0,0.2,0,0.2,0l0.1-0.1
		C321.6,150.6,321.6,150.6,321.6,150.5z"/>
	<path class="st4" d="M352.8,149.8c0,0.1,0,0.2-0.1,0.3c0,0.1-0.1,0.1-0.3,0.1c0,0-0.1,0-0.1-0.1l-0.1-0.1l-0.1-0.1l-0.1-0.1
		c0,0.2,0,0.3,0,0.4s0,0.1,0,0.2l-0.1,0.1h-0.1c-0.1,0-0.2,0-0.2,0c-0.1,0-0.2,0-0.2,0c-0.3,0-0.4,0.1-0.6,0.1s-0.2,0-0.3,0.1
		c-0.1,0-0.1,0.1-0.1,0.2s0,0.2-0.1,0.4c0,0.2,0,0.3,0,0.4s0,0.3,0,0.4c0,0.4,0,0.8,0.1,1.2c0,0.4,0.1,0.8,0.1,1.2
		c0,0.2,0,0.4-0.1,0.6c0,0.2-0.1,0.4-0.1,0.6s0,0.3,0.1,0.5s0.1,0.3,0.1,0.5c0,0,0,0.1-0.1,0.1s-0.1,0.1-0.1,0.1l-0.1,0.1
		c0,0.1-0.1,0.1-0.1,0.2c0,0.2,0,0.3,0.1,0.5s0.1,0.3,0.1,0.5c0,0.3,0,0.5-0.1,0.8c0,0.3-0.1,0.5-0.1,0.8c-0.1,0.3-0.1,0.5-0.1,0.8
		s-0.1,0.5-0.1,0.8c0,0.2,0,0.4,0.1,0.6c0,0.2,0.1,0.4,0.2,0.6c0,0,0,0.1,0.1,0.1c0,0.1,0,0.1,0,0.1c0,0.1,0,0.2-0.1,0.3
		s-0.1,0.1-0.1,0.2c0,0,0,0.1,0.1,0.2s0.1,0.1,0.1,0.2c0.1,0.2,0.1,0.4,0.2,0.6c0,0.2,0.1,0.4,0.1,0.7c0,0.2-0.1,0.4-0.2,0.5
		c-0.1,0.2-0.3,0.3-0.5,0.5s-0.4,0.2-0.7,0.3c-0.2,0.1-0.5,0.1-0.8,0.1s-0.6-0.1-0.9-0.2c-0.2-0.2-0.4-0.4-0.6-0.6s-0.3-0.5-0.5-0.7
		c-0.1-0.3-0.3-0.5-0.4-0.7s-0.2-0.3-0.3-0.4c-0.1-0.1-0.1-0.3-0.2-0.4s-0.1-0.3-0.2-0.4s-0.2-0.3-0.4-0.4c-0.1-0.1-0.3-0.2-0.3-0.4
		c-0.1-0.1-0.1-0.3-0.2-0.4s-0.1-0.3-0.1-0.5s-0.1-0.3-0.1-0.4c-0.1-0.3-0.3-0.7-0.4-1s-0.3-0.6-0.5-1c-0.1-0.1-0.1-0.2-0.2-0.3
		c-0.1-0.1-0.2-0.3-0.3-0.4c-0.1-0.1-0.2-0.2-0.2-0.4c-0.1-0.1-0.1-0.2-0.1-0.3c0-0.3-0.1-0.5-0.3-0.8s-0.3-0.4-0.5-0.6
		s-0.3-0.4-0.5-0.6s-0.3-0.4-0.3-0.7c0-0.1-0.1-0.2-0.1-0.3c-0.1-0.1-0.1-0.3-0.2-0.4s-0.2-0.3-0.3-0.4c-0.1-0.1-0.2-0.2-0.4-0.2
		c-0.1,0-0.2,0-0.3,0.1c-0.1,0.1-0.1,0.2-0.2,0.3c0,0.1-0.1,0.2-0.1,0.4c0,0.1,0,0.2,0,0.3c0,0.2,0,0.3,0,0.5s0,0.3,0,0.5
		c0,0.1,0,0.2-0.1,0.4c-0.1,0.1-0.1,0.2-0.1,0.4c0,0.1,0,0.1,0.1,0.2s0.1,0.1,0.1,0.2s0,0.1,0,0.2s0,0.1,0,0.2c0,0.2,0,0.4,0,0.6
		s0,0.4,0,0.6c0,0.1,0,0.3,0,0.4s-0.1,0.3-0.1,0.4c-0.1,0.1-0.2,0.2-0.3,0.3c-0.1,0.1-0.3,0.1-0.5,0.2c0,0.1,0.1,0.1,0.2,0.1
		s0.1,0,0.2,0s0.1,0,0.2,0s0.1,0.1,0.1,0.1v0.1v0.1c0,0.1,0,0.2,0.1,0.2c0,0.1,0.1,0.1,0.2,0.2s0.1,0.1,0.2,0.2
		c0,0.1,0.1,0.1,0.1,0.2s0,0.2,0,0.3s0,0.2,0,0.3c0,0.2,0,0.4,0.1,0.6s0.1,0.4,0.1,0.6c0,0.1,0,0.2,0,0.2l-0.1,0.1
		c0,0-0.1,0-0.1,0.1c0,0,0,0,0,0.1s0,0.2,0,0.2s0,0.1,0,0.2s0,0.1,0,0.2s-0.1,0.1-0.1,0.1c0,0.1,0.1,0.2,0.1,0.2
		c0.1,0,0.2,0.1,0.3,0.1c0.1,0,0.2,0.1,0.3,0.1s0.2,0.1,0.2,0.2s0.1,0.1,0.1,0.2s0.1,0.1,0.3,0.1c0.2,0,0.4,0,0.5-0.1
		s0.3-0.1,0.5-0.1c0.3,0,0.5,0.1,0.6,0.3c0.1,0.2,0.2,0.4,0.2,0.5c0,0.2-0.1,0.4-0.2,0.5s-0.2,0.2-0.3,0.2c-0.1,0-0.2,0.1-0.3,0.1
		c-0.1,0-0.2,0.1-0.2,0.2l0,0l0,0c-0.2-0.1-0.3-0.1-0.5-0.2c-0.2,0-0.4-0.1-0.5-0.1c-0.3,0-0.7,0-1,0.1s-0.7,0.1-1,0.1
		c-0.2,0-0.5,0-0.7-0.1c-0.2,0-0.5-0.1-0.7-0.1s-0.3,0-0.5,0c-0.1,0-0.3,0-0.5,0s-0.4,0-0.6-0.1c-0.3-0.1-0.5-0.1-0.7-0.2
		s-0.5-0.2-0.6-0.3c-0.2-0.1-0.3-0.2-0.3-0.3c0-0.3,0.1-0.5,0.3-0.7c0.2-0.2,0.5-0.3,0.8-0.4c0.2,0,0.4,0,0.6,0s0.4,0,0.6,0
		s0.4,0,0.6-0.1s0.3-0.1,0.4-0.2c0-0.1-0.1-0.3-0.1-0.4c0-0.3,0.1-0.6,0.1-0.9c0.1-0.3,0.1-0.6,0.1-0.9c0-0.1,0-0.2,0-0.4
		c-0.1-0.6-0.2-1.2-0.2-1.8c0-0.2,0-0.3,0-0.5s0-0.3,0-0.5c0-0.4,0-0.9-0.1-1.3s-0.1-0.9-0.2-1.3c0-0.5,0-0.9,0-1.4
		s-0.1-0.9-0.2-1.4c0-0.1-0.1-0.2-0.1-0.3c0-0.1,0-0.2,0-0.3v-0.5c0-0.4,0-0.6-0.1-0.8c0-0.2-0.1-0.3-0.2-0.4s-0.3-0.1-0.4-0.2
		s-0.4,0-0.6-0.1c-0.1,0-0.3-0.1-0.4-0.2s-0.3-0.2-0.4-0.3c-0.1-0.1-0.2-0.3-0.3-0.4c-0.1-0.1-0.1-0.3-0.1-0.4v-0.3
		c0-0.3,0.1-0.6,0.2-0.8c0.1-0.2,0.3-0.3,0.5-0.4s0.5-0.1,0.8-0.2s0.7,0,1,0s0.7,0,1.1,0s0.8,0.1,1.1,0.1s0.7,0.2,1,0.3
		c0.3,0.1,0.5,0.3,0.7,0.6c0.1,0.2,0.2,0.3,0.3,0.5c0.1,0.2,0.2,0.3,0.2,0.5c0.1,0.2,0.2,0.4,0.2,0.5c0.1,0.2,0.2,0.3,0.3,0.5
		c0.1,0.1,0.1,0.2,0.1,0.2c0,0.1,0.1,0.2,0.1,0.3c0,0.1,0.1,0.2,0.1,0.3s0.1,0.2,0.1,0.2c0.1,0.1,0.2,0.1,0.3,0.2
		c0.1,0.1,0.2,0.1,0.2,0.2c0.1,0.2,0.2,0.3,0.2,0.5s0.1,0.4,0.1,0.5s0.1,0.4,0.1,0.5c0,0.2,0.1,0.4,0.2,0.5s0.1,0.2,0.2,0.3
		c0.1,0.1,0.1,0.1,0.2,0.2c0,0.1,0.1,0.1,0.1,0.2s0.1,0.2,0.1,0.3c0,0.2,0,0.4,0.1,0.6c0,0.2,0.1,0.4,0.2,0.5s0.2,0.2,0.3,0.4
		c0.1,0.1,0.2,0.2,0.3,0.3s0.2,0.2,0.3,0.3c0.1,0.1,0.2,0.2,0.2,0.4c0.1,0.3,0.2,0.5,0.3,0.7c0.1,0.2,0.3,0.4,0.6,0.6
		c-0.1,0.1-0.1,0.2-0.2,0.2c0,0.1-0.1,0.2-0.1,0.3c0,0.2,0.1,0.4,0.2,0.5c0.1,0.2,0.2,0.3,0.3,0.5c0.1,0.1,0.1,0.2,0.2,0.3
		c0.1,0.1,0.2,0.2,0.4,0.2c0.2,0.1,0.3,0.1,0.3,0.2c0.1,0,0.1,0.1,0.1,0.2s0,0.1,0,0.2s0,0.2,0,0.3c0,0.1,0,0.1,0.1,0.2
		s0.1,0.1,0.1,0.2c0.1,0.1,0.1,0.1,0.2,0.2s0.1,0.1,0.2,0.1s0.1,0,0.2-0.1s0.1-0.1,0.1-0.1s0-0.1,0-0.2s0-0.1,0-0.1
		c0-0.1,0-0.2,0.1-0.3c0.1-0.1,0.1-0.2,0.1-0.3c0-0.1,0-0.3-0.1-0.4s-0.1-0.2-0.1-0.4c0-0.1,0-0.2,0.1-0.3c0.1-0.1,0.1-0.2,0.1-0.3
		c0-0.1,0-0.2-0.1-0.2c-0.1-0.1-0.1-0.1-0.1-0.2l0,0h0.1h0.1l0.1-0.1c0-0.2,0-0.4-0.1-0.6s-0.1-0.4-0.2-0.6s-0.1-0.4-0.2-0.6
		s-0.1-0.4-0.1-0.6s0.1-0.4,0.2-0.5c0.1-0.2,0.2-0.3,0.2-0.3c0-0.1,0-0.2-0.1-0.3c-0.1-0.1-0.1-0.2-0.1-0.3c0-0.1,0-0.2,0.1-0.4
		c0.1-0.1,0.1-0.2,0.1-0.4c0-0.1,0-0.1-0.1-0.2c0-0.1-0.1-0.1-0.2-0.2s-0.1-0.2-0.2-0.2c0-0.1-0.1-0.2-0.1-0.2
		c0-0.1-0.1-0.3-0.1-0.4s0-0.3,0-0.4v-0.5c0-0.2,0-0.4,0-0.7c0-0.2-0.1-0.4-0.2-0.7c-0.1-0.2-0.1-0.4-0.1-0.6s0-0.3-0.1-0.4
		s-0.2-0.2-0.3-0.3c-0.2-0.1-0.4-0.1-0.8-0.1c-0.3,0-0.5,0-0.8,0s-0.5,0-0.8-0.1c-0.2,0-0.3-0.1-0.4-0.2s-0.1-0.2-0.2-0.4
		c0-0.1,0-0.3,0-0.4s0-0.3,0-0.3c0-0.2,0.1-0.3,0.3-0.4c0.2-0.1,0.4-0.2,0.7-0.3c0.3-0.1,0.6-0.1,0.9-0.1s0.5,0,0.7,0
		c0.1,0,0.3,0,0.5,0c0.3,0,0.5,0,0.8,0.1c0.3,0,0.6,0.1,1,0.1c0.3,0,0.6,0.1,0.9,0.2s0.5,0.1,0.7,0.2s0.3,0.2,0.3,0.3
		c0.1-0.1,0.2-0.2,0.3-0.2c0.1-0.1,0.3-0.1,0.4-0.1s0.3,0,0.4,0.1s0.2,0.1,0.3,0.2c0.1,0.1,0.2,0.2,0.2,0.3
		C352.8,149.6,352.8,149.7,352.8,149.8z M337.1,165.6c0-0.1,0-0.1-0.1-0.2c-0.1,0-0.1-0.1-0.2-0.1s-0.2,0-0.2-0.1s-0.1-0.1-0.2-0.1
		c0,0,0,0,0,0.1c0,0,0,0,0,0.1s0,0.1,0.1,0.2c0.1,0,0.1,0.1,0.2,0.1s0.2,0,0.2,0.1c0.1,0,0.1,0.1,0.2,0.1
		C337.1,165.7,337.1,165.7,337.1,165.6L337.1,165.6z"/>
	<path class="st4" d="M375.8,153.8c0,0,0,0.1-0.1,0.2s-0.1,0.2-0.2,0.3c-0.1,0.1-0.1,0.2-0.2,0.3c-0.1,0.1-0.1,0.2-0.2,0.2l0,0
		c0,0,0,0-0.1,0h-0.1h-0.1c0,0-0.1,0-0.2,0h0.1c-0.3,0-0.5,0-0.7-0.1s-0.4-0.2-0.5-0.4c0,0-0.1-0.1-0.1-0.2s-0.1-0.2-0.1-0.3
		c0-0.1-0.1-0.2-0.1-0.3c0-0.1,0-0.2,0-0.2c0-0.1,0-0.1,0-0.2s0-0.1,0-0.2c0-0.3,0-0.5-0.1-0.8s-0.1-0.5-0.1-0.8
		c0-0.2,0-0.3,0.1-0.5s0.2-0.3,0.3-0.4h-0.1c-0.1,0-0.2,0-0.3-0.1s-0.2-0.1-0.4-0.1c-0.4,0-0.8,0-1.2,0.1s-0.8,0.1-1.3,0.1
		c-0.2,0-0.4,0-0.5,0c-0.2,0-0.4,0-0.5,0c-0.3,0-0.7,0-1,0.1s-0.7,0.1-1,0.1l0,0c0,0,0,0,0.1-0.1c0.1,0,0.1-0.1,0.1-0.1
		s0-0.1-0.1-0.1s-0.1,0-0.1,0c-0.1,0-0.2,0-0.2,0.1c-0.1,0.1-0.2,0.1-0.3,0.1c-0.2,0-0.3,0.1-0.5,0.1s-0.4,0-0.5,0s-0.3,0-0.5,0
		s-0.4,0-0.6-0.1s-0.4-0.1-0.6-0.1c-0.2-0.1-0.3-0.2-0.3-0.3c-0.1,0-0.2,0.1-0.2,0.1s-0.1,0.1-0.1,0.2s-0.1,0.1-0.1,0.2
		c-0.1,0.1-0.2,0.1-0.3,0.1c-0.3,0-0.5,0.1-0.6,0.2s-0.1,0.3-0.1,0.5c0,0.1,0,0.2,0,0.3c0,0.1,0,0.2,0,0.3c0,0.3,0,0.7,0,1
		s0,0.7,0,1c0,0.1,0,0.3,0,0.6c0,0.2,0,0.5,0.1,0.7c0,0.2,0.1,0.4,0.2,0.6s0.2,0.3,0.3,0.3s0.2,0,0.3,0s0.2,0,0.3,0
		c0.4,0,0.8,0,1.1-0.1c0.4-0.1,0.8-0.1,1.1-0.1c0.2,0,0.3,0,0.4,0.1s0.3,0.1,0.4,0.1c0.2,0,0.4-0.1,0.5-0.2s0.2-0.3,0.2-0.5
		s0.1-0.4,0.1-0.6s0-0.4,0-0.5c0-0.2,0-0.4,0-0.6s0-0.4,0-0.6h0.1c0.3,0,0.5,0,0.8,0.1c0.2,0.1,0.5,0.1,0.8,0.1c0.1,0,0.2,0,0.2,0
		c0,0.2,0,0.3,0.1,0.5s0.1,0.3,0.1,0.5s-0.2,0.4-0.5,0.4c0.1,0.1,0.2,0.2,0.2,0.4c0.1,0.1,0.1,0.2,0.1,0.4c0,0.1,0,0.2,0,0.3
		c0,0.1,0,0.2,0,0.3c0,0.1,0,0.1,0.1,0.2c0.1,0,0.1,0.1,0.1,0.2s-0.1,0.2-0.2,0.4c-0.1,0.2-0.2,0.3-0.2,0.5s0,0.4,0.1,0.6
		s0.1,0.4,0.1,0.6s0.1,0.4,0.1,0.7c0,0.2,0.1,0.4,0.1,0.7c0,0.1,0,0.3,0,0.4s-0.1,0.3-0.1,0.4c-0.1,0.1-0.1,0.3-0.2,0.4
		c-0.1,0.1-0.2,0.2-0.4,0.3c-0.2,0-0.4-0.1-0.5-0.1c-0.1-0.1-0.3-0.2-0.4-0.3c-0.1-0.1-0.2-0.2-0.2-0.4c0-0.1-0.1-0.3-0.1-0.4
		c0-0.2-0.1-0.4-0.1-0.6s-0.1-0.3-0.2-0.5c-0.1-0.1-0.3-0.2-0.6-0.3c-0.3-0.1-0.8-0.1-1.4-0.1c-0.2,0-0.4,0-0.8,0
		c-0.3,0-0.7,0.1-1,0.1c-0.3,0.1-0.6,0.2-0.8,0.3c-0.2,0.1-0.4,0.3-0.4,0.4s0,0.2,0,0.3c0,0.1,0,0.2,0,0.3c0,0.1,0,0.2,0,0.3
		s0,0.2,0,0.3c0,0.2,0,0.5,0,0.7s0,0.4,0,0.7c0,0.2,0,0.5-0.1,0.7s-0.1,0.5-0.1,0.7c0,0.3,0.1,0.5,0.3,0.6c0.2,0.2,0.4,0.3,0.7,0.4
		s0.6,0.1,0.9,0.2c0.3,0,0.6,0,0.9,0c0.5,0,1.1,0,1.6-0.1s1.1-0.1,1.6-0.1c0.3,0,0.7,0,1,0s0.7,0,1,0s0.5,0,0.8,0s0.6-0.1,0.9-0.1
		c0.3-0.1,0.5-0.2,0.7-0.3s0.3-0.3,0.4-0.6c0-0.1,0-0.1,0.1-0.1c0,0,0.1-0.1,0.2-0.1c0.1,0,0.1,0,0.2-0.1s0.1-0.1,0.1-0.1
		c0-0.1,0-0.1-0.1-0.2s-0.1-0.2-0.1-0.2c0-0.2-0.1-0.3-0.1-0.5s0-0.3,0-0.5c0-0.3,0.1-0.5,0.2-0.7c0.1-0.2,0.2-0.4,0.2-0.6
		c0-0.1,0-0.1,0-0.2s0-0.1,0-0.2s0-0.1,0.1-0.2s0.2-0.1,0.3-0.1s0.3-0.1,0.4-0.1s0.2,0,0.3,0c0.3,0,0.5,0.1,0.7,0.2s0.3,0.3,0.4,0.5
		c0.1,0.2,0.2,0.4,0.2,0.7c0,0.2,0,0.4,0,0.6c0,0.3,0,0.6-0.1,0.9s-0.1,0.7-0.2,1c-0.1,0.3-0.2,0.7-0.3,1s-0.2,0.6-0.4,0.9
		c-0.1,0.1-0.1,0.2-0.2,0.3c-0.1,0.1-0.1,0.1-0.2,0.1s-0.1,0.1-0.2,0.1s-0.2,0.1-0.3,0.2s-0.3,0.1-0.5,0.2s-0.5,0-0.8,0
		c-0.2,0-0.4,0-0.6,0c-0.2,0-0.3,0-0.4,0c-0.4,0-0.7,0-0.9,0.1s-0.4,0.1-0.6,0.1c-0.1,0-0.2,0-0.3-0.1c0,0-0.1-0.1-0.2-0.1
		c-0.1,0-0.2,0-0.2,0.1c-0.1,0.1-0.2,0.1-0.3,0.1s-0.3,0-0.4,0c-0.1,0-0.3,0-0.4,0c-0.8,0-1.7,0-2.5,0.1c-0.8,0-1.6,0.1-2.5,0.1
		c-0.6,0-1.1,0.1-1.7,0.2s-1.1,0.1-1.7,0.1c-0.2,0-0.4,0-0.7,0s-0.5-0.1-0.7-0.2s-0.4-0.2-0.6-0.3s-0.2-0.3-0.2-0.5s0.1-0.4,0.3-0.5
		c0.2-0.2,0.4-0.3,0.6-0.5s0.5-0.3,0.8-0.4s0.5-0.2,0.6-0.3c0-0.1,0-0.1,0-0.2s0-0.1,0-0.2s0-0.3,0-0.4s0-0.3,0.1-0.4
		c0-0.1,0.1-0.2,0.2-0.3c0.1-0.1,0.1-0.2,0.1-0.3c0-0.1,0-0.1,0-0.2s-0.1-0.1-0.1-0.2c-0.1-0.2-0.2-0.4-0.3-0.6
		c0-0.2-0.1-0.4-0.1-0.6s0-0.3,0-0.4s0-0.2,0-0.3c0-0.1,0-0.2,0.1-0.3c0-0.1,0.1-0.2,0.2-0.4c0-0.1-0.1-0.1-0.1-0.3
		c-0.1-0.1-0.1-0.2-0.1-0.3l0.2-1.8v-0.1c0-0.1,0-0.2,0-0.2c0-0.1,0-0.2,0-0.2c0-0.2,0-0.4-0.1-0.6s-0.1-0.4-0.1-0.6
		c0-0.1,0-0.1,0.1-0.2c0-0.1,0.1-0.2,0.1-0.3c0-0.1,0.1-0.2,0.1-0.4s0.1-0.3,0.1-0.4s0-0.2-0.1-0.3c-0.1-0.1-0.1-0.2-0.1-0.3
		c0-0.1,0-0.2,0.1-0.3c0.1-0.1,0.1-0.2,0.1-0.3c0-0.2,0-0.3-0.1-0.5s-0.2-0.3-0.3-0.4c-0.1-0.2-0.2-0.4-0.3-0.5s-0.2-0.2-0.3-0.3
		c-0.1-0.1-0.2-0.1-0.4-0.2s-0.4-0.1-0.7-0.1c-0.2,0-0.3,0-0.4-0.1s-0.3-0.1-0.4-0.2s-0.2-0.2-0.3-0.3s-0.1-0.2-0.1-0.3
		c0-0.2,0.1-0.3,0.3-0.4c0.2-0.1,0.4-0.2,0.7-0.3s0.6-0.1,0.9-0.2c0.3,0,0.7-0.1,1-0.1s0.6,0,0.9,0c0.3,0,0.5,0,0.6,0
		c0.2,0,0.4,0,0.6-0.1c0.2,0,0.4,0,0.6,0c0.4,0,0.9,0,1.3,0c0.4,0,0.9,0,1.3,0c0.5,0,0.9,0,1.4-0.1c0.4-0.1,0.9-0.1,1.4-0.1
		c0.4,0,0.8,0,1.2,0.1s0.8,0.1,1.2,0.1s0.8,0,1.1-0.1c0.4-0.1,0.8-0.1,1.1-0.1c0.2,0,0.3,0,0.5,0c0.2,0.2,0.5,0.4,0.7,0.5
		s0.4,0.3,0.5,0.4c0.2,0.1,0.3,0.3,0.4,0.5c0.1,0.2,0.2,0.4,0.2,0.7c0,0.1,0,0.2,0,0.4c0,0.2,0,0.3,0,0.5c0,0.1,0,0.3,0.1,0.4
		s0.1,0.2,0.2,0.2c0,0.1-0.1,0.2-0.2,0.2c0,0.1,0,0.2,0.1,0.4s0.1,0.2,0.2,0.4c0.1,0.1,0.1,0.2,0.2,0.4
		C375.7,153.6,375.8,153.7,375.8,153.8z M361.4,156.9c-0.1,0-0.1,0-0.2,0c-0.1,0-0.1,0.1-0.1,0.1c0.4,0.2,0.8,0.4,1,0.5
		c0.2,0.2,0.4,0.3,0.6,0.4c0.1,0.1,0.2,0.2,0.3,0.2s0.1,0,0.2-0.2c0.1-0.2,0.1-0.3,0-0.4s-0.3-0.2-0.5-0.3c-0.2-0.1-0.4-0.2-0.7-0.2
		S361.5,156.9,361.4,156.9z"/>
	<path class="st4" d="M411.3,153.3c0,0.4-0.1,0.6-0.4,0.8s-0.6,0.3-1.1,0.3c-0.2,0-0.3,0-0.4,0c-0.1,0-0.3,0-0.4-0.1
		c-0.2-0.2-0.3-0.4-0.4-0.7s-0.2-0.6-0.2-0.8c-0.1-0.3-0.1-0.6-0.2-0.9c-0.1-0.3-0.2-0.5-0.4-0.8c-0.2-0.2-0.4-0.4-0.7-0.5
		s-0.7-0.2-1.1-0.2c-0.3,0-0.6,0-0.9,0.1s-0.6,0.1-0.9,0.1c-0.2,0-0.3,0-0.5,0s-0.4,0-0.6,0s-0.4,0-0.6-0.1c-0.2,0-0.4-0.1-0.5-0.2
		c0,0-0.1,0-0.2,0c-0.1,0-0.2,0-0.2,0c-0.1,0-0.2,0-0.2,0s-0.1,0-0.2,0c-0.3,0-0.6,0-0.8,0s-0.4,0.1-0.5,0.1s-0.3,0.1-0.5,0.1
		c-0.2,0.1-0.4,0.1-0.7,0.2c-0.2,0-0.4,0.1-0.5,0.2s-0.2,0.1-0.2,0.2s0,0.2,0,0.3c0,0.1,0,0.2,0,0.4c0,0.1,0,0.2,0,0.3
		c0,0.1,0,0.2,0,0.3c0,0.3,0,0.6,0,0.9s0,0.6,0,0.9c0,0.2,0,0.4-0.1,0.6c0,0.2-0.1,0.4-0.1,0.6s0,0.3,0.1,0.4s0.2,0.1,0.3,0.2
		c0.1,0,0.2,0.1,0.3,0.1s0.2,0.1,0.2,0.3c0.1,0,0.2,0,0.2,0c0.1,0,0.1,0,0.2,0c0.4,0,0.7,0,1.1-0.1c0.4-0.1,0.7-0.2,1.1-0.2
		c0.2,0,0.4-0.2,0.5-0.4c0.1-0.2,0.2-0.4,0.2-0.7c0-0.3,0-0.5,0-0.8s0-0.4,0-0.6c0-0.1,0.1-0.2,0.2-0.3c0.1-0.1,0.2-0.2,0.3-0.3
		c0.1-0.1,0.3-0.1,0.4-0.2c0.1,0,0.3-0.1,0.4-0.1c0.2,0,0.3,0,0.4,0.1c0.2,0.1,0.4,0.2,0.5,0.3c0.1,0.1,0.2,0.3,0.2,0.5s0,0.3,0,0.5
		s0,0.4,0,0.5c0,0.2,0.1,0.5,0.1,0.7c0,0.4,0,0.8-0.1,1.2c0,0.4-0.1,0.8-0.1,1.2c0,0.2,0,0.4,0,0.6s0.1,0.4,0.2,0.6
		c0.1,0.2,0.1,0.3,0.1,0.4s0,0.3-0.1,0.4s-0.1,0.3-0.1,0.4s0,0.2,0,0.2v0.2c0,0.1,0,0.3-0.1,0.4s-0.2,0.3-0.3,0.4s-0.3,0.2-0.4,0.3
		c-0.2,0.1-0.3,0.1-0.5,0.1s-0.4-0.1-0.6-0.2c-0.2-0.1-0.3-0.3-0.5-0.4c-0.1-0.2-0.2-0.3-0.3-0.4s-0.1-0.2-0.1-0.2s0-0.1,0.1-0.1
		s0.1,0,0.2-0.1c0.1,0,0.1,0,0.2-0.1l0.1-0.1c0,0,0-0.1-0.1-0.1s-0.1,0-0.2-0.1c-0.1,0-0.1-0.1-0.2-0.1s-0.1-0.1-0.1-0.2
		s0-0.1,0-0.1s0-0.1,0.1-0.1s0.1,0,0.1-0.1s0,0,0-0.1s0-0.2-0.1-0.3c-0.1-0.1-0.2-0.2-0.3-0.3c-0.1-0.1-0.2-0.2-0.4-0.3
		c-0.1-0.1-0.3-0.1-0.4-0.1c-0.2,0-0.3,0-0.5,0.1s-0.3,0.1-0.5,0.1c-0.1,0-0.3,0-0.4-0.1c-0.1,0-0.3-0.1-0.4-0.1
		c-0.1,0-0.2,0-0.4,0.1s-0.3,0.2-0.4,0.3s-0.2,0.2-0.4,0.3c-0.1,0.1-0.2,0.2-0.3,0.2c-0.1,0.1-0.1,0.2-0.1,0.3c0,0.1,0,0.2,0,0.3
		c0,0.3,0,0.6,0.1,0.9c0,0.3,0.1,0.6,0.1,0.9c0,0.1,0,0.3,0,0.4s0,0.3,0,0.4s0,0.2,0,0.4c0,0.2,0,0.3,0.1,0.5s0.1,0.3,0.2,0.4
		c0.1,0.1,0.2,0.2,0.4,0.2c0.2,0.1,0.5,0.1,0.8,0.1h0.3c0.3,0,0.6,0,0.8,0.1c0.3,0,0.4,0.2,0.6,0.3c0.1,0.1,0.2,0.3,0.2,0.5
		s0.1,0.3,0.1,0.5c0,0.1,0,0.2,0,0.3c0,0.1-0.1,0.2-0.1,0.3c-0.1,0.1-0.2,0.2-0.3,0.3s-0.3,0.1-0.4,0.1c-0.3,0-0.7,0-1-0.1
		c-0.4-0.1-0.7-0.1-1.1-0.1c-0.3,0-0.5,0-0.8,0.1c-0.4,0.1-0.9,0.2-1.3,0.2c-0.4,0-0.9,0-1.3,0c-0.2,0-0.5,0-0.7,0
		c-0.3,0-0.6,0-0.8-0.1c-0.3,0-0.5-0.1-0.7-0.2s-0.3-0.2-0.3-0.4c0-0.2,0-0.4,0-0.6s0.1-0.4,0.2-0.6s0.3-0.3,0.4-0.4
		c0.2-0.1,0.4-0.2,0.7-0.2c0.1,0,0.2,0,0.3,0s0.2,0,0.3,0c0.2,0,0.4,0,0.5-0.1s0.2-0.1,0.2-0.2c0.1-0.1,0.1-0.1,0.2-0.2
		s0.2-0.1,0.3-0.1c0-0.3-0.1-0.5-0.1-0.8s-0.1-0.5-0.1-0.8c0-0.2,0-0.5,0.1-0.7s0.2-0.4,0.3-0.6c-0.1-0.1-0.2-0.3-0.2-0.5
		s-0.1-0.5-0.1-0.7s0-0.4,0-0.6s0-0.3,0-0.2c0-0.1,0-0.3,0.1-0.4s0.1-0.3,0.1-0.4s0-0.1,0-0.2s0-0.1,0-0.2s0-0.2,0-0.2
		s0-0.1,0.1-0.1s0.1,0,0.1-0.1v-0.1c0-0.2,0-0.4-0.1-0.6s-0.1-0.4-0.1-0.6s0-0.4,0.1-0.6c0-0.2,0.1-0.4,0.1-0.6c0-0.4,0-0.8-0.1-1.1
		c0-0.4-0.1-0.8-0.1-1.1c0-0.2,0-0.4-0.1-0.7s-0.1-0.5-0.2-0.7c-0.1-0.2-0.3-0.4-0.5-0.5s-0.5-0.2-0.8-0.2c-0.2,0-0.3,0-0.5,0
		s-0.3,0-0.5,0c-0.1,0-0.3,0-0.4,0s-0.3-0.1-0.4-0.1c0-0.2-0.1-0.3-0.1-0.5c-0.1-0.2-0.1-0.3-0.1-0.5c0-0.1,0.1-0.2,0.2-0.3
		c0.1-0.1,0.3-0.1,0.5-0.2c0.2,0,0.4-0.1,0.7-0.1c0.2,0,0.5,0,0.8,0s0.6,0,0.9,0c0.3,0,0.5,0,0.6,0c0.2,0,0.3,0,0.6,0
		c0.2,0,0.5,0,0.7-0.1c0.2,0,0.4-0.1,0.6-0.1c0.2-0.1,0.3-0.2,0.4-0.3c0.1,0,0.2,0,0.3,0.1c0.1,0,0.2,0.1,0.3,0.1s0.2,0.1,0.3,0.1
		s0.2,0.1,0.3,0.1c0.2,0,0.3,0,0.4-0.1c0.1-0.1,0.3-0.1,0.4-0.1c0.1,0,0.3,0,0.4,0.1c0.1,0,0.2,0.1,0.4,0.1c0.3,0,0.6,0,0.9-0.1
		c0.3-0.1,0.6-0.1,0.9-0.2c0.3-0.1,0.6-0.1,0.9-0.2c0.3-0.1,0.6-0.1,0.9-0.1c0.2,0,0.4,0,0.6,0.1s0.4,0.1,0.5,0.2
		c0.5-0.1,1-0.2,1.5-0.2c0.1,0,0.2,0,0.4,0s0.5,0,0.7,0.1c0.2,0,0.5,0,0.7,0.1c0.2,0,0.3,0.1,0.3,0.1c0.1,0,0.1,0.1,0.1,0.2
		s0.1,0.2,0.1,0.3c0,0.1,0.1,0.2,0.1,0.3c0,0.1,0.1,0.2,0.1,0.2s0.1,0.1,0.2,0.1c0.1,0,0.1,0,0.2,0c0.1,0,0.1,0,0.2,0.1l0.1,0.1
		c0,0.2,0,0.4,0,0.6s0.1,0.4,0.1,0.6c0.1,0.2,0.1,0.4,0.2,0.6c0.1,0.2,0.2,0.4,0.3,0.6s0.2,0.4,0.2,0.6
		C411.3,152.9,411.3,153.1,411.3,153.3z M393.8,165.5c0-0.1,0-0.3-0.1-0.4s-0.2-0.2-0.4-0.2v0.1v0.1c0,0.1,0,0.3,0.1,0.4
		s0.2,0.2,0.4,0.2C393.8,165.7,393.8,165.7,393.8,165.5C393.8,165.6,393.8,165.6,393.8,165.5z"/>
	<path class="st4" d="M433,157.9c0,0.2,0,0.3-0.1,0.5s-0.1,0.3-0.1,0.5s-0.1,0.3-0.1,0.5s-0.1,0.3-0.1,0.5c0,0.1,0,0.1,0,0.2
		s0,0.1,0,0.2c0,0.2,0,0.3-0.1,0.5s-0.2,0.3-0.3,0.4s-0.1,0.3-0.2,0.4s0,0.3,0,0.4s0,0.3-0.1,0.4c0,0.1-0.1,0.3-0.2,0.4
		c0,0.1-0.1,0.2-0.1,0.4c0,0.2-0.1,0.3-0.1,0.3s0,0-0.1,0s-0.1,0-0.2,0c-0.1,0-0.1,0-0.2,0.1c-0.1,0-0.1,0.1-0.2,0.1
		c-0.1,0-0.1,0.1-0.1,0.2s-0.1,0.2-0.1,0.2c0,0.1-0.1,0.1-0.2,0.2c-0.1,0.1-0.1,0.1-0.2,0.1s-0.2,0-0.3,0s-0.2-0.1-0.2-0.1
		c-0.1,0-0.2-0.1-0.2-0.1c-0.1,0-0.2,0-0.3,0v0.1c0,0.1,0,0.1,0,0.2s0.1,0.1,0.1,0.2c0.1,0.1,0.2,0.1,0.4,0.1c0.1,0,0.2,0,0.3,0
		s0.2,0,0.3,0c-0.1,0.2-0.2,0.3-0.3,0.4s-0.3,0.2-0.4,0.3s-0.3,0.2-0.5,0.2s-0.3,0.2-0.5,0.3c-0.2,0.1-0.4,0.2-0.5,0.3
		c-0.2,0-0.4,0.1-0.6,0.1c-0.3,0.1-0.5,0.1-0.6,0.2s-0.2,0.2-0.4,0.2s-0.3,0.1-0.5,0.2s-0.6,0.1-1.1,0.1c-0.4,0-0.9,0-1.3,0
		s-0.9-0.1-1.3-0.1c-0.2,0-0.4,0-0.5-0.1c-0.1,0-0.2-0.1-0.4-0.1c-0.1,0-0.2-0.1-0.3-0.1c-0.1-0.1-0.2-0.1-0.4-0.2
		c-0.1,0-0.2-0.1-0.3-0.1s-0.2-0.1-0.4-0.1c-0.1,0-0.3-0.1-0.4-0.1s-0.2-0.1-0.3-0.1c-0.1-0.1-0.1-0.1-0.2-0.2s-0.1-0.1-0.1-0.2
		s0-0.1-0.1-0.2s-0.1-0.1-0.2-0.2c-0.2,0-0.3,0-0.5-0.1s-0.3-0.1-0.5-0.1c0-0.1-0.1-0.2-0.1-0.3c0-0.1-0.1-0.2-0.1-0.3
		c-0.1-0.1-0.3-0.2-0.4-0.3s-0.2-0.2-0.3-0.2s-0.2-0.2-0.3-0.3s-0.1-0.3-0.1-0.4c0-0.2-0.1-0.4-0.2-0.6c-0.1-0.2-0.2-0.4-0.3-0.6
		s-0.2-0.4-0.3-0.6s-0.1-0.4-0.1-0.6s0.1-0.5,0.2-0.7c-0.3-0.3-0.5-0.7-0.6-1.1s-0.1-0.8-0.1-1.2c0-0.1,0-0.3,0-0.4s0-0.3,0-0.4
		s0-0.3-0.1-0.3c-0.1-0.1-0.1-0.2-0.1-0.3c0-0.2,0-0.4,0.1-0.5s0.1-0.4,0.1-0.5c-0.1,0-0.2-0.1-0.3-0.1v-0.1
		c0.1-0.1,0.1-0.2,0.2-0.3c0-0.1,0.1-0.2,0.1-0.2c0-0.1,0-0.2,0.1-0.2c0-0.1,0-0.2,0.1-0.3c0.1-0.3,0.2-0.7,0.3-1s0.3-0.7,0.4-1
		c0.1-0.4,0.3-0.7,0.5-1s0.5-0.6,1-0.8c0.2-0.1,0.4-0.2,0.5-0.4s0.3-0.3,0.3-0.5c0.1,0,0.1-0.1,0.2-0.1c0.1,0,0.1,0,0.2,0h0.1
		c0.1,0,0.2,0,0.2,0s0.1,0,0.2-0.1c0.2-0.1,0.3-0.2,0.4-0.3c0.1-0.1,0.3-0.1,0.5-0.1s0.3,0,0.4,0c0.1,0,0.3,0,0.4,0.1
		c0.1,0,0.1-0.1,0.2-0.2c0.1-0.1,0.2-0.1,0.3-0.1l0,0v0.1h0.1c0.1,0,0.3,0,0.4-0.1c0.1-0.1,0.3-0.1,0.4-0.1c0.3,0,0.6-0.1,1-0.2
		c0.3-0.1,0.6-0.1,1-0.1s0.7,0,1.1,0.1s0.8,0.1,1.2,0.2s0.7,0.2,1.1,0.4c0.3,0.2,0.6,0.4,0.8,0.6c0.1,0.1,0.2,0.2,0.3,0.3
		c0.1,0.1,0.2,0.1,0.3,0.2c0.1,0,0.2,0.1,0.3,0.1s0.2,0.1,0.3,0.2c0.2,0.2,0.4,0.4,0.5,0.6s0.3,0.4,0.5,0.6c0.3,0.2,0.5,0.4,0.6,0.7
		s0.2,0.6,0.2,0.9c0,0.1,0,0.2,0,0.3c0,0.1,0,0.2,0,0.3c0,0.1,0,0.2,0.1,0.3s0.1,0.2,0.2,0.3c0.1,0.1,0.1,0.2,0.2,0.3
		c0.1,0.1,0.1,0.2,0.1,0.3c0,0.2,0.1,0.4,0.1,0.7s0.1,0.4,0.2,0.7c0.1,0.3,0.2,0.6,0.2,0.9C433,157.3,433,157.6,433,157.9z
		 M430.3,157.8c0-0.5-0.1-0.9-0.2-1.4c-0.1-0.5-0.2-0.9-0.3-1.4c0-0.2-0.1-0.3-0.2-0.5c-0.1-0.2-0.2-0.3-0.2-0.5
		c-0.1-0.3-0.3-0.6-0.4-0.9c-0.1-0.3-0.2-0.6-0.4-0.9c-0.1-0.2-0.2-0.3-0.5-0.5c-0.2-0.1-0.5-0.3-0.8-0.4s-0.6-0.2-1-0.2
		c-0.4-0.1-0.7-0.1-1-0.2c-0.3,0-0.6-0.1-0.9-0.1s-0.5,0-0.6,0h0.2h-0.2c-0.2,0-0.5,0-0.7,0s-0.5,0-0.7,0s-0.4,0-0.6,0
		c-0.2,0-0.4,0.1-0.5,0.2c-0.4,0.2-0.7,0.4-1,0.6s-0.6,0.4-0.8,0.8c-0.1,0.1-0.1,0.2-0.2,0.2c-0.1,0-0.2,0.1-0.2,0.1
		c-0.1,0-0.1,0.1-0.2,0.2c-0.1,0.1-0.1,0.2-0.1,0.3c-0.1,0.2-0.1,0.5-0.2,0.7c-0.1,0.2-0.1,0.5-0.1,0.7c0,0.3,0,0.5-0.1,0.8
		s-0.2,0.5-0.3,0.8c0,0.1-0.1,0.1-0.1,0.2s0,0.1,0,0.2s0,0.2,0.1,0.3c0.1,0.1,0.1,0.2,0.1,0.2v0.1h-0.1c0,0-0.1,0-0.1,0.1
		c0,0,0,0.1,0,0.2c0,0.2,0,0.5,0,0.7c0,0.3,0,0.5,0.1,0.7c0,0.1,0.1,0.3,0.2,0.4s0.1,0.3,0.1,0.4s0,0.2-0.1,0.3s-0.1,0.2-0.1,0.3
		c0,0.1,0,0.2,0.1,0.3c0.1,0.1,0.2,0.2,0.3,0.2c0.1,0.1,0.1,0.2,0.2,0.3c0,0.1,0.1,0.2,0.1,0.3c0,0.1,0.1,0.2,0.1,0.2
		c0,0.1,0.1,0.1,0.1,0.1h0.1h0.1c0.2,0,0.4,0.1,0.5,0.2s0.2,0.3,0.2,0.4s0,0.2,0.1,0.3s0.2,0.2,0.3,0.2c0.1,0.1,0.2,0.1,0.4,0.2
		s0.2,0.1,0.3,0.2s0.3,0.2,0.3,0.3c0.1,0,0.2,0.1,0.2,0.1s0.1,0,0.2,0c0.1,0,0.1,0,0.2,0.1c0.1,0.1,0.2,0.1,0.4,0.2
		c0.1,0.1,0.3,0.2,0.4,0.2c0.3,0.2,0.7,0.3,1.2,0.3c0.4,0,0.8,0.1,1.3,0.1c0.2,0,0.3,0,0.5-0.1c0.1-0.1,0.3-0.1,0.4-0.2
		s0.3-0.1,0.4-0.2s0.3-0.1,0.5-0.1c0.1,0,0.3,0,0.4,0.1c0.3-0.3,0.5-0.5,0.7-0.7s0.4-0.4,0.6-0.5s0.3-0.4,0.5-0.6
		c0.1-0.2,0.2-0.5,0.3-0.9c0-0.2,0.1-0.3,0.2-0.4c0.1-0.1,0.2-0.3,0.2-0.4c0.1-0.3,0.1-0.7,0.1-1s0-0.7,0.1-1c0-0.1,0-0.3,0-0.4
		S430.3,158,430.3,157.8z"/>
	<path class="st4" d="M457.5,164.4c0,0.1,0,0.2,0,0.3c0,0.1-0.1,0.2-0.2,0.3c-0.1,0-0.2,0.1-0.2,0.2s0,0.2,0,0.3c0,0.1,0,0.2,0,0.3
		c0,0.1-0.1,0.1-0.1,0.1c-0.1,0-0.1,0-0.1,0h-0.1c-0.1,0-0.1,0-0.2,0.1c-0.1,0-0.1,0.1-0.1,0.1s0,0.1,0.1,0.1l0.1,0.1
		c0,0-0.1,0.1-0.2,0.1c-0.2,0-0.4,0.1-0.6,0.1c-0.2,0-0.4,0.1-0.6,0.1c-0.2,0-0.3,0-0.4,0c-0.4,0-0.8-0.1-1.2-0.2s-0.8-0.2-1.2-0.3
		c-0.5-0.1-0.8-0.3-1-0.6c-0.2-0.3-0.4-0.6-0.5-0.9s-0.2-0.7-0.2-1c0-0.4-0.1-0.7-0.3-1c-0.1-0.1-0.1-0.2-0.1-0.3s0-0.2,0-0.2
		c0-0.1,0.1-0.1,0.1-0.1l0.1-0.1v-0.1c0-0.1,0-0.2-0.1-0.3c-0.1-0.1-0.1-0.2-0.1-0.4c0-0.1,0-0.2,0-0.3c0-0.1,0-0.2,0-0.3
		c0-0.3,0-0.6-0.1-0.8c-0.1-0.2-0.2-0.4-0.3-0.6s-0.3-0.3-0.4-0.5c-0.2-0.2-0.4-0.4-0.6-0.6c-0.1,0-0.2,0-0.3,0s-0.2,0-0.3,0
		c-0.2,0-0.4,0-0.7,0c-0.2,0-0.4,0-0.7,0c-0.2,0-0.5,0-0.7,0.1c-0.2,0-0.5,0.1-0.7,0.1s-0.3,0-0.5-0.1s-0.3-0.1-0.5-0.1
		s-0.4,0-0.6,0.1c-0.2,0.1-0.4,0.1-0.5,0.2c-0.2,0.1-0.3,0.2-0.4,0.3c-0.1,0.1-0.1,0.3-0.1,0.4v0.4c0,0.7-0.1,1.5-0.2,2.2
		c0,0.1,0,0.2-0.1,0.3c0,0.1,0,0.2,0,0.3c0,0.3,0.1,0.6,0.3,0.8c0.2,0.2,0.4,0.4,0.7,0.5s0.6,0.2,0.9,0.3s0.6,0.2,0.9,0.3
		c0.3,0.1,0.5,0.2,0.7,0.3c0.2,0.1,0.3,0.3,0.3,0.5c0,0.1,0,0.2-0.1,0.2c0,0.1-0.1,0.1-0.1,0.2c-0.1,0.2-0.3,0.3-0.4,0.4
		c-0.1,0.1-0.3,0.2-0.4,0.2s-0.3,0.1-0.5,0.1s-0.4,0.1-0.6,0.1c-0.2,0-0.4,0.1-0.6,0.1s-0.4,0-0.6,0c-0.3,0-0.6,0-0.9-0.1
		s-0.6-0.1-0.9-0.1c-0.2,0-0.5,0-0.7,0s-0.5,0.1-0.7,0.1s-0.5,0.1-0.7,0.1s-0.5,0-0.7,0s-0.3,0-0.5,0s-0.4-0.1-0.5-0.1
		c-0.2-0.1-0.3-0.1-0.4-0.2c-0.1-0.1-0.2-0.2-0.2-0.4c0-0.1,0-0.2,0.1-0.3s0.2-0.2,0.3-0.2c0.1-0.1,0.3-0.1,0.4-0.2
		c0.1,0,0.3-0.1,0.4-0.1c0.1,0,0.2,0,0.3,0s0.2,0,0.2,0c0.1,0,0.1,0,0.2-0.1s0.1-0.1,0.2-0.2c0.1,0,0.1-0.1,0.2-0.1s0.1,0,0.2,0
		c0.1,0,0.1,0,0.2,0c0.1,0,0.1,0,0.2,0c0.1,0,0.2,0,0.3-0.1c0.2-0.1,0.4-0.2,0.5-0.4c0.1-0.2,0.2-0.3,0.2-0.5s0.1-0.4,0.1-0.6
		s0-0.4,0.1-0.6s0.1-0.4,0.1-0.5c0-0.3,0-0.6-0.1-0.9s-0.1-0.6-0.1-0.9c0-0.4,0-0.7,0.1-1.1s0.1-0.7,0.1-1.1c0-0.1,0-0.2,0-0.3
		c0-0.1,0-0.2,0-0.3c0-0.6,0-1.2,0.1-1.8s0.1-1.2,0.1-1.8c0-0.2,0-0.3,0-0.5s0-0.3,0-0.5c0-0.1,0-0.3-0.1-0.5c0-0.2-0.1-0.4-0.1-0.6
		s-0.1-0.4-0.2-0.6c-0.1-0.2-0.2-0.4-0.3-0.6s-0.3-0.3-0.5-0.4s-0.4-0.2-0.7-0.2c-0.1,0-0.1,0-0.2,0c-0.1,0-0.1,0-0.2,0
		c-0.1,0-0.2,0-0.3-0.1s-0.1-0.1-0.2-0.2c0-0.1-0.1-0.2-0.1-0.3c0-0.1,0-0.2,0-0.2c0-0.3,0.1-0.5,0.3-0.6s0.4-0.2,0.7-0.3
		s0.6-0.1,0.9-0.1c0.3,0,0.6,0,0.9,0c0.3,0,0.6-0.1,0.9-0.1s0.6-0.1,0.9-0.1c0.4,0,0.9,0,1.3,0.1s0.8,0.1,1.3,0.1c0.4,0,0.7,0,1-0.1
		s0.7-0.1,1-0.2c0.2,0,0.3-0.1,0.4-0.1c0.4,0,0.9,0,1.3,0.1c0.4,0.1,0.8,0.1,1.3,0.2c0.3,0,0.6,0.1,0.9,0.1s0.6,0.2,0.9,0.3
		s0.5,0.3,0.7,0.4s0.3,0.4,0.4,0.6c0,0.1,0.1,0.3,0.2,0.4s0.3,0.2,0.4,0.4c0.1,0.1,0.3,0.2,0.4,0.3c0.1,0.1,0.2,0.2,0.2,0.2
		c0,0.1,0,0.1-0.1,0.1s-0.1,0.1-0.1,0.1s0,0.1,0.1,0.1c0.1,0.1,0.2,0.1,0.2,0.2c0.1,0.1,0.2,0.1,0.2,0.2c0.1,0.1,0.1,0.2,0.1,0.3
		c0,0.1-0.1,0.2-0.2,0.3c-0.1,0.1-0.2,0.2-0.2,0.3l0,0l0.2-0.1l0,0c0,0.1,0.1,0.3,0.1,0.4s0,0.3,0,0.4c0,0.2,0,0.3,0,0.5
		s0,0.4-0.1,0.6c0,0.2-0.1,0.4-0.2,0.5c-0.1,0.2-0.2,0.3-0.4,0.4c-0.1,0.1-0.2,0.1-0.3,0.1s-0.2,0.1-0.3,0.1s-0.2,0.1-0.3,0.1
		s-0.1,0.1-0.2,0.2c-0.1,0.1-0.1,0.3-0.3,0.4c-0.1,0.1-0.3,0.3-0.4,0.4s-0.3,0.2-0.4,0.4s-0.2,0.3-0.2,0.4c0,0.2,0.1,0.5,0.2,0.7
		c0.1,0.2,0.3,0.4,0.4,0.6c0.1,0.2,0.2,0.5,0.3,0.7s0.1,0.5,0.1,0.7s0,0.5,0.1,0.7c0,0.2,0,0.5,0.1,0.7c0,0.1,0.1,0.3,0.2,0.5
		s0.2,0.5,0.3,0.7s0.3,0.4,0.4,0.6c0.2,0.2,0.3,0.3,0.5,0.3c0.1,0,0.3-0.1,0.3-0.2c0.1-0.1,0.2-0.3,0.3-0.4c0.1-0.2,0.2-0.3,0.3-0.4
		s0.2-0.2,0.4-0.3c0.3,0,0.6,0.1,0.9,0.2c0.2,0.1,0.4,0.2,0.5,0.3s0.2,0.3,0.3,0.5S457.5,164.2,457.5,164.4z M452.5,152.8
		c0-0.1,0-0.3-0.1-0.4c-0.1-0.2-0.1-0.3-0.2-0.5c-0.1-0.2-0.2-0.3-0.3-0.5s-0.2-0.3-0.3-0.4c-0.2,0-0.4,0-0.5,0s-0.1-0.1-0.1-0.1
		s0-0.1-0.1-0.1c0-0.1-0.1-0.1-0.2-0.2c-0.4-0.1-0.7-0.3-1-0.3c-0.3-0.1-0.7-0.1-1.1-0.1c-0.1,0-0.2,0-0.4,0.1s-0.2,0.1-0.3,0.1
		c-0.3,0-0.5,0-0.7-0.1s-0.5-0.1-0.7-0.1c-0.4,0-0.7,0-1.1,0.1c-0.3,0.1-0.5,0.1-0.8,0.1s-0.5,0.1-0.7,0.2s-0.4,0.2-0.5,0.3
		c-0.1,0.1-0.2,0.3-0.2,0.6c0,0.3,0,0.5,0.1,0.8s0.1,0.5,0.1,0.8c0,0.1,0,0.2-0.1,0.4c0,0.1-0.1,0.2-0.2,0.3
		c-0.1,0.1-0.1,0.2-0.2,0.3s-0.1,0.2-0.1,0.4c0,0.2,0,0.3,0.1,0.5c0,0.2,0.1,0.3,0.2,0.4c0.1,0.1,0.2,0.2,0.4,0.3
		c0.2,0.1,0.4,0.1,0.6,0.1c0.2,0,0.5,0,0.7-0.1s0.4-0.1,0.7-0.1c0.1,0,0.2,0,0.3,0.1c0.1,0,0.2,0.1,0.3,0.1c0.1,0.1,0.2,0.1,0.3,0.1
		s0.3,0.1,0.4,0.1c0.1,0,0.2,0,0.3,0s0.2,0,0.3-0.1c0.4-0.1,0.9-0.3,1.3-0.4c0.5-0.1,0.9-0.2,1.4-0.2c0.1,0,0.3-0.1,0.4-0.2
		c0.2-0.1,0.3-0.2,0.5-0.4s0.4-0.3,0.5-0.5c0.2-0.2,0.3-0.4,0.5-0.6c0.1-0.2,0.2-0.4,0.3-0.5S452.5,152.9,452.5,152.8z"/>
	<path class="st4" d="M480.1,150c-0.1,0-0.2,0.1-0.3,0.1s-0.2,0.1-0.3,0.2s-0.2,0.1-0.3,0.2s-0.3,0.2-0.4,0.3c0,0.2,0,0.3,0,0.5
		s0,0.3,0.1,0.4s0.1,0.2,0.2,0.3s0.1,0.1,0.2,0.2c0.1,0.1,0.1,0.1,0.1,0.2c0,0.2,0.1,0.4,0.2,0.6s0.3,0.4,0.5,0.6s0.4,0.4,0.6,0.5
		c0.2,0.2,0.4,0.3,0.5,0.4l0,0c0.1,0,0.2,0,0.3-0.1s0.3-0.1,0.4-0.2s0.2-0.2,0.3-0.3s0.1-0.2,0.1-0.3c0-0.1,0-0.2,0.1-0.2
		s0.2-0.1,0.3-0.2s0.2-0.1,0.3-0.2s0.2-0.1,0.2-0.2v-0.5c0.1-0.1,0.1-0.1,0.2-0.1c0.1,0,0.1-0.1,0.2-0.1c0-0.1,0.1-0.1,0.1-0.2
		s0-0.2,0-0.3c0-0.1,0-0.1,0-0.2s0-0.1,0-0.2c0.1-0.1,0.2-0.2,0.2-0.3c0.1-0.1,0.2-0.2,0.2-0.3c0.1-0.2,0.1-0.3,0-0.4
		s-0.2-0.1-0.4-0.2s-0.4,0-0.6,0c-0.2,0-0.4,0-0.5,0h-0.2c-0.1,0-0.3,0-0.4-0.1s-0.3-0.2-0.4-0.4c-0.1-0.2-0.2-0.4-0.1-0.5
		s0.1-0.3,0.3-0.4c0.1-0.1,0.3-0.2,0.5-0.3c0.2-0.1,0.4-0.1,0.5-0.2c0.3-0.1,0.6-0.1,0.9-0.2c0.3-0.1,0.6-0.1,0.9-0.1
		c0.3,0,0.7,0,1,0.1c0.3,0,0.7,0.1,1,0.1c0.4,0,0.7,0,1.1-0.1c0.3-0.1,0.7-0.1,1.1-0.1c0.2,0,0.5,0,0.7,0s0.4,0.1,0.6,0.1
		c0.2,0.1,0.3,0.2,0.4,0.3c0.1,0.1,0.2,0.3,0.3,0.5s0.1,0.4,0,0.5c0,0.1,0,0.2,0,0.3c-0.2,0.3-0.4,0.5-0.6,0.7
		c-0.3,0.1-0.5,0.2-0.8,0.3c-0.3,0.1-0.6,0.1-0.9,0.1c-0.3,0-0.6,0.1-0.8,0.2s-0.4,0.3-0.6,0.5c-0.2,0.2-0.2,0.6-0.2,1
		c-0.2,0.1-0.3,0.2-0.5,0.3s-0.3,0.3-0.5,0.4c-0.1,0.2-0.3,0.3-0.4,0.5c-0.1,0.2-0.2,0.3-0.3,0.4c0.1,0,0.2,0.1,0.2,0.2
		c-0.1,0.1-0.2,0.2-0.2,0.4c-0.1,0.1-0.1,0.3-0.2,0.4c-0.1,0.1-0.1,0.2-0.2,0.2c-0.1,0-0.1,0.1-0.2,0.2c-0.1,0.1-0.1,0.1-0.1,0.2
		s-0.1,0.2-0.1,0.4c0,0.1,0,0.1,0,0.2s-0.1,0.1-0.2,0.2c-0.3,0.2-0.5,0.4-0.7,0.6c-0.2,0.3-0.3,0.5-0.4,0.8
		c-0.1,0.3-0.2,0.6-0.2,0.9s0,0.6,0,0.8c0,0.2,0,0.5,0.1,0.7s0.1,0.4,0.1,0.7s0,0.5-0.1,0.7c0,0.2-0.1,0.5-0.1,0.7
		c0,0.1,0,0.2,0,0.3c0,0.1,0,0.2,0,0.3c0,0.1,0,0.2,0,0.3c0,0.1,0,0.1,0,0.2s0,0.2,0.1,0.2c0.1,0.1,0.2,0.2,0.4,0.4
		c0,0,0.1,0.1,0.2,0.2c0.1,0.1,0.2,0.1,0.2,0.1c0.2,0,0.4,0,0.6-0.1c0.2,0,0.4-0.1,0.5-0.1s0.4-0.1,0.5-0.1s0.4-0.1,0.6-0.1
		c0,0,0.1,0,0.2,0c0.1,0,0.2,0,0.3,0.1c0.1,0,0.3,0,0.4,0.1c0.1,0,0.2,0,0.3,0c0,0.1,0.1,0.1,0.1,0.2s0.1,0.1,0.1,0.2
		c0.1,0,0.2,0.1,0.3,0.1s0.2,0.1,0.4,0.1c0.1,0.1,0.2,0.1,0.3,0.2s0.1,0.2,0.1,0.3c0,0.1,0,0.3-0.1,0.4s-0.1,0.2-0.1,0.4
		c0,0.1-0.1,0.2-0.4,0.3c-0.3,0.1-0.5,0.1-0.9,0.1c-0.3,0-0.7,0-1,0.1c-0.3,0-0.5,0-0.6,0c-0.8,0-1.5,0-2.2-0.1
		c-0.7,0-1.5-0.1-2.2-0.1c-0.5,0-0.9,0-1.4,0.1s-0.9,0.1-1.4,0.1c-0.3,0-0.5,0-0.7-0.1s-0.5-0.1-0.7-0.1c-0.3,0-0.6,0-0.8,0.1
		c-0.3,0.1-0.6,0.1-0.8,0.1s-0.3,0-0.4-0.1c0-0.1,0-0.2-0.1-0.3c-0.1-0.1-0.1-0.2-0.2-0.3c-0.1-0.1-0.1-0.2-0.2-0.3
		c-0.1-0.1-0.1-0.2-0.1-0.3c0-0.2,0.1-0.4,0.4-0.5c0.2-0.1,0.5-0.2,0.9-0.3c0.4-0.1,0.8-0.1,1.2-0.2c0.4,0,0.9-0.1,1.3-0.1
		c0.4,0,0.8,0,1.2,0s0.6,0,0.8-0.1c0.1-0.2,0.2-0.4,0.3-0.6s0.1-0.5,0.2-0.8c0-0.3,0.1-0.6,0.1-0.9s0-0.6,0-0.9c0-0.4,0-0.7,0-1.1
		c0-0.3,0-0.7,0-1s-0.1-0.6-0.1-0.9c-0.1-0.3-0.2-0.6-0.4-0.9c-0.1-0.2-0.3-0.5-0.6-0.6c-0.2-0.2-0.4-0.4-0.6-0.6
		c-0.2-0.2-0.3-0.5-0.4-0.8s-0.3-0.5-0.4-0.8c-0.4-0.5-0.7-1.1-1.1-1.6c-0.3-0.5-0.6-1.1-0.9-1.7c-0.2,0-0.3,0-0.3-0.1
		c-0.1,0-0.1-0.1-0.2-0.1c0-0.1-0.1-0.1-0.2-0.2c-0.1-0.1-0.1-0.1-0.2-0.1c-0.1-0.1-0.3-0.1-0.6-0.1c-0.2,0-0.5-0.1-0.8-0.1
		s-0.6-0.1-0.9-0.1c-0.3,0-0.6-0.1-0.8-0.2s-0.4-0.1-0.6-0.3s-0.2-0.2-0.2-0.4c0-0.2,0.1-0.4,0.2-0.5c0.2-0.2,0.3-0.3,0.5-0.5
		c0.2-0.1,0.4-0.3,0.7-0.3c0.3-0.1,0.6-0.1,0.9-0.2c0.3,0,0.7-0.1,1-0.1s0.6,0,0.9,0h0.3h1.1c0.3,0,0.6,0,0.8,0.1
		c0.3,0,0.5,0.1,0.7,0.1c0.2,0.1,0.5,0.1,0.7,0.2s0.5,0.1,0.8,0.1c0.2,0,0.4,0.1,0.5,0.2s0.2,0.3,0.3,0.5c0,0.2,0,0.4,0,0.5
		C480.3,149.8,480.2,149.9,480.1,150z"/>
	<path class="st4" d="M511.9,157.9c0,0.2,0,0.3-0.1,0.5s-0.1,0.3-0.1,0.5s-0.1,0.3-0.1,0.5s-0.1,0.3-0.1,0.5c0,0.1,0,0.1,0,0.2
		s0,0.1,0,0.2c0,0.2,0,0.3-0.1,0.5s-0.2,0.3-0.3,0.4s-0.1,0.3-0.2,0.4s0,0.3,0,0.4s0,0.3-0.1,0.4c0,0.1-0.1,0.3-0.2,0.4
		c0,0.1-0.1,0.2-0.1,0.4c0,0.2-0.1,0.3-0.1,0.3s0,0-0.1,0s-0.1,0-0.2,0c-0.1,0-0.1,0-0.2,0.1c-0.1,0-0.1,0.1-0.2,0.1
		c-0.1,0-0.1,0.1-0.1,0.2s-0.1,0.2-0.1,0.2c0,0.1-0.1,0.1-0.2,0.2c-0.1,0.1-0.1,0.1-0.2,0.1s-0.2,0-0.3,0s-0.2-0.1-0.2-0.1
		c-0.1,0-0.2-0.1-0.2-0.1c-0.1,0-0.2,0-0.3,0v0.1c0,0.1,0,0.1,0,0.2s0.1,0.1,0.1,0.2c0.1,0.1,0.2,0.1,0.4,0.1c0.1,0,0.2,0,0.3,0
		s0.2,0,0.3,0c-0.1,0.2-0.2,0.3-0.3,0.4s-0.3,0.2-0.4,0.3s-0.3,0.2-0.5,0.2s-0.3,0.2-0.5,0.3c-0.2,0.1-0.4,0.2-0.5,0.3
		c-0.2,0-0.4,0.1-0.6,0.1c-0.3,0.1-0.5,0.1-0.6,0.2s-0.2,0.2-0.4,0.2s-0.3,0.1-0.5,0.2s-0.6,0.1-1.1,0.1c-0.4,0-0.9,0-1.3,0
		s-0.9-0.1-1.3-0.1c-0.2,0-0.4,0-0.5-0.1c-0.1,0-0.2-0.1-0.4-0.1c-0.1,0-0.2-0.1-0.3-0.1c-0.1-0.1-0.2-0.1-0.4-0.2
		c-0.1,0-0.2-0.1-0.3-0.1s-0.2-0.1-0.4-0.1c-0.1,0-0.3-0.1-0.4-0.1s-0.2-0.1-0.3-0.1c-0.1-0.1-0.1-0.1-0.2-0.2s-0.1-0.1-0.1-0.2
		s0-0.1-0.1-0.2s-0.1-0.1-0.2-0.2c-0.2,0-0.3,0-0.5-0.1s-0.3-0.1-0.5-0.1c0-0.1-0.1-0.2-0.1-0.3c0-0.1-0.1-0.2-0.1-0.3
		c-0.1-0.1-0.3-0.2-0.4-0.3s-0.2-0.2-0.3-0.2s-0.2-0.2-0.3-0.3s-0.1-0.3-0.1-0.4c0-0.2-0.1-0.4-0.2-0.6c-0.1-0.2-0.2-0.4-0.3-0.6
		s-0.2-0.4-0.3-0.6s-0.1-0.4-0.1-0.6s0.1-0.5,0.2-0.7c-0.3-0.3-0.5-0.7-0.6-1.1s-0.1-0.8-0.1-1.2c0-0.1,0-0.3,0-0.4s0-0.3,0-0.4
		s0-0.3-0.1-0.3c-0.1-0.1-0.1-0.2-0.1-0.3c0-0.2,0-0.4,0.1-0.5s0.1-0.4,0.1-0.5c-0.1,0-0.2-0.1-0.3-0.1v-0.1
		c0.1-0.1,0.1-0.2,0.2-0.3c0-0.1,0.1-0.2,0.1-0.2c0-0.1,0-0.2,0.1-0.2c0-0.1,0-0.2,0.1-0.3c0.1-0.3,0.2-0.7,0.3-1s0.3-0.7,0.4-1
		c0.1-0.4,0.3-0.7,0.5-1s0.5-0.6,1-0.8c0.2-0.1,0.4-0.2,0.5-0.4s0.3-0.3,0.3-0.5c0.1,0,0.1-0.1,0.2-0.1c0.1,0,0.1,0,0.2,0h0.1
		c0.1,0,0.2,0,0.2,0s0.1,0,0.2-0.1c0.2-0.1,0.3-0.2,0.4-0.3c0.1-0.1,0.3-0.1,0.5-0.1s0.3,0,0.4,0c0.1,0,0.3,0,0.4,0.1
		c0.1,0,0.1-0.1,0.2-0.2c0.1-0.1,0.2-0.1,0.3-0.1l0,0v0.1h0.1c0.1,0,0.3,0,0.4-0.1c0.1-0.1,0.3-0.1,0.4-0.1c0.3,0,0.6-0.1,1-0.2
		c0.3-0.1,0.6-0.1,1-0.1s0.7,0,1.1,0.1s0.8,0.1,1.2,0.2s0.7,0.2,1.1,0.4c0.3,0.2,0.6,0.4,0.8,0.6c0.1,0.1,0.2,0.2,0.3,0.3
		c0.1,0.1,0.2,0.1,0.3,0.2c0.1,0,0.2,0.1,0.3,0.1s0.2,0.1,0.3,0.2c0.2,0.2,0.4,0.4,0.5,0.6s0.3,0.4,0.5,0.6c0.3,0.2,0.5,0.4,0.6,0.7
		s0.2,0.6,0.2,0.9c0,0.1,0,0.2,0,0.3c0,0.1,0,0.2,0,0.3c0,0.1,0,0.2,0.1,0.3s0.1,0.2,0.2,0.3c0.1,0.1,0.1,0.2,0.2,0.3
		c0.1,0.1,0.1,0.2,0.1,0.3c0,0.2,0.1,0.4,0.1,0.7s0.1,0.4,0.2,0.7c0.1,0.3,0.2,0.6,0.2,0.9C511.9,157.3,511.9,157.6,511.9,157.9z
		 M509.2,157.8c0-0.5-0.1-0.9-0.2-1.4c-0.1-0.5-0.2-0.9-0.3-1.4c0-0.2-0.1-0.3-0.2-0.5c-0.1-0.2-0.2-0.3-0.2-0.5
		c-0.1-0.3-0.3-0.6-0.4-0.9c-0.1-0.3-0.2-0.6-0.4-0.9c-0.1-0.2-0.2-0.3-0.5-0.5c-0.2-0.1-0.5-0.3-0.8-0.4s-0.6-0.2-1-0.2
		c-0.4-0.1-0.7-0.1-1-0.2c-0.3,0-0.6-0.1-0.9-0.1s-0.5,0-0.6,0h0.2h-0.2c-0.2,0-0.5,0-0.7,0s-0.5,0-0.7,0s-0.4,0-0.6,0
		c-0.2,0-0.4,0.1-0.5,0.2c-0.4,0.2-0.7,0.4-1,0.6s-0.6,0.4-0.8,0.8c-0.1,0.1-0.1,0.2-0.2,0.2c-0.1,0-0.2,0.1-0.2,0.1
		c-0.1,0-0.1,0.1-0.2,0.2c-0.1,0.1-0.1,0.2-0.1,0.3c-0.1,0.2-0.1,0.5-0.2,0.7c-0.1,0.2-0.1,0.5-0.1,0.7c0,0.3,0,0.5-0.1,0.8
		s-0.2,0.5-0.3,0.8c0,0.1-0.1,0.1-0.1,0.2s0,0.1,0,0.2s0,0.2,0.1,0.3c0.1,0.1,0.1,0.2,0.1,0.2v0.1H497c0,0-0.1,0-0.1,0.1
		c0,0,0,0.1,0,0.2c0,0.2,0,0.5,0,0.7c0,0.3,0,0.5,0.1,0.7c0,0.1,0.1,0.3,0.2,0.4s0.1,0.3,0.1,0.4s0,0.2-0.1,0.3s-0.1,0.2-0.1,0.3
		c0,0.1,0,0.2,0.1,0.3c0.1,0.1,0.2,0.2,0.3,0.2c0.1,0.1,0.1,0.2,0.2,0.3c0,0.1,0.1,0.2,0.1,0.3c0,0.1,0.1,0.2,0.1,0.2
		c0,0.1,0.1,0.1,0.1,0.1h0.1h0.1c0.2,0,0.4,0.1,0.5,0.2s0.2,0.3,0.2,0.4s0,0.2,0.1,0.3s0.2,0.2,0.3,0.2c0.1,0.1,0.2,0.1,0.4,0.2
		s0.2,0.1,0.3,0.2s0.3,0.2,0.3,0.3c0.1,0,0.2,0.1,0.2,0.1s0.1,0,0.2,0c0.1,0,0.1,0,0.2,0.1c0.1,0.1,0.2,0.1,0.4,0.2
		c0.1,0.1,0.3,0.2,0.4,0.2c0.3,0.2,0.7,0.3,1.2,0.3c0.4,0,0.8,0.1,1.3,0.1c0.2,0,0.3,0,0.5-0.1c0.1-0.1,0.3-0.1,0.4-0.2
		s0.3-0.1,0.4-0.2s0.3-0.1,0.5-0.1c0.1,0,0.3,0,0.4,0.1c0.3-0.3,0.5-0.5,0.7-0.7s0.4-0.4,0.6-0.5s0.3-0.4,0.5-0.6
		c0.1-0.2,0.2-0.5,0.3-0.9c0-0.2,0.1-0.3,0.2-0.4c0.1-0.1,0.2-0.3,0.2-0.4c0.1-0.3,0.1-0.7,0.1-1s0-0.7,0.1-1c0-0.1,0-0.3,0-0.4
		S509.2,158,509.2,157.8z"/>
	<path class="st4" d="M535.9,149.3c0,0.1,0,0.2-0.1,0.3s-0.2,0.1-0.4,0.2s-0.3,0.1-0.4,0.1c-0.1,0-0.3,0.1-0.4,0.1
		c-0.1,0-0.2,0.1-0.2,0.1c-0.1,0-0.1,0.1-0.2,0.1c-0.1,0-0.1,0.1-0.2,0.1c-0.1,0-0.2,0.1-0.3,0.1s-0.3,0-0.4,0c-0.1,0-0.2,0-0.3,0
		s-0.2,0-0.3,0.1s-0.2,0.1-0.2,0.3c-0.1,0.1-0.1,0.2-0.1,0.4c0,0.1-0.1,0.3-0.1,0.4c-0.1,0.1-0.1,0.2-0.2,0.3
		c-0.1,0.1-0.3,0.1-0.5,0.1c0,0.1,0,0.2,0.1,0.3s0.2,0.2,0.3,0.3c0.1,0.1,0.2,0.2,0.3,0.3c0.1,0.1,0.1,0.2,0.1,0.3
		c0,0.1,0,0.2-0.1,0.3c-0.1,0.1-0.1,0.2-0.1,0.3v0.8c0,0.2,0,0.3,0.1,0.5s0.1,0.3,0.1,0.5c0,0.1,0,0.2-0.1,0.3
		c-0.1,0.1-0.1,0.2-0.1,0.3c0,0.4,0,0.7,0.1,1.1s0.1,0.7,0.1,1.1c0,0.2,0,0.5-0.1,0.8s-0.2,0.5-0.4,0.7c0,0.1,0,0.2,0.1,0.3
		c0.1,0.1,0.1,0.2,0.2,0.3c0.1,0.1,0.1,0.2,0.2,0.3c0,0.1,0.1,0.2,0.1,0.4c0,0.2,0,0.4-0.1,0.6c0,0.2-0.1,0.5-0.2,0.7
		c-0.1,0.2-0.2,0.4-0.4,0.6s-0.4,0.3-0.7,0.3c0,0,0,0-0.1,0s0,0-0.1,0v0.1l0,0c0,0.1,0,0.2,0.1,0.3s0.1,0.2,0.1,0.3
		c0,0.1,0,0.1-0.1,0.2s-0.2,0.2-0.3,0.3c-0.1,0.1-0.3,0.2-0.4,0.3c-0.1,0.1-0.3,0.2-0.3,0.2c-0.1,0.1-0.2,0.2-0.2,0.2
		c0,0.1-0.1,0.1-0.2,0.2c0,0.1-0.1,0.1-0.2,0.1s-0.2,0.1-0.4,0.1c-0.3,0-0.5,0.1-0.8,0.2s-0.4,0.2-0.6,0.3c-0.2,0.1-0.4,0.2-0.7,0.2
		c-0.2,0.1-0.5,0.1-0.9,0.1c-0.2,0-0.4,0-0.5-0.1c-0.2,0-0.4-0.1-0.5-0.1c-0.2,0-0.4-0.1-0.5-0.1s-0.4-0.1-0.5-0.1s-0.3,0-0.4,0
		c-0.1,0-0.3,0-0.4,0c-0.1,0-0.2,0-0.3,0s-0.1,0-0.2-0.1c-0.1-0.1-0.1-0.1-0.3-0.1c-0.1,0-0.2-0.1-0.4-0.1s-0.3-0.1-0.4-0.1
		c-0.1,0-0.2-0.1-0.3-0.1c-0.2,0-0.4-0.1-0.6-0.3c-0.2-0.1-0.3-0.3-0.5-0.4c-0.1-0.2-0.3-0.3-0.4-0.5s-0.2-0.3-0.3-0.5
		c-0.1-0.3-0.2-0.6-0.3-0.9s-0.1-0.6-0.1-0.9s-0.1-0.6-0.1-0.9s-0.1-0.6-0.2-0.9c0-0.1-0.1-0.2-0.1-0.4c0-0.1-0.1-0.2-0.1-0.4
		c0-0.1,0-0.2,0-0.3c0-0.1,0-0.2,0.1-0.3c0.1-0.4,0.2-0.7,0.2-1.1s0.1-0.7,0.1-1.1c0-0.5,0-1-0.1-1.4c-0.1-0.5-0.1-1-0.1-1.4
		c0-0.1,0-0.2,0-0.3s0-0.2,0-0.3c0-0.2,0.1-0.3,0.1-0.5c0.1-0.2,0.1-0.3,0.1-0.5c0-0.1,0-0.1,0-0.2s0-0.1-0.1-0.2
		c-0.1-0.2-0.2-0.4-0.2-0.6s0-0.4-0.1-0.6c0-0.4-0.1-0.6-0.3-0.8c-0.1-0.2-0.3-0.3-0.6-0.3c-0.2-0.1-0.5-0.1-0.7-0.2
		s-0.6-0.2-0.9-0.3c-0.1,0-0.2-0.1-0.2-0.2c-0.1-0.1-0.1-0.1-0.1-0.2s0.1-0.3,0.3-0.4s0.4-0.2,0.7-0.3c0.3-0.1,0.5-0.1,0.8-0.2
		s0.5-0.1,0.6-0.1c0.2,0,0.3,0,0.5,0.1c0.2,0,0.3,0.1,0.5,0.1c0.4,0,0.7,0,1-0.1s0.7-0.1,1-0.1c0.1,0,0.4,0,0.7,0.1
		c0.3,0,0.6,0.1,0.9,0.2c0.3,0.1,0.6,0.2,0.8,0.3c0.2,0.1,0.3,0.2,0.3,0.4c0,0.2-0.1,0.4-0.2,0.5c-0.1,0.2-0.3,0.3-0.6,0.5
		c-0.2,0.2-0.5,0.3-0.7,0.5c-0.3,0.2-0.5,0.3-0.7,0.5s-0.4,0.4-0.6,0.6c-0.1,0.2-0.2,0.5-0.2,0.8c0,0.2,0,0.3,0,0.5s0,0.3,0,0.5
		c0,0.3,0,0.7-0.1,1s-0.1,0.7-0.1,1s0.1,0.5,0.2,0.8s0.2,0.4,0.2,0.5s0,0.3-0.1,0.4c0,0.1-0.1,0.2-0.1,0.4c0,0.1,0,0.1,0,0.2
		s0,0.1,0,0.2s0,0.2-0.1,0.3s-0.1,0.2-0.2,0.2c-0.1,0.1-0.1,0.1-0.2,0.2c-0.1,0.1-0.1,0.1-0.1,0.2c0.1,0,0.1-0.1,0.2-0.1
		c0.1,0,0.1,0,0.2,0c0.1,0,0.1,0,0.2,0.1l0.1,0.1c0,0.1,0,0.1,0.1,0.2c0,0.1,0,0.1,0,0.2c0,0.2,0,0.4,0.1,0.6s0.1,0.4,0.1,0.6
		s0,0.4-0.1,0.6c0,0.2-0.1,0.4-0.1,0.6s0,0.4,0.1,0.5c0,0.2,0.2,0.3,0.4,0.4c0,0,0.1,0.1,0.1,0.2s0.1,0.2,0.2,0.3
		c0.1,0.1,0.1,0.2,0.2,0.3c0.1,0.1,0.1,0.2,0.2,0.2c0.1,0.1,0.3,0.2,0.4,0.2c0.2,0.1,0.3,0.1,0.5,0.2s0.3,0.1,0.5,0.2
		c0.1,0.1,0.3,0.2,0.4,0.3c0.1,0.1,0.2,0.2,0.4,0.2c0.2,0.1,0.3,0.1,0.5,0.2c0.1,0.1,0.3,0.2,0.4,0.3c0.1,0.1,0.2,0.2,0.2,0.3
		c0-0.1,0-0.2,0.1-0.3v0.1c0,0.1,0,0.1-0.1,0.2l0.1-0.1c0-0.1,0.1-0.1,0.1-0.2s0.1-0.1,0.1-0.2l0.1-0.1c0.1,0,0.1,0,0.2,0.1
		c0.1,0,0.1,0.1,0.1,0.2s0,0.2-0.1,0.2c0,0.1-0.1,0.2-0.1,0.2c0.1,0,0.2,0,0.3-0.1s0.2-0.1,0.3-0.1s0.2-0.1,0.2-0.2
		c0.1-0.1,0.1-0.2,0.1-0.3c0-0.1,0-0.2-0.1-0.2s-0.2,0-0.3,0s-0.2,0-0.3,0s-0.2,0-0.3,0l0,0c0.1-0.1,0.1-0.2,0.3-0.3
		c0.1-0.1,0.2-0.2,0.4-0.2c0.1-0.1,0.3-0.1,0.4-0.1c0.2,0,0.3-0.1,0.4-0.1c0.2-0.1,0.4-0.2,0.6-0.3c0.1-0.1,0.3-0.2,0.4-0.4
		c0.1-0.1,0.2-0.3,0.4-0.4c0.1-0.1,0.3-0.3,0.4-0.4c0-0.1,0-0.1,0-0.2s0-0.1,0-0.2c0-0.2,0-0.4,0-0.5c0-0.2,0-0.3,0-0.5
		s0-0.4,0.1-0.6s0.1-0.4,0.1-0.6s0-0.3-0.1-0.5s-0.1-0.3-0.1-0.5s0-0.3,0.1-0.4s0.1-0.3,0.1-0.4c0-0.2,0-0.5-0.1-0.7
		s-0.1-0.5-0.1-0.7c0-0.3,0-0.6,0.1-0.9s0.1-0.6,0.1-0.9c0-0.4,0-0.8-0.1-1.2c-0.1-0.4-0.1-0.8-0.1-1.2c0-0.1,0-0.1,0-0.2
		s0-0.2,0-0.3c0-0.1,0.1-0.2,0.1-0.3s0.1-0.1,0.2-0.1c-0.1,0-0.2-0.1-0.4-0.2s-0.3-0.2-0.4-0.3s-0.3-0.2-0.4-0.4s-0.2-0.2-0.2-0.3
		c-0.1,0-0.1,0-0.2,0s-0.1,0-0.2,0c-0.2,0-0.3,0-0.4-0.1c-0.1,0-0.3-0.1-0.4-0.1c-0.1,0-0.3-0.1-0.4-0.1c-0.1,0-0.3-0.1-0.5-0.1H526
		c0-0.2-0.1-0.4-0.2-0.6s-0.1-0.4-0.1-0.6s0.1-0.3,0.2-0.4s0.3-0.2,0.4-0.2c0.2-0.1,0.4-0.1,0.6-0.1c0.2,0,0.4,0,0.6,0
		c0.3,0,0.6,0,0.9,0s0.6,0,0.9,0c0.2,0,0.4,0,0.6-0.1c0.2-0.1,0.4-0.1,0.6-0.1c0.1,0,0.2,0,0.4,0.1s0.3,0.1,0.4,0.1
		c0.1,0.1,0.3,0.1,0.4,0.1c0.1,0,0.3,0.1,0.4,0.1c0.2,0,0.4,0,0.7,0s0.5,0,0.7,0s0.5,0,0.7,0.1c0.2,0,0.4,0.1,0.6,0.2
		c0.1,0.1,0.2,0.1,0.2,0.2C535.9,149.1,535.9,149.2,535.9,149.3z"/>
	<path class="st4" d="M559.3,164.4c0,0.1,0,0.2,0,0.3c0,0.1-0.1,0.2-0.2,0.3c-0.1,0-0.2,0.1-0.2,0.2s0,0.2,0,0.3c0,0.1,0,0.2,0,0.3
		c0,0.1-0.1,0.1-0.1,0.1c-0.1,0-0.1,0-0.1,0h-0.1c-0.1,0-0.1,0-0.2,0.1c-0.1,0-0.1,0.1-0.1,0.1s0,0.1,0.1,0.1l0.1,0.1
		c0,0-0.1,0.1-0.2,0.1c-0.2,0-0.4,0.1-0.6,0.1c-0.2,0-0.4,0.1-0.6,0.1c-0.2,0-0.3,0-0.4,0c-0.4,0-0.8-0.1-1.2-0.2s-0.8-0.2-1.2-0.3
		c-0.5-0.1-0.8-0.3-1-0.6c-0.2-0.3-0.4-0.6-0.5-0.9s-0.2-0.7-0.2-1c0-0.4-0.1-0.7-0.3-1c-0.1-0.1-0.1-0.2-0.1-0.3s0-0.2,0-0.2
		c0-0.1,0.1-0.1,0.1-0.1l0.1-0.1v-0.1c0-0.1,0-0.2-0.1-0.3c-0.1-0.1-0.1-0.2-0.1-0.4c0-0.1,0-0.2,0-0.3c0-0.1,0-0.2,0-0.3
		c0-0.3,0-0.6-0.1-0.8c-0.1-0.2-0.2-0.4-0.3-0.6s-0.3-0.3-0.4-0.5c-0.2-0.2-0.4-0.4-0.6-0.6c-0.1,0-0.2,0-0.3,0s-0.2,0-0.3,0
		c-0.2,0-0.4,0-0.7,0c-0.2,0-0.4,0-0.7,0c-0.2,0-0.5,0-0.7,0.1c-0.2,0-0.5,0.1-0.7,0.1s-0.3,0-0.5-0.1s-0.3-0.1-0.5-0.1
		s-0.4,0-0.6,0.1c-0.2,0.1-0.4,0.1-0.5,0.2c-0.2,0.1-0.3,0.2-0.4,0.3c-0.1,0.1-0.1,0.3-0.1,0.4v0.4c0,0.7-0.1,1.5-0.2,2.2
		c0,0.1,0,0.2-0.1,0.3c0,0.1,0,0.2,0,0.3c0,0.3,0.1,0.6,0.3,0.8c0.2,0.2,0.4,0.4,0.7,0.5s0.6,0.2,0.9,0.3s0.6,0.2,0.9,0.3
		c0.3,0.1,0.5,0.2,0.7,0.3c0.2,0.1,0.3,0.3,0.3,0.5c0,0.1,0,0.2-0.1,0.2c0,0.1-0.1,0.1-0.1,0.2c-0.1,0.2-0.3,0.3-0.4,0.4
		c-0.1,0.1-0.3,0.2-0.4,0.2s-0.3,0.1-0.5,0.1s-0.4,0.1-0.6,0.1c-0.2,0-0.4,0.1-0.6,0.1s-0.4,0-0.6,0c-0.3,0-0.6,0-0.9-0.1
		s-0.6-0.1-0.9-0.1c-0.2,0-0.5,0-0.7,0s-0.5,0.1-0.7,0.1s-0.5,0.1-0.7,0.1s-0.5,0-0.7,0s-0.3,0-0.5,0s-0.4-0.1-0.5-0.1
		c-0.2-0.1-0.3-0.1-0.4-0.2c-0.1-0.1-0.2-0.2-0.2-0.4c0-0.1,0-0.2,0.1-0.3s0.2-0.2,0.3-0.2c0.1-0.1,0.3-0.1,0.4-0.2
		c0.1,0,0.3-0.1,0.4-0.1c0.1,0,0.2,0,0.3,0s0.2,0,0.2,0c0.1,0,0.1,0,0.2-0.1s0.1-0.1,0.2-0.2c0.1,0,0.1-0.1,0.2-0.1s0.1,0,0.2,0
		c0.1,0,0.1,0,0.2,0c0.1,0,0.1,0,0.2,0c0.1,0,0.2,0,0.3-0.1c0.2-0.1,0.4-0.2,0.5-0.4c0.1-0.2,0.2-0.3,0.2-0.5s0.1-0.4,0.1-0.6
		s0-0.4,0.1-0.6s0.1-0.4,0.1-0.5c0-0.3,0-0.6-0.1-0.9s-0.1-0.6-0.1-0.9c0-0.4,0-0.7,0.1-1.1s0.1-0.7,0.1-1.1c0-0.1,0-0.2,0-0.3
		c0-0.1,0-0.2,0-0.3c0-0.6,0-1.2,0.1-1.8s0.1-1.2,0.1-1.8c0-0.2,0-0.3,0-0.5s0-0.3,0-0.5c0-0.1,0-0.3-0.1-0.5c0-0.2-0.1-0.4-0.1-0.6
		s-0.1-0.4-0.2-0.6c-0.1-0.2-0.2-0.4-0.3-0.6s-0.3-0.3-0.5-0.4s-0.4-0.2-0.7-0.2c-0.1,0-0.1,0-0.2,0c-0.1,0-0.1,0-0.2,0
		c-0.1,0-0.2,0-0.3-0.1s-0.1-0.1-0.2-0.2c0-0.1-0.1-0.2-0.1-0.3c0-0.1,0-0.2,0-0.2c0-0.3,0.1-0.5,0.3-0.6s0.4-0.2,0.7-0.3
		s0.6-0.1,0.9-0.1c0.3,0,0.6,0,0.9,0c0.3,0,0.6-0.1,0.9-0.1s0.6-0.1,0.9-0.1c0.4,0,0.9,0,1.3,0.1s0.8,0.1,1.3,0.1c0.4,0,0.7,0,1-0.1
		s0.7-0.1,1-0.2c0.2,0,0.3-0.1,0.4-0.1c0.4,0,0.9,0,1.3,0.1c0.4,0.1,0.8,0.1,1.3,0.2c0.3,0,0.6,0.1,0.9,0.1s0.6,0.2,0.9,0.3
		s0.5,0.3,0.7,0.4s0.3,0.4,0.4,0.6c0,0.1,0.1,0.3,0.2,0.4s0.3,0.2,0.4,0.4c0.1,0.1,0.3,0.2,0.4,0.3c0.1,0.1,0.2,0.2,0.2,0.2
		c0,0.1,0,0.1-0.1,0.1s-0.1,0.1-0.1,0.1s0,0.1,0.1,0.1c0.1,0.1,0.2,0.1,0.2,0.2c0.1,0.1,0.2,0.1,0.2,0.2c0.1,0.1,0.1,0.2,0.1,0.3
		c0,0.1-0.1,0.2-0.2,0.3c-0.1,0.1-0.2,0.2-0.2,0.3l0,0l0.2-0.1l0,0c0,0.1,0.1,0.3,0.1,0.4s0,0.3,0,0.4c0,0.2,0,0.3,0,0.5
		s0,0.4-0.1,0.6c0,0.2-0.1,0.4-0.2,0.5c-0.1,0.2-0.2,0.3-0.4,0.4c-0.1,0.1-0.2,0.1-0.3,0.1s-0.2,0.1-0.3,0.1s-0.2,0.1-0.3,0.1
		s-0.1,0.1-0.2,0.2c-0.1,0.1-0.1,0.3-0.3,0.4c-0.1,0.1-0.3,0.3-0.4,0.4s-0.3,0.2-0.4,0.4s-0.2,0.3-0.2,0.4c0,0.2,0.1,0.5,0.2,0.7
		c0.1,0.2,0.3,0.4,0.4,0.6c0.1,0.2,0.2,0.5,0.3,0.7s0.1,0.5,0.1,0.7s0,0.5,0.1,0.7c0,0.2,0,0.5,0.1,0.7c0,0.1,0.1,0.3,0.2,0.5
		s0.2,0.5,0.3,0.7s0.3,0.4,0.4,0.6c0.2,0.2,0.3,0.3,0.5,0.3c0.1,0,0.3-0.1,0.3-0.2c0.1-0.1,0.2-0.3,0.3-0.4c0.1-0.2,0.2-0.3,0.3-0.4
		s0.2-0.2,0.4-0.3c0.3,0,0.6,0.1,0.9,0.2c0.2,0.1,0.4,0.2,0.5,0.3s0.2,0.3,0.3,0.5S559.3,164.2,559.3,164.4z M554.4,152.8
		c0-0.1,0-0.3-0.1-0.4c-0.1-0.2-0.1-0.3-0.2-0.5c-0.1-0.2-0.2-0.3-0.3-0.5s-0.2-0.3-0.3-0.4c-0.2,0-0.4,0-0.5,0s-0.1-0.1-0.1-0.1
		s0-0.1-0.1-0.1c0-0.1-0.1-0.1-0.2-0.2c-0.4-0.1-0.7-0.3-1-0.3c-0.3-0.1-0.7-0.1-1.1-0.1c-0.1,0-0.2,0-0.4,0.1s-0.2,0.1-0.3,0.1
		c-0.3,0-0.5,0-0.7-0.1s-0.5-0.1-0.7-0.1c-0.4,0-0.7,0-1.1,0.1c-0.3,0.1-0.5,0.1-0.8,0.1s-0.5,0.1-0.7,0.2s-0.4,0.2-0.5,0.3
		c-0.1,0.1-0.2,0.3-0.2,0.6c0,0.3,0,0.5,0.1,0.8s0.1,0.5,0.1,0.8c0,0.1,0,0.2-0.1,0.4c0,0.1-0.1,0.2-0.2,0.3
		c-0.1,0.1-0.1,0.2-0.2,0.3s-0.1,0.2-0.1,0.4c0,0.2,0,0.3,0.1,0.5c0,0.2,0.1,0.3,0.2,0.4c0.1,0.1,0.2,0.2,0.4,0.3
		c0.2,0.1,0.4,0.1,0.6,0.1c0.2,0,0.5,0,0.7-0.1s0.4-0.1,0.7-0.1c0.1,0,0.2,0,0.3,0.1c0.1,0,0.2,0.1,0.3,0.1c0.1,0.1,0.2,0.1,0.3,0.1
		s0.3,0.1,0.4,0.1c0.1,0,0.2,0,0.3,0s0.2,0,0.3-0.1c0.4-0.1,0.9-0.3,1.3-0.4c0.5-0.1,0.9-0.2,1.4-0.2c0.1,0,0.3-0.1,0.4-0.2
		c0.2-0.1,0.3-0.2,0.5-0.4s0.4-0.3,0.5-0.5c0.2-0.2,0.3-0.4,0.5-0.6c0.1-0.2,0.2-0.4,0.3-0.5S554.4,152.9,554.4,152.8z"/>
	<path class="st4" d="M591.9,160.1c0,0.4,0,0.9-0.1,1.3s-0.1,0.8-0.2,1.3c-0.1-0.1-0.2-0.1-0.3-0.1s-0.2-0.1-0.3-0.1s-0.2,0-0.3,0.1
		s-0.2,0.1-0.2,0.2s0.1,0.2,0.2,0.2c0.1,0,0.3,0.1,0.4,0.1c0.1,0,0.2,0,0.2,0c0,0.1,0,0.2-0.1,0.3s-0.2,0.2-0.3,0.3
		c-0.1,0.1-0.2,0.2-0.3,0.3c-0.1,0.1-0.2,0.2-0.3,0.2c-0.1,0.1-0.1,0.1-0.2,0.2c-0.1,0.1-0.2,0.2-0.3,0.3c-0.1,0.1-0.2,0.2-0.3,0.2
		c-0.1,0.1-0.2,0.1-0.3,0.1s-0.2,0-0.3-0.1c-0.1,0-0.1-0.1-0.2-0.1c-0.1,0-0.2,0-0.2,0.1s0,0.2,0,0.3v0.2c0,0-0.1,0.1-0.3,0.2
		s-0.5,0.1-0.8,0.2s-0.7,0.2-1,0.2s-0.6,0.2-0.9,0.2c-0.5,0.1-0.9,0.3-1.4,0.4s-0.9,0.1-1.4,0.1c-0.4,0-0.7,0-1.1-0.1
		s-0.7-0.2-1-0.2s-0.7-0.2-1-0.2s-0.7-0.1-1.1-0.1c-0.1,0-0.3,0-0.6,0.1c-0.2,0-0.4,0.1-0.5,0.2c-0.1,0-0.1,0.1-0.2,0.2
		c-0.1,0.1-0.1,0.1-0.2,0.1c-0.1,0-0.1,0-0.2-0.1c-0.1,0-0.2-0.1-0.2-0.1c-0.3-0.1-0.5-0.2-0.6-0.4c-0.2-0.2-0.3-0.3-0.4-0.5
		s-0.2-0.4-0.3-0.6s-0.1-0.4-0.1-0.6c0-0.1,0-0.3,0.1-0.4c0-0.1,0.1-0.3,0.1-0.4c0-0.2,0-0.4-0.1-0.6s-0.1-0.4-0.1-0.6
		c0-0.1,0-0.3,0.1-0.4s0.1-0.3,0.1-0.4s0-0.2-0.1-0.3c-0.1-0.1-0.1-0.2-0.1-0.3c0-0.1,0-0.1,0.1-0.2s0.1-0.1,0.1-0.2s0-0.2,0-0.3
		c0-0.1,0-0.2,0-0.3c0-0.1,0-0.1,0-0.2s0-0.2,0-0.3s0.1-0.2,0.1-0.2c0.1-0.1,0.1-0.1,0.2-0.1c0.2,0,0.4,0.1,0.6,0.3s0.4,0.4,0.6,0.7
		s0.3,0.5,0.4,0.8c0.1,0.3,0.2,0.4,0.2,0.6c0,0,0,0.1-0.1,0.1c0,0-0.1,0.1-0.2,0.1c0,0.1,0.1,0.1,0.1,0.3s0.1,0.2,0.1,0.3
		c0,0.1,0,0.2-0.1,0.3c0,0.1-0.1,0.2-0.1,0.3c0,0.1,0,0.2,0.1,0.2c0,0.1,0.1,0.1,0.2,0.2c0.1,0.1,0.2,0.2,0.2,0.2
		c0.1,0.1,0.1,0.1,0.2,0.1s0.2,0,0.3,0s0.2,0,0.4,0c0.2,0.2,0.5,0.5,0.7,0.7c0.3,0.2,0.6,0.4,0.9,0.6c0.5,0.1,1,0.2,1.5,0.2
		c0.5,0.1,1,0.1,1.5,0.1c0.4,0,0.8,0,1.1-0.1s0.6-0.2,0.8-0.3s0.5-0.2,0.8-0.4c0.2-0.1,0.5-0.3,0.8-0.4c0.2-0.1,0.4-0.2,0.6-0.3
		c0.2-0.1,0.4-0.2,0.6-0.3c0.2-0.1,0.4-0.2,0.6-0.3s0.3-0.3,0.4-0.4c0.1-0.1,0.2-0.2,0.3-0.3c0.1-0.1,0.2-0.2,0.2-0.3
		c0-0.1,0-0.1,0-0.1c0-0.3-0.1-0.5-0.1-0.8s0-0.5-0.1-0.8c0-0.3-0.1-0.4-0.2-0.6c-0.1-0.1-0.3-0.2-0.5-0.3c-0.2-0.1-0.4-0.2-0.6-0.3
		c-0.2-0.1-0.4-0.2-0.6-0.4c-0.2-0.2-0.4-0.3-0.7-0.3s-0.5-0.1-0.8-0.1s-0.6,0-0.8,0s-0.5-0.1-0.8-0.2c-0.1,0-0.1-0.1-0.2-0.1
		c-0.1,0-0.2,0-0.3,0.1c-0.1,0-0.2,0.1-0.3,0.1c-0.2,0-0.3,0-0.5-0.1c-0.2,0-0.3-0.1-0.5-0.1s-0.3-0.1-0.5-0.1s-0.3-0.1-0.5-0.1
		s-0.4,0-0.5-0.1s-0.3,0-0.4,0c-0.1,0-0.2-0.1-0.4-0.1s-0.3-0.1-0.5-0.2c-0.6-0.3-1.2-0.5-1.8-0.6c-0.1-0.2-0.3-0.5-0.5-0.7
		c-0.1-0.1-0.2-0.1-0.4-0.2s-0.2-0.1-0.3-0.2s-0.2-0.2-0.3-0.4c-0.1-0.2-0.2-0.4-0.3-0.7s-0.2-0.5-0.3-0.7s-0.1-0.4-0.1-0.5
		c0-0.2,0-0.4,0.1-0.6s0.2-0.3,0.4-0.5c0,0,0.1,0,0.1-0.1l0.1-0.1c0,0,0-0.1-0.1-0.1s-0.1-0.1-0.1-0.1l0,0c0,0,0,0,0-0.1
		c0.1-0.2,0.2-0.4,0.3-0.5c0.2-0.2,0.3-0.3,0.5-0.5s0.4-0.3,0.6-0.4c0.2-0.1,0.4-0.3,0.6-0.4c0.1-0.1,0.3-0.2,0.4-0.3
		s0.2-0.2,0.3-0.3c0.1,0,0.2,0,0.2,0c0.1,0,0.2,0,0.2,0c0.1,0,0.2,0,0.2,0c0.1,0,0.2,0,0.2,0c0.1,0,0.2-0.1,0.2-0.1l0.1-0.1
		c0,0,0.1-0.1,0.2-0.1c0.1,0,0.2,0,0.4,0c0.1,0,0.2,0,0.4,0c0.1,0,0.2,0,0.4,0c0.4,0,0.8,0,1.3,0s0.8,0,1.3,0c0.3,0,0.6,0,0.9,0
		s0.6,0,0.9,0.1c0.2,0,0.4,0,0.6,0.1s0.4,0.1,0.6,0.1c0.2,0,0.3,0,0.4-0.1s0.1-0.1,0.2-0.2c0-0.1,0.1-0.1,0.2-0.2s0.2-0.1,0.3-0.1
		c0.2,0,0.5,0,0.7,0.1s0.5,0.2,0.7,0.2v0.1c0,0.1,0,0.2,0,0.3c0,0.1,0,0.3,0.1,0.4s0.1,0.3,0.2,0.4s0.1,0.3,0.2,0.4
		c0.1,0.1,0.1,0.3,0.1,0.4s0,0.2,0,0.3c0,0.1,0,0.2,0,0.3c0,0.2,0,0.3,0.1,0.4s0.1,0.1,0.1,0.2s0,0.1-0.1,0.2s-0.1,0.1-0.1,0.2
		c0,0.2,0,0.4,0,0.7c0,0.2,0,0.4,0,0.7c0,0.1,0,0.2,0,0.3c0,0.2,0,0.3-0.1,0.5c0,0.1-0.1,0.3-0.2,0.4c-0.1,0.1-0.2,0.2-0.4,0.2
		s-0.3,0-0.5-0.1s-0.3-0.2-0.4-0.3c-0.1-0.1-0.2-0.2-0.3-0.4c-0.1-0.1-0.1-0.3-0.2-0.4c0-0.2-0.1-0.3-0.1-0.5
		c-0.1-0.1-0.1-0.3-0.2-0.4c-0.2-0.2-0.3-0.4-0.5-0.6s-0.3-0.4-0.5-0.6c-0.1-0.2-0.2-0.3-0.3-0.3c-0.1-0.1-0.2-0.1-0.3-0.1
		s-0.2,0-0.3,0s-0.3,0-0.5,0s-0.4-0.1-0.6-0.1c-0.2-0.1-0.4-0.1-0.6-0.1c-0.2,0-0.4-0.1-0.6-0.1s-0.4-0.1-0.6-0.1
		c-0.3,0-0.6,0-1,0.1c-0.3,0.1-0.7,0.2-1,0.3c-0.3,0.1-0.7,0.2-1,0.4s-0.6,0.2-0.9,0.3c-0.3,0.4-0.4,0.9-0.4,1.4
		c0,0.4,0.1,0.7,0.2,0.9c0.1,0.2,0.3,0.4,0.5,0.6s0.4,0.3,0.7,0.4c0.2,0.1,0.5,0.3,0.8,0.4s0.6,0.2,0.9,0.3c0.3,0,0.6,0.1,0.9,0.1
		c0.2,0,0.4,0,0.6,0c0.2,0,0.4,0,0.6,0c0.2,0,0.4,0,0.6,0.1c0.2,0,0.4,0.1,0.6,0.1c0.2,0.1,0.4,0.1,0.6,0.1c0.2,0,0.4,0.1,0.6,0.1
		c0.2,0,0.4,0,0.5,0s0.3,0,0.5,0s0.3,0,0.4,0.1c0.1,0.1,0.2,0.1,0.4,0.2s0.2,0.1,0.4,0.2c0.1,0.1,0.3,0.1,0.4,0.1
		c0.2,0.1,0.4,0.2,0.5,0.2c0.1,0.1,0.3,0.1,0.4,0.2c0.1,0.1,0.2,0.2,0.3,0.3c0.1,0.1,0.2,0.2,0.4,0.4c0.1,0.2,0.3,0.3,0.5,0.4
		s0.4,0.3,0.5,0.4c0,0.1,0.1,0.1,0.1,0.2s0,0.2,0,0.2c0,0.1,0.1,0.1,0.1,0.2s0.1,0.1,0.2,0.1c0,0.1,0,0.2,0,0.3
		C591.9,159.9,591.9,160,591.9,160.1z"/>
	<path class="st4" d="M614.7,157.9c0,0.2,0,0.3-0.1,0.5s-0.1,0.3-0.1,0.5s-0.1,0.3-0.1,0.5s-0.1,0.3-0.1,0.5c0,0.1,0,0.1,0,0.2
		s0,0.1,0,0.2c0,0.2,0,0.3-0.1,0.5s-0.2,0.3-0.3,0.4s-0.1,0.3-0.2,0.4s0,0.3,0,0.4s0,0.3-0.1,0.4c0,0.1-0.1,0.3-0.2,0.4
		c0,0.1-0.1,0.2-0.1,0.4c0,0.2-0.1,0.3-0.1,0.3s0,0-0.1,0s-0.1,0-0.2,0c-0.1,0-0.1,0-0.2,0.1c-0.1,0-0.1,0.1-0.2,0.1
		c-0.1,0-0.1,0.1-0.1,0.2s-0.1,0.2-0.1,0.2c0,0.1-0.1,0.1-0.2,0.2c-0.1,0.1-0.1,0.1-0.2,0.1s-0.2,0-0.3,0s-0.2-0.1-0.2-0.1
		c-0.1,0-0.2-0.1-0.2-0.1c-0.1,0-0.2,0-0.3,0v0.1c0,0.1,0,0.1,0,0.2s0.1,0.1,0.1,0.2c0.1,0.1,0.2,0.1,0.4,0.1c0.1,0,0.2,0,0.3,0
		s0.2,0,0.3,0c-0.1,0.2-0.2,0.3-0.3,0.4s-0.3,0.2-0.4,0.3s-0.3,0.2-0.5,0.2s-0.3,0.2-0.5,0.3c-0.2,0.1-0.4,0.2-0.5,0.3
		c-0.2,0-0.4,0.1-0.6,0.1c-0.3,0.1-0.5,0.1-0.6,0.2s-0.2,0.2-0.4,0.2s-0.3,0.1-0.5,0.2s-0.6,0.1-1.1,0.1c-0.4,0-0.9,0-1.3,0
		s-0.9-0.1-1.3-0.1c-0.2,0-0.4,0-0.5-0.1c-0.1,0-0.2-0.1-0.4-0.1c-0.1,0-0.2-0.1-0.3-0.1c-0.1-0.1-0.2-0.1-0.4-0.2
		c-0.1,0-0.2-0.1-0.3-0.1s-0.2-0.1-0.4-0.1c-0.1,0-0.3-0.1-0.4-0.1s-0.2-0.1-0.3-0.1c-0.1-0.1-0.1-0.1-0.2-0.2s-0.1-0.1-0.1-0.2
		s0-0.1-0.1-0.2s-0.1-0.1-0.2-0.2c-0.2,0-0.3,0-0.5-0.1s-0.3-0.1-0.5-0.1c0-0.1-0.1-0.2-0.1-0.3c0-0.1-0.1-0.2-0.1-0.3
		c-0.1-0.1-0.3-0.2-0.4-0.3s-0.2-0.2-0.3-0.2s-0.2-0.2-0.3-0.3s-0.1-0.3-0.1-0.4c0-0.2-0.1-0.4-0.2-0.6c-0.1-0.2-0.2-0.4-0.3-0.6
		s-0.2-0.4-0.3-0.6s-0.1-0.4-0.1-0.6s0.1-0.5,0.2-0.7c-0.3-0.3-0.5-0.7-0.6-1.1s-0.1-0.8-0.1-1.2c0-0.1,0-0.3,0-0.4s0-0.3,0-0.4
		s0-0.3-0.1-0.3c-0.1-0.1-0.1-0.2-0.1-0.3c0-0.2,0-0.4,0.1-0.5s0.1-0.4,0.1-0.5c-0.1,0-0.2-0.1-0.3-0.1v-0.1
		c0.1-0.1,0.1-0.2,0.2-0.3c0-0.1,0.1-0.2,0.1-0.2c0-0.1,0-0.2,0.1-0.2c0-0.1,0-0.2,0.1-0.3c0.1-0.3,0.2-0.7,0.3-1s0.3-0.7,0.4-1
		c0.1-0.4,0.3-0.7,0.5-1s0.5-0.6,1-0.8c0.2-0.1,0.4-0.2,0.5-0.4s0.3-0.3,0.3-0.5c0.1,0,0.1-0.1,0.2-0.1c0.1,0,0.1,0,0.2,0h0.1
		c0.1,0,0.2,0,0.2,0s0.1,0,0.2-0.1c0.2-0.1,0.3-0.2,0.4-0.3c0.1-0.1,0.3-0.1,0.5-0.1s0.3,0,0.4,0c0.1,0,0.3,0,0.4,0.1
		c0.1,0,0.1-0.1,0.2-0.2c0.1-0.1,0.2-0.1,0.3-0.1l0,0v0.1h0.1c0.1,0,0.3,0,0.4-0.1c0.1-0.1,0.3-0.1,0.4-0.1c0.3,0,0.6-0.1,1-0.2
		c0.3-0.1,0.6-0.1,1-0.1s0.7,0,1.1,0.1s0.8,0.1,1.2,0.2s0.7,0.2,1.1,0.4c0.3,0.2,0.6,0.4,0.8,0.6c0.1,0.1,0.2,0.2,0.3,0.3
		c0.1,0.1,0.2,0.1,0.3,0.2c0.1,0,0.2,0.1,0.3,0.1s0.2,0.1,0.3,0.2c0.2,0.2,0.4,0.4,0.5,0.6s0.3,0.4,0.5,0.6c0.3,0.2,0.5,0.4,0.6,0.7
		s0.2,0.6,0.2,0.9c0,0.1,0,0.2,0,0.3c0,0.1,0,0.2,0,0.3c0,0.1,0,0.2,0.1,0.3s0.1,0.2,0.2,0.3c0.1,0.1,0.1,0.2,0.2,0.3
		c0.1,0.1,0.1,0.2,0.1,0.3c0,0.2,0.1,0.4,0.1,0.7s0.1,0.4,0.2,0.7c0.1,0.3,0.2,0.6,0.2,0.9C614.7,157.3,614.7,157.6,614.7,157.9z
		 M612,157.8c0-0.5-0.1-0.9-0.2-1.4c-0.1-0.5-0.2-0.9-0.3-1.4c0-0.2-0.1-0.3-0.2-0.5c-0.1-0.2-0.2-0.3-0.2-0.5
		c-0.1-0.3-0.3-0.6-0.4-0.9c-0.1-0.3-0.2-0.6-0.4-0.9c-0.1-0.2-0.2-0.3-0.5-0.5c-0.2-0.1-0.5-0.3-0.8-0.4s-0.6-0.2-1-0.2
		c-0.4-0.1-0.7-0.1-1-0.2c-0.3,0-0.6-0.1-0.9-0.1s-0.5,0-0.6,0h0.2h-0.2c-0.2,0-0.5,0-0.7,0s-0.5,0-0.7,0s-0.4,0-0.6,0
		c-0.2,0-0.4,0.1-0.5,0.2c-0.4,0.2-0.7,0.4-1,0.6s-0.6,0.4-0.8,0.8c-0.1,0.1-0.1,0.2-0.2,0.2c-0.1,0-0.2,0.1-0.2,0.1
		c-0.1,0-0.1,0.1-0.2,0.2c-0.1,0.1-0.1,0.2-0.1,0.3c-0.1,0.2-0.1,0.5-0.2,0.7c-0.1,0.2-0.1,0.5-0.1,0.7c0,0.3,0,0.5-0.1,0.8
		s-0.2,0.5-0.3,0.8c0,0.1-0.1,0.1-0.1,0.2s0,0.1,0,0.2s0,0.2,0.1,0.3c0.1,0.1,0.1,0.2,0.1,0.2v0.1h-0.1c0,0-0.1,0-0.1,0.1
		c0,0,0,0.1,0,0.2c0,0.2,0,0.5,0,0.7c0,0.3,0,0.5,0.1,0.7c0,0.1,0.1,0.3,0.2,0.4s0.1,0.3,0.1,0.4s0,0.2-0.1,0.3s-0.1,0.2-0.1,0.3
		c0,0.1,0,0.2,0.1,0.3c0.1,0.1,0.2,0.2,0.3,0.2c0.1,0.1,0.1,0.2,0.2,0.3c0,0.1,0.1,0.2,0.1,0.3c0,0.1,0.1,0.2,0.1,0.2
		c0,0.1,0.1,0.1,0.1,0.1h0.1h0.1c0.2,0,0.4,0.1,0.5,0.2s0.2,0.3,0.2,0.4s0,0.2,0.1,0.3s0.2,0.2,0.3,0.2c0.1,0.1,0.2,0.1,0.4,0.2
		s0.2,0.1,0.3,0.2s0.3,0.2,0.3,0.3c0.1,0,0.2,0.1,0.2,0.1s0.1,0,0.2,0c0.1,0,0.1,0,0.2,0.1c0.1,0.1,0.2,0.1,0.4,0.2
		c0.1,0.1,0.3,0.2,0.4,0.2c0.3,0.2,0.7,0.3,1.2,0.3c0.4,0,0.8,0.1,1.3,0.1c0.2,0,0.3,0,0.5-0.1c0.1-0.1,0.3-0.1,0.4-0.2
		s0.3-0.1,0.4-0.2s0.3-0.1,0.5-0.1c0.1,0,0.3,0,0.4,0.1c0.3-0.3,0.5-0.5,0.7-0.7s0.4-0.4,0.6-0.5s0.3-0.4,0.5-0.6
		c0.1-0.2,0.2-0.5,0.3-0.9c0-0.2,0.1-0.3,0.2-0.4c0.1-0.1,0.2-0.3,0.2-0.4c0.1-0.3,0.1-0.7,0.1-1s0-0.7,0.1-1c0-0.1,0-0.3,0-0.4
		S612,158,612,157.8z"/>
	<path class="st4" d="M638.7,149.3c0,0.1,0,0.2-0.1,0.3s-0.2,0.1-0.4,0.2s-0.3,0.1-0.4,0.1c-0.1,0-0.3,0.1-0.4,0.1
		c-0.1,0-0.2,0.1-0.2,0.1c-0.1,0-0.1,0.1-0.2,0.1c-0.1,0-0.1,0.1-0.2,0.1c-0.1,0-0.2,0.1-0.3,0.1s-0.3,0-0.4,0c-0.1,0-0.2,0-0.3,0
		s-0.2,0-0.3,0.1s-0.2,0.1-0.2,0.3c-0.1,0.1-0.1,0.2-0.1,0.4c0,0.1-0.1,0.3-0.1,0.4c-0.1,0.1-0.1,0.2-0.2,0.3
		c-0.1,0.1-0.3,0.1-0.5,0.1c0,0.1,0,0.2,0.1,0.3s0.2,0.2,0.3,0.3c0.1,0.1,0.2,0.2,0.3,0.3c0.1,0.1,0.1,0.2,0.1,0.3
		c0,0.1,0,0.2-0.1,0.3c-0.1,0.1-0.1,0.2-0.1,0.3v0.8c0,0.2,0,0.3,0.1,0.5s0.1,0.3,0.1,0.5c0,0.1,0,0.2-0.1,0.3
		c-0.1,0.1-0.1,0.2-0.1,0.3c0,0.4,0,0.7,0.1,1.1s0.1,0.7,0.1,1.1c0,0.2,0,0.5-0.1,0.8s-0.2,0.5-0.4,0.7c0,0.1,0,0.2,0.1,0.3
		c0.1,0.1,0.1,0.2,0.2,0.3c0.1,0.1,0.1,0.2,0.2,0.3c0,0.1,0.1,0.2,0.1,0.4c0,0.2,0,0.4-0.1,0.6c0,0.2-0.1,0.5-0.2,0.7
		c-0.1,0.2-0.2,0.4-0.4,0.6s-0.4,0.3-0.7,0.3c0,0,0,0-0.1,0s0,0-0.1,0v0.1l0,0c0,0.1,0,0.2,0.1,0.3s0.1,0.2,0.1,0.3
		c0,0.1,0,0.1-0.1,0.2s-0.2,0.2-0.3,0.3c-0.1,0.1-0.3,0.2-0.4,0.3c-0.1,0.1-0.3,0.2-0.3,0.2c-0.1,0.1-0.2,0.2-0.2,0.2
		c0,0.1-0.1,0.1-0.2,0.2c0,0.1-0.1,0.1-0.2,0.1s-0.2,0.1-0.4,0.1c-0.3,0-0.5,0.1-0.8,0.2s-0.4,0.2-0.6,0.3c-0.2,0.1-0.4,0.2-0.7,0.2
		c-0.2,0.1-0.5,0.1-0.9,0.1c-0.2,0-0.4,0-0.5-0.1c-0.2,0-0.4-0.1-0.5-0.1c-0.2,0-0.4-0.1-0.5-0.1s-0.4-0.1-0.5-0.1s-0.3,0-0.4,0
		c-0.1,0-0.3,0-0.4,0c-0.1,0-0.2,0-0.3,0s-0.1,0-0.2-0.1c-0.1-0.1-0.1-0.1-0.3-0.1c-0.1,0-0.2-0.1-0.4-0.1s-0.3-0.1-0.4-0.1
		c-0.1,0-0.2-0.1-0.3-0.1c-0.2,0-0.4-0.1-0.6-0.3c-0.2-0.1-0.3-0.3-0.5-0.4c-0.1-0.2-0.3-0.3-0.4-0.5s-0.2-0.3-0.3-0.5
		c-0.1-0.3-0.2-0.6-0.3-0.9s-0.1-0.6-0.1-0.9s-0.1-0.6-0.1-0.9s-0.1-0.6-0.2-0.9c0-0.1-0.1-0.2-0.1-0.4c0-0.1-0.1-0.2-0.1-0.4
		c0-0.1,0-0.2,0-0.3c0-0.1,0-0.2,0.1-0.3c0.1-0.4,0.2-0.7,0.2-1.1s0.1-0.7,0.1-1.1c0-0.5,0-1-0.1-1.4c-0.1-0.5-0.1-1-0.1-1.4
		c0-0.1,0-0.2,0-0.3s0-0.2,0-0.3c0-0.2,0.1-0.3,0.1-0.5c0.1-0.2,0.1-0.3,0.1-0.5c0-0.1,0-0.1,0-0.2s0-0.1-0.1-0.2
		c-0.1-0.2-0.2-0.4-0.2-0.6s0-0.4-0.1-0.6c0-0.4-0.1-0.6-0.3-0.8c-0.1-0.2-0.3-0.3-0.6-0.3c-0.2-0.1-0.5-0.1-0.7-0.2
		s-0.6-0.2-0.9-0.3c-0.1,0-0.2-0.1-0.2-0.2c-0.1-0.1-0.1-0.1-0.1-0.2s0.1-0.3,0.3-0.4s0.4-0.2,0.7-0.3c0.3-0.1,0.5-0.1,0.8-0.2
		s0.5-0.1,0.6-0.1c0.2,0,0.3,0,0.5,0.1c0.2,0,0.3,0.1,0.5,0.1c0.4,0,0.7,0,1-0.1s0.7-0.1,1-0.1c0.1,0,0.4,0,0.7,0.1
		c0.3,0,0.6,0.1,0.9,0.2c0.3,0.1,0.6,0.2,0.8,0.3c0.2,0.1,0.3,0.2,0.3,0.4c0,0.2-0.1,0.4-0.2,0.5c-0.1,0.2-0.3,0.3-0.6,0.5
		c-0.2,0.2-0.5,0.3-0.7,0.5c-0.3,0.2-0.5,0.3-0.7,0.5s-0.4,0.4-0.6,0.6c-0.1,0.2-0.2,0.5-0.2,0.8c0,0.2,0,0.3,0,0.5s0,0.3,0,0.5
		c0,0.3,0,0.7-0.1,1s-0.1,0.7-0.1,1s0.1,0.5,0.2,0.8s0.2,0.4,0.2,0.5s0,0.3-0.1,0.4c0,0.1-0.1,0.2-0.1,0.4c0,0.1,0,0.1,0,0.2
		s0,0.1,0,0.2s0,0.2-0.1,0.3s-0.1,0.2-0.2,0.2c-0.1,0.1-0.1,0.1-0.2,0.2c-0.1,0.1-0.1,0.1-0.1,0.2c0.1,0,0.1-0.1,0.2-0.1
		c0.1,0,0.1,0,0.2,0c0.1,0,0.1,0,0.2,0.1l0.1,0.1c0,0.1,0,0.1,0.1,0.2c0,0.1,0,0.1,0,0.2c0,0.2,0,0.4,0.1,0.6s0.1,0.4,0.1,0.6
		s0,0.4-0.1,0.6c0,0.2-0.1,0.4-0.1,0.6s0,0.4,0.1,0.5c0,0.2,0.2,0.3,0.4,0.4c0,0,0.1,0.1,0.1,0.2s0.1,0.2,0.2,0.3
		c0.1,0.1,0.1,0.2,0.2,0.3c0.1,0.1,0.1,0.2,0.2,0.2c0.1,0.1,0.3,0.2,0.4,0.2c0.2,0.1,0.3,0.1,0.5,0.2s0.3,0.1,0.5,0.2
		c0.1,0.1,0.3,0.2,0.4,0.3c0.1,0.1,0.2,0.2,0.4,0.2c0.2,0.1,0.3,0.1,0.5,0.2c0.1,0.1,0.3,0.2,0.4,0.3c0.1,0.1,0.2,0.2,0.2,0.3
		c0-0.1,0-0.2,0.1-0.3v0.1c0,0.1,0,0.1-0.1,0.2l0.1-0.1c0-0.1,0.1-0.1,0.1-0.2s0.1-0.1,0.1-0.2l0.1-0.1c0.1,0,0.1,0,0.2,0.1
		c0.1,0,0.1,0.1,0.1,0.2s0,0.2-0.1,0.2c0,0.1-0.1,0.2-0.1,0.2c0.1,0,0.2,0,0.3-0.1s0.2-0.1,0.3-0.1s0.2-0.1,0.2-0.2
		c0.1-0.1,0.1-0.2,0.1-0.3c0-0.1,0-0.2-0.1-0.2s-0.2,0-0.3,0s-0.2,0-0.3,0s-0.2,0-0.3,0l0,0c0.1-0.1,0.1-0.2,0.3-0.3
		c0.1-0.1,0.2-0.2,0.4-0.2c0.1-0.1,0.3-0.1,0.4-0.1c0.2,0,0.3-0.1,0.4-0.1c0.2-0.1,0.4-0.2,0.6-0.3c0.1-0.1,0.3-0.2,0.4-0.4
		c0.1-0.1,0.2-0.3,0.4-0.4c0.1-0.1,0.3-0.3,0.4-0.4c0-0.1,0-0.1,0-0.2s0-0.1,0-0.2c0-0.2,0-0.4,0-0.5c0-0.2,0-0.3,0-0.5
		s0-0.4,0.1-0.6s0.1-0.4,0.1-0.6s0-0.3-0.1-0.5s-0.1-0.3-0.1-0.5s0-0.3,0.1-0.4s0.1-0.3,0.1-0.4c0-0.2,0-0.5-0.1-0.7
		s-0.1-0.5-0.1-0.7c0-0.3,0-0.6,0.1-0.9s0.1-0.6,0.1-0.9c0-0.4,0-0.8-0.1-1.2c-0.1-0.4-0.1-0.8-0.1-1.2c0-0.1,0-0.1,0-0.2
		s0-0.2,0-0.3c0-0.1,0.1-0.2,0.1-0.3s0.1-0.1,0.2-0.1c-0.1,0-0.2-0.1-0.4-0.2s-0.3-0.2-0.4-0.3s-0.3-0.2-0.4-0.4s-0.2-0.2-0.2-0.3
		c-0.1,0-0.1,0-0.2,0s-0.1,0-0.2,0c-0.2,0-0.3,0-0.4-0.1c-0.1,0-0.3-0.1-0.4-0.1c-0.1,0-0.3-0.1-0.4-0.1c-0.1,0-0.3-0.1-0.5-0.1
		h-0.1c0-0.2-0.1-0.4-0.2-0.6s-0.1-0.4-0.1-0.6s0.1-0.3,0.2-0.4s0.3-0.2,0.4-0.2c0.2-0.1,0.4-0.1,0.6-0.1c0.2,0,0.4,0,0.6,0
		c0.3,0,0.6,0,0.9,0s0.6,0,0.9,0c0.2,0,0.4,0,0.6-0.1c0.2-0.1,0.4-0.1,0.6-0.1c0.1,0,0.2,0,0.4,0.1s0.3,0.1,0.4,0.1
		c0.1,0.1,0.3,0.1,0.4,0.1c0.1,0,0.3,0.1,0.4,0.1c0.2,0,0.4,0,0.7,0s0.5,0,0.7,0s0.5,0,0.7,0.1c0.2,0,0.4,0.1,0.6,0.2
		c0.1,0.1,0.2,0.1,0.2,0.2C638.7,149.1,638.7,149.2,638.7,149.3z"/>
	<path class="st4" d="M660.7,162.9c0,0.1,0,0.2-0.1,0.3c-0.1,0.1-0.1,0.2-0.1,0.3c0,0.1,0,0.2,0.1,0.2c0,0.1,0.1,0.2,0.1,0.2
		c0,0.1,0,0.2,0,0.3s-0.1,0.3-0.1,0.5s-0.1,0.3-0.2,0.4c-0.1,0.1-0.1,0.2-0.1,0.3h-0.5c0,0.2-0.1,0.4-0.2,0.5
		c-0.4,0.2-0.8,0.2-1.1,0.3c-0.3,0-0.6,0.1-1,0.1c-0.2,0-0.3,0-0.5,0s-0.4,0-0.6,0c-0.4,0-0.7,0-1,0s-0.6,0.1-0.9,0.3
		c-0.1,0-0.2,0.1-0.3,0.1c-0.2,0-0.4,0-0.6-0.1c-0.2,0-0.4-0.1-0.6-0.1c-0.2,0-0.4-0.1-0.6-0.1c-0.2,0-0.4-0.1-0.6-0.1
		c-0.3,0-0.6,0-0.9-0.1c-0.3,0-0.6-0.1-0.9-0.1c-0.2,0-0.4,0-0.6,0c-0.2,0-0.4,0.1-0.6,0.1s-0.4,0.1-0.6,0.1c-0.2,0-0.4,0-0.6,0
		c-0.2,0-0.4,0-0.6-0.1c-0.2,0-0.4-0.1-0.6-0.1c-0.4,0-0.7,0-1.1,0.1c-0.3,0-0.7,0.1-1.1,0.1c-0.5,0-0.9-0.1-1.2-0.3
		c-0.3-0.2-0.5-0.4-0.5-0.8c0-0.2,0-0.3,0.1-0.4c0.3-0.4,0.5-0.6,0.8-0.8c0.3-0.2,0.5-0.3,0.8-0.3c0.2-0.1,0.5-0.1,0.7-0.1
		s0.4-0.1,0.6-0.2s0.3-0.2,0.4-0.4c0.1-0.2,0.1-0.5,0.1-0.9c0-0.5-0.1-1-0.2-1.5c-0.1-0.5-0.2-1-0.2-1.5c0-0.2,0-0.5,0.1-0.7
		s0.1-0.5,0.1-0.7c0-0.4,0-0.8-0.1-1.2s-0.1-0.8-0.1-1.2c0-0.3,0-0.6-0.1-0.8s-0.1-0.6-0.1-0.8c0-0.2,0-0.3,0.1-0.5
		c0-0.2,0.1-0.3,0.1-0.5s0-0.5,0-0.7s-0.1-0.5-0.1-0.7c0-0.1,0-0.3-0.1-0.4c0-0.1-0.1-0.2-0.2-0.3c-0.1-0.1-0.2-0.2-0.3-0.2
		c-0.1-0.1-0.3-0.1-0.5-0.1s-0.4,0-0.6,0.1c-0.2,0.1-0.4,0.1-0.6,0.1c-0.1,0-0.2,0-0.3,0s-0.2,0-0.3-0.1s-0.1-0.1-0.1-0.2
		s-0.1-0.1-0.1-0.2s-0.1-0.1-0.2-0.2c-0.1-0.1-0.2-0.1-0.3-0.1c0.1-0.1,0.2-0.3,0.3-0.5s0.2-0.4,0.3-0.6s0.3-0.3,0.5-0.5
		c0.2-0.1,0.4-0.2,0.6-0.2c0.2,0,0.4,0,0.6,0.1c0.2,0.1,0.4,0.1,0.6,0.1c0.3,0,0.5,0,0.8-0.1c0.2-0.1,0.5-0.1,0.8-0.1
		c0.2,0,0.4,0.1,0.6,0.2c0.2,0,0.4-0.1,0.5-0.1s0.2,0,0.3,0s0.2,0,0.3,0c0.3,0,0.7,0,1-0.1s0.6-0.1,1-0.1c0.3,0,0.5,0,0.8,0.1
		c0.2,0.1,0.5,0.1,0.7,0.2s0.5,0.2,0.7,0.2s0.5,0.1,0.7,0.2v0.1v0.1v0.1v0.1c0,0.2,0,0.3-0.1,0.5s-0.1,0.3-0.1,0.5
		c-0.1,0.2-0.2,0.3-0.3,0.4s-0.3,0.1-0.5,0.1c-0.1,0-0.2,0-0.3,0s-0.2,0-0.3,0c-0.4,0-0.8,0-1.2,0.1s-0.8,0.1-1.2,0.2
		c-0.1,0.2-0.2,0.3-0.2,0.5s0,0.3,0.1,0.5c0,0.2,0.1,0.3,0.1,0.5c-0.1,0-0.2,0-0.3-0.1c-0.1,0-0.2,0-0.3,0s-0.2,0-0.2,0.1
		c-0.1,0.1-0.1,0.1-0.1,0.2s0,0.1,0.1,0.2c0.1,0,0.1,0.1,0.2,0.1c0.1,0,0.2,0,0.3,0.1c0.1,0,0.2,0,0.2,0v0.3c0,0.3,0,0.6-0.1,0.9
		s-0.1,0.6-0.1,0.9c0,0.1,0,0.2,0,0.3s0,0.2,0,0.3c0,0.1,0,0.2-0.1,0.2s-0.2,0-0.3,0s-0.2,0-0.3,0s-0.1,0-0.1,0.1c0,0,0,0,0,0.1
		s-0.1,0.1-0.1,0.2s0,0.1,0.1,0.1s0.2,0,0.2,0c0.1,0,0.2,0,0.2,0c0.1,0,0.1,0,0.1,0.1s0,0.2,0,0.3c0,0.1-0.1,0.2-0.1,0.2
		c0,0.2,0.1,0.4,0.2,0.7c0.1,0.2,0.2,0.4,0.2,0.7c0,0.2,0,0.4-0.1,0.6s-0.1,0.4-0.1,0.6c0,0.1,0,0.3,0.1,0.4s0.1,0.2,0.2,0.4
		c0.1,0.1,0.1,0.2,0.2,0.4s0.1,0.2,0.1,0.4c0,0.2,0,0.4-0.1,0.5c-0.1,0.2-0.1,0.3-0.1,0.5c0,0,0,0.1,0,0.2c0,0.2,0.1,0.4,0.1,0.7
		s0.1,0.5,0.2,0.8s0.2,0.4,0.4,0.6s0.5,0.3,0.8,0.3s0.7,0,1-0.1s0.7-0.1,1-0.1c0.2,0,0.4,0,0.6,0.1s0.4,0.1,0.6,0.1
		c0.2,0.1,0.4,0.1,0.6,0.1c0.2,0,0.4,0.1,0.6,0.1c0.3,0,0.7,0,1-0.1s0.7-0.1,1-0.2c0.5-0.1,0.8-0.2,1-0.4c0.2-0.2,0.3-0.4,0.3-0.8
		s-0.1-0.7-0.2-1.1c-0.1-0.4-0.2-0.7-0.2-1.1c0-0.2,0-0.4,0.1-0.7s0.2-0.4,0.4-0.6c0.3-0.1,0.5-0.1,0.8-0.1c0.5,0,0.8,0.1,1,0.4
		s0.3,0.5,0.3,0.9c0,0.1,0,0.2-0.1,0.3c-0.1,0.1-0.1,0.1-0.1,0.2c0,0,0,0,0.1,0.1l0.1,0.1c0.1,0,0.1,0.1,0.1,0.2s0.1,0.1,0.1,0.2
		s0,0.1-0.1,0.1c0,0.1,0,0.2,0,0.3c0,0.1,0,0.3,0,0.4s0,0.3,0,0.4s0,0.2,0.1,0.3L660.7,162.9z"/>
</g>
</svg>
