<?xml version="1.0" encoding="utf-8"?>
<!-- Generator: Adobe Illustrator 23.0.2, SVG Export Plug-In . SVG Version: 6.00 Build 0)  -->
<svg version="1.1" id="Слой_1" xmlns="http://www.w3.org/2000/svg" xmlns:xlink="http://www.w3.org/1999/xlink" x="0px" y="0px"
	 viewBox="0 0 1000 1000" style="enable-background:new 0 0 1000 1000;" xml:space="preserve">
<style type="text/css">
	.st0{opacity:0.81;}
	.st1{fill:#040101;}
	.st2{fill:#FFC928;}
	.st3{fill:none;stroke:#000000;stroke-width:13;stroke-miterlimit:10;}
</style>
<g class="st0">
	<image style="overflow:visible;" width="1014" height="1013" xlink:href="D291E522.png"  transform="matrix(1 0 0 1 -7 -6)">
	</image>
</g>
<g>
	<g>
		<path class="st1" d="M964.3,126.4H34.5c-3.3,0-6-2.7-6-6v-26c0-3.3,2.7-6,6-6h929.8c3.3,0,6,2.7,6,6v26
			C970.3,123.8,967.6,126.4,964.3,126.4z"/>
		<path class="st1" d="M127,34v928.9c0,3.3-2.7,6-6,6H95c-3.3,0-6-2.7-6-6V34c0-3.3,2.7-6,6-6h26C124.4,28,127,30.7,127,34z"/>
	</g>
	<path class="st2" d="M933.7,413.4v554.1H379C379,661.4,627.4,413.4,933.7,413.4z"/>
	<path class="st3" d="M380.4,968.9c0-306,248.3-554.1,554.7-554.1"/>
	<path d="M366,710.4l-140.6-59.6c-3.1-1.3-4.5-4.8-3.2-7.9l8.5-20c1.3-3,4.8-4.5,7.9-3.2l140.6,59.6c3.1,1.3,4.5,4.8,3.2,7.9
		l-8.5,20C372.6,710.3,369,711.7,366,710.4z"/>
	<path d="M330.8,935.1H178.1c-3.3,0-6-2.7-6-6v-21.8c0-3.3,2.7-6,6-6h152.7c3.3,0,6,2.7,6,6v21.8
		C336.8,932.5,334.1,935.1,330.8,935.1z"/>
	<path d="M457,528.5L349,420.6c-2.3-2.3-2.3-6.1,0-8.5l15.4-15.4c2.3-2.3,6.1-2.3,8.5,0l108,107.9c2.3,2.3,2.3,6.1,0,8.5l-15.4,15.4
		C463.1,530.8,459.3,530.8,457,528.5z"/>
	<path d="M622.5,400l-36.9-148c-0.8-3.2,1.2-6.5,4.4-7.3l21.1-5.3c3.2-0.8,6.5,1.2,7.3,4.4l36.9,148c0.8,3.2-1.2,6.5-4.4,7.3
		l-21.1,5.3C626.6,405.2,623.3,403.2,622.5,400z"/>
	<path d="M842.9,367.3l0-152.6c0-3.3,2.7-6,6-6l21.8,0c3.3,0,6,2.7,6,6l0,152.6c0,3.3-2.7,6-6,6l-21.8,0
		C845.6,373.3,842.9,370.6,842.9,367.3z"/>
</g>
</svg>
