<?xml version="1.0" encoding="utf-8"?>
<!-- Generator: Adobe Illustrator 23.0.2, SVG Export Plug-In . SVG Version: 6.00 Build 0)  -->
<svg version="1.1" id="Слой_1" xmlns="http://www.w3.org/2000/svg" xmlns:xlink="http://www.w3.org/1999/xlink" x="0px" y="0px"
	 viewBox="0 0 685.3 175.6" style="enable-background:new 0 0 685.3 175.6;" xml:space="preserve">
<style type="text/css">
	.st0{fill:#040101;}
	.st1{fill:#FFC928;}
	.st2{fill:none;stroke:#000000;stroke-width:6;stroke-miterlimit:10;}
</style>
<g>
	<g>
		<path class="st0" d="M171.1,18H6.8c-1.9,0-3.4-1.5-3.4-3.4v-0.2c0-1.9,1.5-3.4,3.4-3.4H171c1.9,0,3.4,1.5,3.4,3.4v0.2
			C174.4,16.5,172.9,18,171.1,18z"/>
		<path class="st0" d="M21.3,3.4v164.7c0,1.9-1.5,3.4-3.4,3.4h-0.1c-1.9,0-3.4-1.5-3.4-3.4V3.4c0-1.9,1.5-3.4,3.4-3.4h0.1
			C19.8,0.1,21.3,1.6,21.3,3.4z"/>
	</g>
	<path class="st1" d="M167.9,72.7v98.6H69.3C69.3,116.8,113.4,72.7,167.9,72.7z"/>
	<path class="st2" d="M69.6,171.6c0-54.5,44.2-98.6,98.6-98.6"/>
	<path d="M63.9,123.3l-22.3-6.8c-1.6-0.5-2.5-2.2-2-3.8l0,0c0.5-1.6,2.2-2.5,3.8-2l22.3,6.8c1.6,0.5,2.5,2.2,2,3.8l0,0
		C67.1,122.9,65.4,123.8,63.9,123.3z"/>
	<path d="M58.8,165.5H35.4c-1.7,0-3-1.3-3-3l0,0c0-1.7,1.3-3,3-3h23.3c1.7,0,3,1.3,3,3l0,0C61.8,164.2,60.4,165.5,58.8,165.5z"/>
	<path d="M81.8,91.8L65.3,75.3c-1.2-1.2-1.2-3.1,0-4.2l0,0c1.2-1.2,3.1-1.2,4.2,0l16.5,16.5c1.2,1.2,1.2,3.1,0,4.2l0,0
		C84.8,92.9,82.9,92.9,81.8,91.8z"/>
	<path d="M112.2,68.4l-5.6-22.6c-0.4-1.6,0.6-3.2,2.2-3.6l0,0c1.6-0.4,3.2,0.6,3.6,2.2L118,67c0.4,1.6-0.6,3.2-2.2,3.6l0,0
		C114.2,71,112.6,70,112.2,68.4z"/>
	<path d="M151.7,62.5V39.2c0-1.7,1.3-3,3-3l0,0c1.7,0,3,1.3,3,3v23.3c0,1.7-1.3,3-3,3l0,0C153.2,65.5,151.7,64.2,151.7,62.5z"/>
</g>
<g>
	<path d="M263.3,72.8c2.5,1.2,4,3.1,4.7,5.5c-1.5,7.7-2.8,15.4-3.9,23c-1.2,7.6-2.3,14-3.4,19.1c-1.1,5.1-1.8,9-2.2,11.5
		c-0.4,2.6-0.9,5.1-1.4,7.7l-0.7,2.2c-0.1,0.8-0.3,1.5-0.4,2.1c-0.1,0.7-0.3,1.4-0.4,2.1c-2,2.2-4.8,3.3-8.3,3.3
		c-3.7,0-6.7-0.9-8.8-2.7c-1.3-1-1.5-3-0.7-6.1c0.4-1.2,0.6-2.8,0.7-4.8s0.2-3.6,0.4-4.9v-0.2c-2.2,0.8-4.1,1.7-5.9,2.9
		c-1.7,1.2-2.8,2-3.3,2.3c-0.4,0.3-1,0.6-1.7,0.7c-0.7,0.2-1.4,0.3-2,0.4c-1.4,0.1-2.3,0.3-2.8,0.6c-4.2,7.2-8,11.2-11.3,12
		c-2.1,0.6-4.2,0.8-6.3,0.5c-2.1-0.3-3.8-1.5-5-3.6c-2.3-2.1-1.7-7.7,1.7-17c1.9-4.9,4.6-10.8,8.1-17.6c3.5-6.9,6.9-12.8,10.2-18
		c7.1-11,14.8-20.2,23.2-27.7c1.4-0.6,2.9-1.2,4.5-1.9c1.6-0.7,3.2-1.1,4.7-1.2c1.6-0.1,3.2,0.1,4.9,0.5s3.1,1,4.3,1.9
		C264.8,67.4,265.3,69.8,263.3,72.8z M239.9,100c-1.5,4.1-3.1,7.9-4.6,11.4s-2.8,6.5-3.9,9.2l8.6-0.3c0.6-4.4,1.2-8.8,2-13.1
		c0.7-4.3,1.4-8.7,2.1-13L239.9,100z M237.1,120.7c1,0,2-0.1,3.1-0.2v-0.1c-0.9,0.1-1.8,0.1-2.6,0.2
		C236.7,120.7,236.6,120.7,237.1,120.7z"/>
	<path d="M286,61.7c1.6-1.9,3.5-2.9,5.8-3.1s4.4,0.1,6.5,1c2.1,0.9,3.9,2.2,5.4,3.9c1.5,1.8,2.3,3.7,2.5,5.8l-1,3
		c0.8,0.9,1.5,1.6,2.1,2.2c0.6,0.6,1,1.4,1,2.6c0.4,1-1.4,4.8-5.5,11.5c-1.7,2.8-3.4,5.6-5.3,8.6c-1.9,3-3.4,5.7-4.5,8
		c0.9-0.2,1.7-0.4,2.6-0.5c0.9-0.1,1.7-0.3,2.6-0.5c5.4-1.3,9-2,10.9-2c1.9,0,3.5,0.2,4.7,0.6c3.3,1.2,5.1,3.2,5.2,5.8
		c-1,2.3-4.8,5.4-11.5,9.5c-1.5,0.9-2.8,1.7-3.7,2.3l-9.5,6.4c-0.5,0.8-0.9,1.5-1.1,2.2v0.1c0.1,0.3,1.1,0.8,2.8,1.4
		c1.7,0.6,3.2,1.2,4.4,1.7c2.9,1.2,5.5,2.9,7.7,5.1c0.7,0.8,1.2,1.9,1.4,3.4c0.2,1.5,0,2.8-0.7,4.1c-0.7,1.2-1.9,2.1-3.7,2.7
		c-1.7,0.6-4.2,0.3-7.3-0.7c-4.6-1.9-10-6.2-16.3-12.9c-0.7,2.4-1.4,4.8-2.1,7.1s-1.4,4.7-2.2,7.1c-1.1,2.3-3.6,3.4-7.6,3.3
		c-1.6,0-3-0.3-4.3-0.9c-1.3-0.6-2-1.4-2.2-2.5c-0.6-1.5-0.9-2.6-0.9-3.4c0-0.7,0.2-1.6,0.5-2.5c1.7-4,2.7-7.2,3.2-9.6
		c0.4-2.4,0.7-3.8,0.9-4.2c-2-1.2-3.2-3.2-3.6-5.9c-0.4-2.6,0.2-5,2-7c2.3-0.8,4-1.4,5-1.9c0.4-2.6,1.2-5.4,2.2-8.5
		c1.8-5.4,3.2-10.2,4.2-14.2s2.4-8.5,4.3-13.6C282.8,72.1,284.5,66.9,286,61.7z"/>
	<path d="M371.9,138.9c-0.5,1.4-1,2.7-1.6,3.8s-1.5,2.1-2.6,3.1c-1.2,1-2.5,1.9-4.1,2.7c-1.6,0.9-3.1,1.5-4.6,1.8
		c-3.3,0.7-5.1-0.2-5.2-2.8c-0.2-0.7-0.7-1.1-1.4-1.2c-0.7-0.1-1.3-0.3-1.9-0.6c-1.5-0.6-2-2.3-1.3-5.1c1.2-3.8,2.4-8.4,3.8-13.8
		c1.4-5.4,3.2-11.4,5.3-17.8c5.2-15.7,11.6-29.9,19.2-42.5c0.5-0.6,1.1-1.4,1.7-2.4c0.7-1,1.5-1.9,2.5-2.7c2.5-2.2,5.7-2.7,9.4-1.6
		c-0.1,0.9,0.1,1.7,0.7,2.4c0.5,0.7,1.1,1.5,1.7,2.2c1.7,1.8,2.4,3.4,2.3,4.9c-7.7,17.3-14.7,36.7-20.8,58c-0.7,2.5-1.3,4.7-1.7,6.5
		C372.9,135.8,372.4,137.5,371.9,138.9z"/>
	<path d="M397,98.2c0.9-2.3,3.2-3.8,6.8-4.7c3.3-0.8,6.5-0.7,9.4,0.3c3,1.1,4.3,2.9,4,5.4c-0.8,2.4-1.8,5.4-3,8.8
		c-1.2,3.5-2.3,7.1-3.4,10.7c-2.9,9.4-4.6,16-5,19.9c-1.1,6.2-2.9,9.6-5.5,10c-0.7,0.1-1.4,0.2-2.1,0.3c-1.6,0.1-2.6,0.5-3.1,1.2
		c-0.4,0.8-1.2,1.3-2.2,1.7s-2.1,0.6-3.3,0.5c-1.2,0-2.4-0.3-3.7-0.8c-1.2-0.5-2.3-1.3-3.2-2.2c-2-2.3-2.4-5.5-1.2-9.4
		c1.2-7.5,4.1-17.1,8.8-28.7C392.7,105.6,394.9,101.2,397,98.2z M417.5,82.6c-3.6,0.7-6.5,0.5-8.7-0.6s-3.5-2.4-3.9-4
		s0.1-3.2,1.5-4.8c1.6-2.1,4-3.4,7.2-4c1.5-0.1,2.5-0.2,3.2-0.2s1.5,0.1,2.4,0.4c2.4,0.2,4,1.2,4.7,3c1,1.5,1.1,3.2,0.3,5.2
		C423.5,79.5,421.2,81.2,417.5,82.6z"/>
	<path d="M438.4,143.3l-2.7,2.4c-1.5,1-2.9,1.6-4.3,1.8l0.1,0.1L431,148c-5.2,0.4-9-0.7-11.5-3.2c-2.5-2.7-3.1-6.2-1.6-10.6
		c3.2-17.2,7.7-33.1,13.4-47.8c3.9-9.9,7.6-16.6,11.1-20c1.9-1.7,3.6-2.2,5.2-1.6c0.4-1.7,1.2-2.9,2.3-3.9c1.1-0.9,2.3-1.5,3.6-1.7
		s2.6,0,3.8,0.6s2.2,1.6,2.9,3.2c0.7,1.5,1,3,0.9,4.4s-0.4,2.8-1,4.1c-0.5,1.3-1.2,2.7-2,4s-1.5,2.6-2.1,3.9
		c-4.7,10.6-8,18.5-9.9,23.6l1-0.6c4.8-3,9.9-4.4,15.4-4c2.4,0.2,4.6,0.8,6.5,1.8s3.3,2.5,4.3,4.5c0.9,2,1.3,4.6,1.1,7.7
		c-0.2,3.1-0.8,6.4-1.9,9.7c-1.1,3.3-2.6,6.6-4.4,9.8c-1.9,3.2-3.9,5.9-6.2,8.3c-5.1,5.3-10,7.3-14.7,6c-2,0.3-4.4-0.6-7.1-2.7
		c-0.6-0.5-1.1-0.9-1.6-1.1L438.4,143.3L438.4,143.3z M441.4,135.8c1.1-1.2,3-3.4,5.6-6.6c2.7-3.2,4.4-5.8,5.3-7.6
		c0.9-1.8,0.7-3.5-0.7-5.1c-1.4-1.7-3.1-0.4-5.2,3.7C443,126.8,441.4,132,441.4,135.8z"/>
	<path d="M491,94.5c1.9-1.3,3.6-2.1,5.3-2.4s3.1-0.1,4.3,0.6c1.1,0.7,1.5,1.8,1.1,3.2c1.4-1.3,3.4-2.5,6-3.6s4.7-1.9,6.2-2.3
		s2.8-0.6,3.9-0.6c2.4,0.1,3.1,1.4,2.1,3.7c1.2,0.2,2.1,1,2.7,2.3c0.6,1.3,0.7,2.8,0.2,4.3c-0.4,1.6-1.4,3.1-2.9,4.7
		c-1.5,1.5-3.6,2.6-6.2,3.1c-2.6,0.6-4.7,1.8-6.4,3.8s-3.2,4.4-4.5,7.3c-2.2,4.9-4.1,11.8-5.9,20.8c-0.6,3.2-2.9,6-7.1,8.2
		c-3.9,2.1-7.5,2.8-10.8,1.9c-3.7-1-5.3-3.6-4.9-7.8c0.1-3,1.1-6.9,2.8-11.8c1.7-4.9,3.1-8.7,4-11.2s1.6-4.4,2-5.7l3.7-12.7
		C487.7,97.6,489.2,95.8,491,94.5z"/>
	<path d="M568.5,98.6l0.4,0.1c0.1,0,0.2,0,0.2,0.1c1.9-0.7,3.5-0.2,4.7,1.6c0.8,1.2,1.4,3,1.9,5.4c0.1,3.3-0.2,7.9-1.1,13.8
		c-1.7,11.9-2.6,18.9-2.7,21.2c0.1,2.4-1.4,4.1-4.7,5c-2.8,0.8-5.7,0.8-8.5-0.1c-3-1-4.2-2.4-3.7-4.4c-0.6,1-1.2,1.8-1.7,2.2
		c-0.6,0.4-1.7,1.1-3.4,1.9c-1.7,0.8-4.1,1.4-7.3,2c-3.1,0.5-6.3,0.7-9.4,0.4c-3.1-0.2-6-1-8.6-2.2s-4.3-3.1-5.2-5.6
		c-1.7-5-1.5-11.3,0.7-18.9c1.5-5,4.1-9.5,7.9-13.3c4.4-4.4,9.3-8.1,14.8-11c4.1-2.1,8.1-3.4,12-3.8c1.3-0.1,2.5-0.1,3.4,0.1
		c1,0.2,2,0.4,3.2,0.6c1.1,0.2,2.2,0.5,3.2,0.9C567.3,95.4,568.5,96.8,568.5,98.6z M548.5,126c0.5-1,0.9-2.2,1.3-3.6
		c0.3-1.4,0.8-3,1.4-4.8c-5.9,2.3-10.4,5.1-13.5,8.4c-3.4,3.7-3.2,6.2,0.7,7.6c3.3,0.8,5.8,0.3,7.3-1.6c0.7-0.8,1.2-1.9,1.7-3.1
		c0.5-1.2,1.1-2.5,1.9-3.8C548.9,125.4,548.7,125.7,548.5,126z"/>
	<path d="M592.8,94.5c1.9-1.3,3.6-2.1,5.3-2.4s3.1-0.1,4.3,0.6c1.1,0.7,1.5,1.8,1.1,3.2c1.4-1.3,3.4-2.5,6-3.6s4.7-1.9,6.2-2.3
		s2.8-0.6,3.9-0.6c2.4,0.1,3.1,1.4,2.1,3.7c1.2,0.2,2.1,1,2.7,2.3c0.6,1.3,0.7,2.8,0.2,4.3c-0.4,1.6-1.4,3.1-2.9,4.7
		c-1.5,1.5-3.6,2.6-6.2,3.1c-2.6,0.6-4.7,1.8-6.4,3.8s-3.2,4.4-4.5,7.3c-2.2,4.9-4.1,11.8-5.9,20.8c-0.6,3.2-2.9,6-7.1,8.2
		c-3.9,2.1-7.5,2.8-10.8,1.9c-3.7-1-5.3-3.6-4.9-7.8c0.1-3,1.1-6.9,2.8-11.8c1.7-4.9,3.1-8.7,4-11.2s1.6-4.4,2-5.7l3.7-12.7
		C589.5,97.6,590.9,95.8,592.8,94.5z"/>
	<path d="M624.4,111.3c0-2.8-0.2-5.1-0.7-6.9c-0.5-1.8-0.5-3.3,0.1-4.5c0.5-1.2,1.4-2.1,2.6-2.5c1.2-0.5,2.6-0.6,4.3-0.5
		c1.6,0.2,3.3,0.6,4.9,1.4c3.9,1.7,6.5,4,8.1,7c0.4,1.5,0.2,3.4-0.4,5.6c-0.6,2.2-1.3,4.6-2.1,6.9c-0.8,2.4-1.6,4.7-2.3,6.9
		s-1,4.1-0.9,5.6c1.9-1.1,3.5-2.8,5-5c1.4-2.2,2.7-4.6,3.9-7.1s2.3-5,3.4-7.5c1.1-2.5,2.1-4.4,3.1-5.9s1.8-2.6,2.3-3.5
		c0.6-0.9,1.2-1.6,1.7-2.3c0.9-1.2,2.2-2.3,3.7-3.4c0.4-0.3,1.8-0.3,4,0.2c2.2,0.4,3.9,0.8,4.9,0.9c1.1,0.2,1.8,0.1,2.1-0.2l1.5-1
		c2-1,4.4-0.9,7.2,0.1c2.7,1.1,4.1,2.8,4.3,5.1c-0.1,0.1-0.1,0.2-0.1,0.4l0.3,0.1l-0.8,0.6c-0.5,0.9-0.9,1.5-1.1,1.8
		c-0.3,0.3-0.8,0.8-1.6,1.4c-4.9,5-10.6,14.4-17,28c-1.6,3.4-3.1,6.4-4.4,9.1c2,1.2,3.5,2.7,4.5,4.6c1,1.9,1,3.9,0,6.1
		c-6,4.6-9.4,8.8-10.1,12.8c-0.4,2.5-0.8,4.2-1.4,5.3c-0.5,1-1.4,2-2.6,3c-3.9,2.8-8.5,2.1-13.9-2.1c-3.8-3.6-4-8.1-0.5-13.4
		c0.9-1.4,1.7-3,2.5-4.6c1.2-2.3,3-5.8,5.6-10.4c-6.3,3.4-12,3.4-17.2-0.2c-3.7-2.7-5-8.8-3.9-18.3
		C624,118.7,624.4,114.1,624.4,111.3z"/>
</g>
</svg>
